<svg width="56" height="56" viewBox="0 0 56 56" fill="none" xmlns="http://www.w3.org/2000/svg">
<path d="M40.6731 39.9955C40.1818 39.7492 39.6929 39.4977 39.2045 39.2458C38.8891 39.0836 38.5737 38.921 38.2575 38.7599C37.5983 38.4243 36.938 38.09 36.2781 37.7556C35.7937 37.5104 35.3097 37.2649 34.8256 37.0194C34.0109 36.6057 33.1969 36.1911 32.3833 35.775C31.8649 35.5097 31.3465 35.2439 30.8285 34.9778C30.1545 34.6319 29.4808 34.286 28.8063 33.9417C26.964 33.0012 25.1214 32.0615 23.2775 31.1238C22.5711 30.7644 21.8638 30.4066 21.157 30.0484C20.1307 29.5288 19.1045 29.0088 18.0798 28.4856C16.8692 27.8672 15.6136 27.2179 14.3476 26.555C13.5789 26.1528 13.4022 25.8149 13.5247 24.9839C13.6217 24.3242 13.7414 23.5424 13.8927 22.7423C14.1013 21.638 14.5154 20.5385 15.1955 19.2819C16.0301 17.7392 17.1332 16.4017 18.4733 15.3053C19.8873 14.1491 21.4235 13.2903 23.0389 12.7532C24.512 12.2633 26.0781 12.0103 27.6931 12.0004C28.793 11.9916 29.93 12.1451 31.2871 12.4767C32.6506 12.8099 33.9559 13.3637 35.1665 14.1225C36.4301 14.9142 37.5183 15.84 38.4006 16.8733C39.2534 17.8725 39.9125 18.8701 40.4151 19.9221C40.4956 20.0907 40.5894 20.2565 40.6889 20.4322C40.8373 20.6948 40.9909 20.9661 41.1086 21.2648C41.2546 21.6349 41.1757 22.0906 41.033 22.3778C40.8195 22.8082 40.3508 23.001 39.7807 22.8947C38.179 22.5952 36.5765 22.3001 34.9736 22.0049L27.2427 20.5786C27.148 20.5611 27.0837 20.5567 27.0425 20.5567C26.9984 20.5567 26.9818 20.5619 26.9806 20.5607C26.9754 20.5667 26.9305 20.6218 26.8921 20.8233L26.6361 22.1581C26.5164 22.7812 26.3967 23.404 26.2778 24.0271C26.2491 24.1779 26.2649 24.2191 26.2649 24.2191C26.2653 24.2195 26.2884 24.26 26.4347 24.3385C27.0748 24.6824 27.7153 25.0255 28.3559 25.3686C29.1359 25.7863 29.9155 26.2044 30.6947 26.6233C31.2163 26.9033 31.7371 27.1846 32.2583 27.4658C32.8993 27.8117 33.5398 28.1576 34.1819 28.5015C34.6991 28.7787 35.2458 29.0651 35.8527 29.3773C35.9562 29.4304 35.9882 29.4201 36.0598 29.3745C36.8887 28.8505 37.737 28.3281 38.5571 27.8228L39.0577 27.5146C39.2655 27.3865 39.4742 27.2603 39.6832 27.1346C40.0318 26.9243 40.3921 26.707 40.737 26.4852C41.1632 26.2111 41.6371 26.16 42.0374 26.3456C42.4321 26.5281 42.6897 26.9097 42.7434 27.3928C42.9606 29.3305 43.035 30.8203 42.9848 32.2233C42.9476 33.261 42.9024 34.1099 42.8417 34.8949C42.7899 35.5664 42.7107 36.2903 42.5926 37.1729C42.5162 37.7417 42.4179 38.3129 42.3229 38.8654L42.2635 39.2109C42.2089 39.5302 41.9828 39.8166 41.6593 39.9765C41.4911 40.0594 41.3104 40.101 41.1341 40.101C40.9723 40.101 40.8142 40.0661 40.6731 39.9955ZM41.3019 27.3301C40.9448 27.5598 40.5777 27.7811 40.2231 27.9953C40.0168 28.1195 39.811 28.244 39.6064 28.3702L39.1054 28.6788C38.2878 29.1825 37.4423 29.7034 36.6182 30.2242C36.2259 30.4725 35.7961 30.4891 35.3752 30.2726C34.763 29.958 34.211 29.6688 33.6886 29.3888C33.0456 29.0445 32.4039 28.6978 31.7622 28.3515C31.2418 28.0707 30.7214 27.7895 30.2001 27.5098C29.4213 27.0913 28.6417 26.6737 27.8621 26.256C27.2212 25.9125 26.5807 25.5693 25.9402 25.2254C25.3514 24.9093 25.1432 24.4825 25.2657 23.8419C25.3846 23.2183 25.5043 22.5952 25.624 21.9716L25.88 20.6377C25.9325 20.3632 26.0425 19.9713 26.3907 19.7341C26.7425 19.4945 27.1541 19.5349 27.4335 19.5865L34.211 20.836L34.2106 20.8368L35.1641 21.0125C36.7678 21.3076 38.3711 21.6031 39.974 21.9026C40.0447 21.9157 40.0929 21.9141 40.1183 21.9109C40.158 21.8122 40.1656 21.6753 40.1483 21.6293C40.0561 21.3957 39.9263 21.1656 39.7884 20.9225C39.6849 20.7396 39.5781 20.5504 39.4827 20.3509C39.0185 19.3787 38.4063 18.4536 37.6113 17.5223C36.7965 16.5679 35.7876 15.7103 34.6125 14.9741C33.4961 14.2744 32.2935 13.7643 31.0384 13.4577C29.7671 13.1467 28.7085 13.0091 27.6996 13.011C26.1949 13.0202 24.738 13.2554 23.3693 13.7104C21.8743 14.2074 20.449 15.0051 19.1324 16.0816C17.895 17.0931 16.8764 18.3295 16.1049 19.7555C15.4753 20.9189 15.094 21.9268 14.9052 22.9268C14.7576 23.7094 14.6395 24.4789 14.5441 25.1291C14.5073 25.3778 14.5138 25.4535 14.5154 25.4658C14.5307 25.4857 14.5922 25.5384 14.8328 25.6645C16.0956 26.3258 17.3479 26.9739 18.5553 27.5903C19.5788 28.1131 20.6038 28.6324 21.6293 29.1516C22.3369 29.5102 23.0442 29.8684 23.7514 30.2277C25.5957 31.1658 27.4388 32.1055 29.2818 33.0464C29.9571 33.3911 30.6316 33.7374 31.3061 34.0833C31.8241 34.349 32.3416 34.6148 32.8596 34.8798C33.672 35.2955 34.4856 35.7092 35.2991 36.1225C35.7828 36.3681 36.2668 36.6136 36.7504 36.8583C37.4111 37.1931 38.0714 37.5275 38.7314 37.8635C39.0488 38.0253 39.3658 38.1883 39.6828 38.3514C40.1681 38.6013 40.6533 38.8512 41.1292 39.0911C41.1612 39.0955 41.2356 39.0594 41.2473 39.0435L41.3067 38.6965C41.4006 38.153 41.4972 37.5914 41.5708 37.0408C41.6864 36.1773 41.7637 35.4712 41.8142 34.8183C41.8737 34.0476 41.9185 33.2114 41.9549 32.1876C42.0031 30.835 41.9307 29.3904 41.7192 27.5027C41.7054 27.3789 41.6598 27.2881 41.5975 27.2591C41.5793 27.2508 41.5574 27.2464 41.5332 27.2464C41.4693 27.2464 41.386 27.2758 41.3019 27.3301Z" fill="url(#paint0_linear_870_82)"/>
<path d="M40.3007 43.9916L13.4107 38.8064C13.1373 38.7537 12.9574 38.4836 13.0088 38.2031L14.4778 30.187C14.5069 30.0271 14.608 29.8907 14.7499 29.8189C14.8923 29.7471 15.0589 29.7479 15.2004 29.8213L40.6214 43.0229C40.845 43.1392 40.9513 43.4065 40.8709 43.6501C40.8005 43.8627 40.6064 44.0007 40.3941 44.0007C40.3634 44.0007 40.3323 43.9979 40.3007 43.9916ZM14.092 37.8862L37.0092 42.3054L15.3439 31.0545L14.092 37.8862Z" fill="url(#paint1_linear_870_82)"/>
<defs>
<linearGradient id="paint0_linear_870_82" x1="42.9999" y1="26.0505" x2="13.4894" y2="26.0505" gradientUnits="userSpaceOnUse">
<stop offset="0.1974" stop-color="#BB8A4F"/>
<stop offset="0.4423" stop-color="#E9B471"/>
<stop offset="0.6898" stop-color="#E9B471"/>
<stop offset="1" stop-color="#E8C66C"/>
</linearGradient>
<linearGradient id="paint1_linear_870_82" x1="40.8978" y1="36.8831" x2="12.9999" y2="36.8831" gradientUnits="userSpaceOnUse">
<stop offset="0.1974" stop-color="#BB8A4F"/>
<stop offset="0.4423" stop-color="#E9B471"/>
<stop offset="0.6898" stop-color="#E9B471"/>
<stop offset="1" stop-color="#E8C66C"/>
</linearGradient>
</defs>
</svg>
