{
  "accessors": [
    {
      "bufferView": 0,
      "componentType": 5125,
      "count": 58758,
      "type": "SCALAR"
    },
    {
      "bufferView": 1,
      "componentType": 5126,
      "count": 11562,
      "max": [
        0.900465130805969,
        1.0261515378952,
        17.7648372650146
      ],
      "min": [
        -0.90046501159668,
        -1.18628895282745,
        15.3848514556885
      ],
      "type": "VEC3"
    },
    {
      "bufferView": 2,
      "componentType": 5126,
      "count": 11562,
      "type": "VEC3"
    },
    {
      "bufferView": 3,
      "componentType": 5126,
      "count": 11562,
      "type": "VEC2"
    },
    {
      "bufferView": 4,
      "componentType": 5125,
      "count": 6795,
      "type": "SCALAR"
    },
    {
      "bufferView": 5,
      "componentType": 5126,
      "count": 1447,
      "max": [
        4.04485702514648,
        -7.89273500442505,
        171.855850219727
      ],
      "min": [
        -4.12033224105835,
        -11.0600500106812,
        163.686477661133
      ],
      "type": "VEC3"
    },
    {
      "bufferView": 6,
      "componentType": 5126,
      "count": 1447,
      "type": "VEC3"
    },
    {
      "bufferView": 7,
      "componentType": 5126,
      "count": 1447,
      "type": "VEC2"
    },
    {
      "bufferView": 8,
      "componentType": 5125,
      "count": 5688,
      "type": "SCALAR"
    },
    {
      "bufferView": 9,
      "componentType": 5126,
      "count": 4046,
      "max": [
        3.05510234832764,
        165.013488769531,
        -2.77488231658936
      ],
      "min": [
        -3.15493154525757,
        164.440933227539,
        -3.17483997344971
      ],
      "type": "VEC3"
    },
    {
      "bufferView": 10,
      "componentType": 5126,
      "count": 4046,
      "type": "VEC3"
    },
    {
      "bufferView": 11,
      "componentType": 5126,
      "count": 4046,
      "type": "VEC2"
    }
  ],
  "asset": {
    "generator": "Adobe Substance 3D Painter 7.4.2",
    "version": "2.0"
  },
  "bufferViews": [
    {
      "buffer": 0,
      "byteLength": 235032,
      "target": 34963
    },
    {
      "buffer": 0,
      "byteLength": 138744,
      "byteOffset": 235032,
      "target": 34962
    },
    {
      "buffer": 0,
      "byteLength": 138744,
      "byteOffset": 373776,
      "target": 34962
    },
    {
      "buffer": 0,
      "byteLength": 92496,
      "byteOffset": 512520,
      "target": 34962
    },
    {
      "buffer": 0,
      "byteLength": 27180,
      "byteOffset": 605016,
      "target": 34963
    },
    {
      "buffer": 0,
      "byteLength": 17364,
      "byteOffset": 632196,
      "target": 34962
    },
    {
      "buffer": 0,
      "byteLength": 17364,
      "byteOffset": 649560,
      "target": 34962
    },
    {
      "buffer": 0,
      "byteLength": 11576,
      "byteOffset": 666924,
      "target": 34962
    },
    {
      "buffer": 0,
      "byteLength": 22752,
      "byteOffset": 678500,
      "target": 34963
    },
    {
      "buffer": 0,
      "byteLength": 48552,
      "byteOffset": 701252,
      "target": 34962
    },
    {
      "buffer": 0,
      "byteLength": 48552,
      "byteOffset": 749804,
      "target": 34962
    },
    {
      "buffer": 0,
      "byteLength": 32368,
      "byteOffset": 798356,
      "target": 34962
    }
  ],
  "buffers": [
    {
      "byteLength": 830724,
      "uri": "./AirMax_Texture_v04.bin"
    }
  ],
  "images": [
    {
      "uri": "./Airmax_baseColor.png"
    },
    {
      "uri": "./Airmax_occlusionRoughnessMetallic.png"
    },
    {
      "uri": "./Airmax_normal.png"
    },
    {
      "uri": "./Airmax_emissive.png"
    }
  ],
  "materials": [
    {
      "alphaMode": "BLEND",
      "emissiveFactor": [
        1.0,
        1.0,
        1.0
      ],
      "emissiveTexture": {
        "index": 3
      },
      "name": "Airmax",
      "normalTexture": {
        "index": 2
      },
      "occlusionTexture": {
        "index": 1
      },
      "pbrMetallicRoughness": {
        "baseColorTexture": {
          "index": 0
        },
        "metallicRoughnessTexture": {
          "index": 1
        }
      }
    }
  ],
  "meshes": [
    {
      "name": "AirMax_Head_Low",
      "primitives": [
        {
          "attributes": {
            "NORMAL": 2,
            "POSITION": 1,
            "TEXCOORD_0": 3
          },
          "indices": 0,
          "material": 0,
          "mode": 4
        }
      ]
    },
    {
      "name": "Cords_low",
      "primitives": [
        {
          "attributes": {
            "NORMAL": 6,
            "POSITION": 5,
            "TEXCOORD_0": 7
          },
          "indices": 4,
          "material": 0,
          "mode": 4
        }
      ]
    },
    {
      "name": "MADE IN METAVERSE",
      "primitives": [
        {
          "attributes": {
            "NORMAL": 10,
            "POSITION": 9,
            "TEXCOORD_0": 11
          },
          "indices": 8,
          "material": 0,
          "mode": 4
        }
      ]
    }
  ],
  "nodes": [
    {
      "children": [
        1,
        3,
        5
      ],
      "name": "RootNode"
    },
    {
      "children": [
        2
      ],
      "name": "AirMax_Head_Low",
      "rotation": [
        -0.70710676908493,
        0.0,
        0.0,
        0.70710676908493
      ],
      "scale": [
        99.3019027709961,
        99.3019027709961,
        99.3019027709961
      ],
      "translation": [
        -0.0689958781003952,
        11.9447708129883,
        0.995428085327148
      ]
    },
    {
      "mesh": 0,
      "name": "AirMax_Head_Low"
    },
    {
      "children": [
        4
      ],
      "name": "Cords_low",
      "rotation": [
        -0.70710676908493,
        0.0,
        0.0,
        0.70710676908493
      ],
      "scale": [
        10.0,
        10.0,
        10.0
      ]
    },
    {
      "mesh": 1,
      "name": "Cords_low"
    },
    {
      "children": [
        6
      ],
      "name": "MADE IN METAVERSE",
      "rotation": [
        8.14603424714733e-08,
        0.0,
        0.0,
        1.0
      ],
      "scale": [
        10.0,
        10.0,
        10.0
      ],
      "translation": [
        0.0,
        -6.5881795308087e-05,
        -0.000199233298189938
      ]
    },
    {
      "mesh": 2,
      "name": "MADE IN METAVERSE"
    }
  ],
  "samplers": [
    {
      "magFilter": 9729,
      "minFilter": 9985,
      "wrapS": 10497,
      "wrapT": 10497
    }
  ],
  "scene": 0,
  "scenes": [
    {
      "name": "Scene",
      "nodes": [
        0
      ]
    }
  ],
  "textures": [
    {
      "sampler": 0,
      "source": 0
    },
    {
      "sampler": 0,
      "source": 1
    },
    {
      "sampler": 0,
      "source": 2
    },
    {
      "sampler": 0,
      "source": 3
    }
  ]
}