<svg width="360" height="147" viewBox="0 0 360 147" fill="none" xmlns="http://www.w3.org/2000/svg">
<path d="M36.2797 111.128H47.0676L51.2731 107.013V87.8653H42.9536V103.344H40.4851V53.3286H42.9536V68.8075H51.2731V49.6602L47.0676 45.5444H36.2797L32.0742 49.6602V107.013L36.2797 111.128Z" fill="black"/>
<path d="M76.323 45.5444H65.5351L61.3296 49.6602V107.013L65.5351 111.128H76.323L80.5284 107.013V49.6602L76.323 45.5444ZM72.1175 103.344H69.7405V53.3286H72.1175V103.344Z" fill="black"/>
<path d="M116.823 45.5444H107.498L104.116 69.2549L99.9101 45.5444H90.585V111.128H98.0817V74.3549L101.464 91.6232H104.938L108.412 74.3549V111.128H116.823V45.5444Z" fill="black"/>
<path d="M135.304 111.128V45.5444H126.894V111.128H135.304Z" fill="black"/>
<path d="M164.91 45.5444H156.5V61.7391L153.757 45.5444H145.346V111.128H153.757V94.5758L156.5 111.128H164.91V45.5444Z" fill="black"/>
<path d="M194.157 77.7548H184.558V85.539H185.746V103.344H183.369V53.3286H185.746V68.8075H194.157V49.6602L189.952 45.5444H179.164L174.958 49.6602V107.013L179.164 111.128H189.952L194.157 107.013V77.7548Z" fill="black"/>
<path d="M240.794 107.013V77.1285L230.006 68.4496V53.3286H232.383V68.0022H240.794V49.6602L236.588 45.5444H225.8L221.595 49.6602V73.818L232.474 82.5864V103.344H229.914V82.9443H221.595V107.013L225.8 111.128H236.588L240.794 107.013Z" fill="black"/>
<path d="M265.844 45.5444H255.056L250.85 49.6602V107.013L255.056 111.128H265.844L270.049 107.013V49.6602L265.844 45.5444ZM261.638 103.344H259.261V53.3286H261.638V103.344Z" fill="black"/>
<path d="M295.099 45.5444H284.311L280.106 49.6602V107.013L284.311 111.128H295.099L299.305 107.013V49.6602L295.099 45.5444ZM290.894 103.344H288.517V53.3286H290.894V103.344Z" fill="black"/>
<path d="M328.926 45.5444H320.515V61.7391L317.772 45.5444H309.361V111.128H317.772V94.5758L320.515 111.128H328.926V45.5444Z" fill="black"/>
<rect x="-86" y="29.8772" width="533" height="7.28712" fill="#E9C56D"/>
<rect x="-86" y="120.237" width="533" height="5.46534" fill="#E9C56D"/>
<rect x="-86" y="20.4039" width="533" height="3.64356" fill="#E9C56D"/>
<g clip-path="url(#clip0_870_166)">
<path d="M83.1169 125.703H-86V250.677H83.1169V125.703Z" fill="white"/>
<path d="M-75.4283 125.703H-86V136.117H-75.4283V125.703Z" fill="#231F20"/>
<path d="M-54.2837 125.703H-64.8554V136.117H-54.2837V125.703Z" fill="#231F20"/>
<path d="M-33.1402 125.703H-43.7119V136.117H-33.1402V125.703Z" fill="#231F20"/>
<path d="M-11.9956 125.703H-22.5673V136.117H-11.9956V125.703Z" fill="#231F20"/>
<path d="M9.14905 125.703H-1.42271V136.117H9.14905V125.703Z" fill="#231F20"/>
<path d="M30.2925 125.703H19.7208V136.117H30.2925V125.703Z" fill="#231F20"/>
<path d="M51.4371 125.703H40.8654V136.117H51.4371V125.703Z" fill="#231F20"/>
<path d="M72.5817 125.703H62.01V136.117H72.5817V125.703Z" fill="#231F20"/>
<path d="M-64.8565 136.117H-75.4283V146.531H-64.8565V136.117Z" fill="#231F20"/>
<path d="M-43.7119 136.117H-54.2837V146.531H-43.7119V136.117Z" fill="#231F20"/>
<path d="M-22.5673 136.117H-33.139V146.531H-22.5673V136.117Z" fill="#231F20"/>
<path d="M-1.42381 136.117H-11.9956V146.531H-1.42381V136.117Z" fill="#231F20"/>
<path d="M19.7208 136.117H9.14905V146.531H19.7208V136.117Z" fill="#231F20"/>
<path d="M40.8654 136.117H30.2937V146.531H40.8654V136.117Z" fill="#231F20"/>
<path d="M62.0089 136.117H51.4371V146.531H62.0089V136.117Z" fill="#231F20"/>
<path d="M83.1535 136.117H72.5817V146.531H83.1535V136.117Z" fill="#231F20"/>
<path d="M-75.4283 146.532H-86V156.946H-75.4283V146.532Z" fill="#231F20"/>
<path d="M-54.2837 146.532H-64.8554V156.946H-54.2837V146.532Z" fill="#231F20"/>
<path d="M-33.1402 146.532H-43.7119V156.946H-33.1402V146.532Z" fill="#231F20"/>
<path d="M-11.9956 146.532H-22.5673V156.946H-11.9956V146.532Z" fill="#231F20"/>
<path d="M9.14905 146.532H-1.42271V156.946H9.14905V146.532Z" fill="#231F20"/>
<path d="M30.2925 146.532H19.7208V156.946H30.2925V146.532Z" fill="#231F20"/>
<path d="M51.4371 146.532H40.8654V156.946H51.4371V146.532Z" fill="#231F20"/>
<path d="M72.5817 146.532H62.01V156.946H72.5817V146.532Z" fill="#231F20"/>
<path d="M-64.8565 156.946H-75.4283V167.36H-64.8565V156.946Z" fill="#231F20"/>
<path d="M-43.7119 156.946H-54.2837V167.36H-43.7119V156.946Z" fill="#231F20"/>
<path d="M-22.5673 156.946H-33.139V167.36H-22.5673V156.946Z" fill="#231F20"/>
<path d="M-1.42381 156.946H-11.9956V167.36H-1.42381V156.946Z" fill="#231F20"/>
<path d="M19.7208 156.946H9.14905V167.36H19.7208V156.946Z" fill="#231F20"/>
<path d="M40.8654 156.946H30.2937V167.36H40.8654V156.946Z" fill="#231F20"/>
<path d="M62.0089 156.946H51.4371V167.36H62.0089V156.946Z" fill="#231F20"/>
<path d="M83.1535 156.946H72.5817V167.36H83.1535V156.946Z" fill="#231F20"/>
<path d="M-75.4283 167.36H-86V177.774H-75.4283V167.36Z" fill="#231F20"/>
<path d="M-54.2837 167.36H-64.8554V177.774H-54.2837V167.36Z" fill="#231F20"/>
<path d="M-33.1402 167.36H-43.7119V177.774H-33.1402V167.36Z" fill="#231F20"/>
<path d="M-11.9956 167.36H-22.5673V177.774H-11.9956V167.36Z" fill="#231F20"/>
<path d="M9.14905 167.36H-1.42271V177.774H9.14905V167.36Z" fill="#231F20"/>
<path d="M30.2925 167.36H19.7208V177.774H30.2925V167.36Z" fill="#231F20"/>
<path d="M51.4371 167.36H40.8654V177.774H51.4371V167.36Z" fill="#231F20"/>
<path d="M72.5817 167.36H62.01V177.774H72.5817V167.36Z" fill="#231F20"/>
<path d="M-64.8565 177.775H-75.4283V188.19H-64.8565V177.775Z" fill="#231F20"/>
<path d="M-43.7119 177.775H-54.2837V188.19H-43.7119V177.775Z" fill="#231F20"/>
<path d="M-22.5673 177.775H-33.139V188.19H-22.5673V177.775Z" fill="#231F20"/>
<path d="M-1.42381 177.775H-11.9956V188.19H-1.42381V177.775Z" fill="#231F20"/>
<path d="M19.7208 177.775H9.14905V188.19H19.7208V177.775Z" fill="#231F20"/>
<path d="M40.8654 177.775H30.2937V188.19H40.8654V177.775Z" fill="#231F20"/>
<path d="M62.0089 177.775H51.4371V188.19H62.0089V177.775Z" fill="#231F20"/>
<path d="M83.1535 177.775H72.5817V188.19H83.1535V177.775Z" fill="#231F20"/>
<path d="M-75.4283 188.19H-86V198.604H-75.4283V188.19Z" fill="#231F20"/>
<path d="M-54.2837 188.19H-64.8554V198.604H-54.2837V188.19Z" fill="#231F20"/>
<path d="M-33.1402 188.19H-43.7119V198.604H-33.1402V188.19Z" fill="#231F20"/>
<path d="M-11.9956 188.19H-22.5673V198.604H-11.9956V188.19Z" fill="#231F20"/>
<path d="M9.14905 188.19H-1.42271V198.604H9.14905V188.19Z" fill="#231F20"/>
<path d="M30.2925 188.19H19.7208V198.604H30.2925V188.19Z" fill="#231F20"/>
<path d="M51.4371 188.19H40.8654V198.604H51.4371V188.19Z" fill="#231F20"/>
<path d="M72.5817 188.19H62.01V198.604H72.5817V188.19Z" fill="#231F20"/>
<path d="M-64.8565 198.604H-75.4283V209.018H-64.8565V198.604Z" fill="#231F20"/>
<path d="M-43.7119 198.604H-54.2837V209.018H-43.7119V198.604Z" fill="#231F20"/>
<path d="M-22.5673 198.604H-33.139V209.018H-22.5673V198.604Z" fill="#231F20"/>
<path d="M-1.42381 198.604H-11.9956V209.018H-1.42381V198.604Z" fill="#231F20"/>
<path d="M19.7208 198.604H9.14905V209.018H19.7208V198.604Z" fill="#231F20"/>
<path d="M40.8654 198.604H30.2937V209.018H40.8654V198.604Z" fill="#231F20"/>
<path d="M62.0089 198.604H51.4371V209.018H62.0089V198.604Z" fill="#231F20"/>
<path d="M83.1535 198.604H72.5817V209.018H83.1535V198.604Z" fill="#231F20"/>
<path d="M-75.4283 209.019H-86V219.433H-75.4283V209.019Z" fill="#231F20"/>
<path d="M-54.2837 209.019H-64.8554V219.433H-54.2837V209.019Z" fill="#231F20"/>
<path d="M-33.1402 209.019H-43.7119V219.433H-33.1402V209.019Z" fill="#231F20"/>
<path d="M-11.9956 209.019H-22.5673V219.433H-11.9956V209.019Z" fill="#231F20"/>
<path d="M9.14905 209.019H-1.42271V219.433H9.14905V209.019Z" fill="#231F20"/>
<path d="M30.2925 209.019H19.7208V219.433H30.2925V209.019Z" fill="#231F20"/>
<path d="M51.4371 209.019H40.8654V219.433H51.4371V209.019Z" fill="#231F20"/>
<path d="M72.5817 209.019H62.01V219.433H72.5817V209.019Z" fill="#231F20"/>
<path d="M-64.8565 219.433H-75.4283V229.847H-64.8565V219.433Z" fill="#231F20"/>
<path d="M-43.7119 219.433H-54.2837V229.847H-43.7119V219.433Z" fill="#231F20"/>
<path d="M-22.5673 219.433H-33.139V229.847H-22.5673V219.433Z" fill="#231F20"/>
<path d="M-1.42381 219.433H-11.9956V229.847H-1.42381V219.433Z" fill="#231F20"/>
<path d="M19.7208 219.433H9.14905V229.847H19.7208V219.433Z" fill="#231F20"/>
<path d="M40.8654 219.433H30.2937V229.847H40.8654V219.433Z" fill="#231F20"/>
<path d="M62.0089 219.433H51.4371V229.847H62.0089V219.433Z" fill="#231F20"/>
<path d="M83.1535 219.433H72.5817V229.847H83.1535V219.433Z" fill="#231F20"/>
<path d="M-75.4283 229.847H-86V240.261H-75.4283V229.847Z" fill="#231F20"/>
<path d="M-54.2837 229.847H-64.8554V240.261H-54.2837V229.847Z" fill="#231F20"/>
<path d="M-33.1402 229.847H-43.7119V240.261H-33.1402V229.847Z" fill="#231F20"/>
<path d="M-11.9956 229.847H-22.5673V240.261H-11.9956V229.847Z" fill="#231F20"/>
<path d="M9.14905 229.847H-1.42271V240.261H9.14905V229.847Z" fill="#231F20"/>
<path d="M30.2925 229.847H19.7208V240.261H30.2925V229.847Z" fill="#231F20"/>
<path d="M51.4371 229.847H40.8654V240.261H51.4371V229.847Z" fill="#231F20"/>
<path d="M72.5817 229.847H62.01V240.261H72.5817V229.847Z" fill="#231F20"/>
<path d="M-64.8565 240.263H-75.4283V250.677H-64.8565V240.263Z" fill="#231F20"/>
<path d="M-43.7119 240.263H-54.2837V250.677H-43.7119V240.263Z" fill="#231F20"/>
<path d="M-22.5673 240.263H-33.139V250.677H-22.5673V240.263Z" fill="#231F20"/>
<path d="M-1.42381 240.263H-11.9956V250.677H-1.42381V240.263Z" fill="#231F20"/>
<path d="M19.7208 240.263H9.14905V250.677H19.7208V240.263Z" fill="#231F20"/>
<path d="M40.8654 240.263H30.2937V250.677H40.8654V240.263Z" fill="#231F20"/>
<path d="M62.0089 240.263H51.4371V250.677H62.0089V240.263Z" fill="#231F20"/>
<path d="M83.1535 240.263H72.5817V250.677H83.1535V240.263Z" fill="#231F20"/>
<path d="M252.27 125.703H83.1535V250.677H252.27V125.703Z" fill="white"/>
<path d="M93.7252 125.703H83.1535V136.117H93.7252V125.703Z" fill="#231F20"/>
<path d="M114.87 125.703H104.298V136.117H114.87V125.703Z" fill="#231F20"/>
<path d="M136.013 125.703H125.442V136.117H136.013V125.703Z" fill="#231F20"/>
<path d="M157.158 125.703H146.586V136.117H157.158V125.703Z" fill="#231F20"/>
<path d="M178.303 125.703H167.731V136.117H178.303V125.703Z" fill="#231F20"/>
<path d="M199.446 125.703H188.874V136.117H199.446V125.703Z" fill="#231F20"/>
<path d="M220.591 125.703H210.019V136.117H220.591V125.703Z" fill="#231F20"/>
<path d="M241.735 125.703H231.163V136.117H241.735V125.703Z" fill="#231F20"/>
<path d="M104.297 136.117H93.7252V146.531H104.297V136.117Z" fill="#231F20"/>
<path d="M125.442 136.117H114.87V146.531H125.442V136.117Z" fill="#231F20"/>
<path d="M146.586 136.117H136.014V146.531H146.586V136.117Z" fill="#231F20"/>
<path d="M167.73 136.117H157.158V146.531H167.73V136.117Z" fill="#231F20"/>
<path d="M188.874 136.117H178.303V146.531H188.874V136.117Z" fill="#231F20"/>
<path d="M210.019 136.117H199.447V146.531H210.019V136.117Z" fill="#231F20"/>
<path d="M231.162 136.117H220.591V146.531H231.162V136.117Z" fill="#231F20"/>
<path d="M252.307 136.117H241.735V146.531H252.307V136.117Z" fill="#231F20"/>
<path d="M93.7252 146.532H83.1535V156.946H93.7252V146.532Z" fill="#231F20"/>
<path d="M114.87 146.532H104.298V156.946H114.87V146.532Z" fill="#231F20"/>
<path d="M136.013 146.532H125.442V156.946H136.013V146.532Z" fill="#231F20"/>
<path d="M157.158 146.532H146.586V156.946H157.158V146.532Z" fill="#231F20"/>
<path d="M178.303 146.532H167.731V156.946H178.303V146.532Z" fill="#231F20"/>
<path d="M199.446 146.532H188.874V156.946H199.446V146.532Z" fill="#231F20"/>
<path d="M220.591 146.532H210.019V156.946H220.591V146.532Z" fill="#231F20"/>
<path d="M241.735 146.532H231.163V156.946H241.735V146.532Z" fill="#231F20"/>
<path d="M104.297 156.946H93.7252V167.36H104.297V156.946Z" fill="#231F20"/>
<path d="M125.442 156.946H114.87V167.36H125.442V156.946Z" fill="#231F20"/>
<path d="M146.586 156.946H136.014V167.36H146.586V156.946Z" fill="#231F20"/>
<path d="M167.73 156.946H157.158V167.36H167.73V156.946Z" fill="#231F20"/>
<path d="M188.874 156.946H178.303V167.36H188.874V156.946Z" fill="#231F20"/>
<path d="M210.019 156.946H199.447V167.36H210.019V156.946Z" fill="#231F20"/>
<path d="M231.162 156.946H220.591V167.36H231.162V156.946Z" fill="#231F20"/>
<path d="M252.307 156.946H241.735V167.36H252.307V156.946Z" fill="#231F20"/>
<path d="M93.7252 167.36H83.1535V177.774H93.7252V167.36Z" fill="#231F20"/>
<path d="M114.87 167.36H104.298V177.774H114.87V167.36Z" fill="#231F20"/>
<path d="M136.013 167.36H125.442V177.774H136.013V167.36Z" fill="#231F20"/>
<path d="M157.158 167.36H146.586V177.774H157.158V167.36Z" fill="#231F20"/>
<path d="M178.303 167.36H167.731V177.774H178.303V167.36Z" fill="#231F20"/>
<path d="M199.446 167.36H188.874V177.774H199.446V167.36Z" fill="#231F20"/>
<path d="M220.591 167.36H210.019V177.774H220.591V167.36Z" fill="#231F20"/>
<path d="M241.735 167.36H231.163V177.774H241.735V167.36Z" fill="#231F20"/>
<path d="M104.297 177.775H93.7252V188.19H104.297V177.775Z" fill="#231F20"/>
<path d="M125.442 177.775H114.87V188.19H125.442V177.775Z" fill="#231F20"/>
<path d="M146.586 177.775H136.014V188.19H146.586V177.775Z" fill="#231F20"/>
<path d="M167.73 177.775H157.158V188.19H167.73V177.775Z" fill="#231F20"/>
<path d="M188.874 177.775H178.303V188.19H188.874V177.775Z" fill="#231F20"/>
<path d="M210.019 177.775H199.447V188.19H210.019V177.775Z" fill="#231F20"/>
<path d="M231.162 177.775H220.591V188.19H231.162V177.775Z" fill="#231F20"/>
<path d="M252.307 177.775H241.735V188.19H252.307V177.775Z" fill="#231F20"/>
<path d="M93.7252 188.19H83.1535V198.604H93.7252V188.19Z" fill="#231F20"/>
<path d="M114.87 188.19H104.298V198.604H114.87V188.19Z" fill="#231F20"/>
<path d="M136.013 188.19H125.442V198.604H136.013V188.19Z" fill="#231F20"/>
<path d="M157.158 188.19H146.586V198.604H157.158V188.19Z" fill="#231F20"/>
<path d="M178.303 188.19H167.731V198.604H178.303V188.19Z" fill="#231F20"/>
<path d="M199.446 188.19H188.874V198.604H199.446V188.19Z" fill="#231F20"/>
<path d="M220.591 188.19H210.019V198.604H220.591V188.19Z" fill="#231F20"/>
<path d="M241.735 188.19H231.163V198.604H241.735V188.19Z" fill="#231F20"/>
<path d="M104.297 198.604H93.7252V209.018H104.297V198.604Z" fill="#231F20"/>
<path d="M125.442 198.604H114.87V209.018H125.442V198.604Z" fill="#231F20"/>
<path d="M146.586 198.604H136.014V209.018H146.586V198.604Z" fill="#231F20"/>
<path d="M167.73 198.604H157.158V209.018H167.73V198.604Z" fill="#231F20"/>
<path d="M188.874 198.604H178.303V209.018H188.874V198.604Z" fill="#231F20"/>
<path d="M210.019 198.604H199.447V209.018H210.019V198.604Z" fill="#231F20"/>
<path d="M231.162 198.604H220.591V209.018H231.162V198.604Z" fill="#231F20"/>
<path d="M252.307 198.604H241.735V209.018H252.307V198.604Z" fill="#231F20"/>
<path d="M93.7252 209.019H83.1535V219.433H93.7252V209.019Z" fill="#231F20"/>
<path d="M114.87 209.019H104.298V219.433H114.87V209.019Z" fill="#231F20"/>
<path d="M136.013 209.019H125.442V219.433H136.013V209.019Z" fill="#231F20"/>
<path d="M157.158 209.019H146.586V219.433H157.158V209.019Z" fill="#231F20"/>
<path d="M178.303 209.019H167.731V219.433H178.303V209.019Z" fill="#231F20"/>
<path d="M199.446 209.019H188.874V219.433H199.446V209.019Z" fill="#231F20"/>
<path d="M220.591 209.019H210.019V219.433H220.591V209.019Z" fill="#231F20"/>
<path d="M241.735 209.019H231.163V219.433H241.735V209.019Z" fill="#231F20"/>
<path d="M104.297 219.433H93.7252V229.847H104.297V219.433Z" fill="#231F20"/>
<path d="M125.442 219.433H114.87V229.847H125.442V219.433Z" fill="#231F20"/>
<path d="M146.586 219.433H136.014V229.847H146.586V219.433Z" fill="#231F20"/>
<path d="M167.73 219.433H157.158V229.847H167.73V219.433Z" fill="#231F20"/>
<path d="M188.874 219.433H178.303V229.847H188.874V219.433Z" fill="#231F20"/>
<path d="M210.019 219.433H199.447V229.847H210.019V219.433Z" fill="#231F20"/>
<path d="M231.162 219.433H220.591V229.847H231.162V219.433Z" fill="#231F20"/>
<path d="M252.307 219.433H241.735V229.847H252.307V219.433Z" fill="#231F20"/>
<path d="M93.7252 229.847H83.1535V240.261H93.7252V229.847Z" fill="#231F20"/>
<path d="M114.87 229.847H104.298V240.261H114.87V229.847Z" fill="#231F20"/>
<path d="M136.013 229.847H125.442V240.261H136.013V229.847Z" fill="#231F20"/>
<path d="M157.158 229.847H146.586V240.261H157.158V229.847Z" fill="#231F20"/>
<path d="M178.303 229.847H167.731V240.261H178.303V229.847Z" fill="#231F20"/>
<path d="M199.446 229.847H188.874V240.261H199.446V229.847Z" fill="#231F20"/>
<path d="M220.591 229.847H210.019V240.261H220.591V229.847Z" fill="#231F20"/>
<path d="M241.735 229.847H231.163V240.261H241.735V229.847Z" fill="#231F20"/>
<path d="M104.297 240.263H93.7252V250.677H104.297V240.263Z" fill="#231F20"/>
<path d="M125.442 240.263H114.87V250.677H125.442V240.263Z" fill="#231F20"/>
<path d="M146.586 240.263H136.014V250.677H146.586V240.263Z" fill="#231F20"/>
<path d="M167.73 240.263H157.158V250.677H167.73V240.263Z" fill="#231F20"/>
<path d="M188.874 240.263H178.303V250.677H188.874V240.263Z" fill="#231F20"/>
<path d="M210.019 240.263H199.447V250.677H210.019V240.263Z" fill="#231F20"/>
<path d="M231.162 240.263H220.591V250.677H231.162V240.263Z" fill="#231F20"/>
<path d="M252.307 240.263H241.735V250.677H252.307V240.263Z" fill="#231F20"/>
<path d="M421.424 125.703H252.307V250.677H421.424V125.703Z" fill="white"/>
<path d="M262.879 125.703H252.307V136.117H262.879V125.703Z" fill="#231F20"/>
<path d="M284.023 125.703H273.452V136.117H284.023V125.703Z" fill="#231F20"/>
<path d="M305.167 125.703H294.595V136.117H305.167V125.703Z" fill="#231F20"/>
<path d="M326.311 125.703H315.74V136.117H326.311V125.703Z" fill="#231F20"/>
<path d="M347.456 125.703H336.884V136.117H347.456V125.703Z" fill="#231F20"/>
<path d="M368.599 125.703H358.028V136.117H368.599V125.703Z" fill="#231F20"/>
<path d="M389.744 125.703H379.172V136.117H389.744V125.703Z" fill="#231F20"/>
<path d="M410.889 125.703H400.317V136.117H410.889V125.703Z" fill="#231F20"/>
<path d="M273.45 136.117H262.879V146.531H273.45V136.117Z" fill="#231F20"/>
<path d="M294.595 136.117H284.023V146.531H294.595V136.117Z" fill="#231F20"/>
<path d="M315.74 136.117H305.168V146.531H315.74V136.117Z" fill="#231F20"/>
<path d="M336.883 136.117H326.311V146.531H336.883V136.117Z" fill="#231F20"/>
<path d="M358.028 136.117H347.456V146.531H358.028V136.117Z" fill="#231F20"/>
<path d="M379.172 136.117H368.601V146.531H379.172V136.117Z" fill="#231F20"/>
<path d="M400.316 136.117H389.744V146.531H400.316V136.117Z" fill="#231F20"/>
<path d="M421.46 136.117H410.889V146.531H421.46V136.117Z" fill="#231F20"/>
<path d="M262.879 146.532H252.307V156.946H262.879V146.532Z" fill="#231F20"/>
<path d="M284.023 146.532H273.452V156.946H284.023V146.532Z" fill="#231F20"/>
<path d="M305.167 146.532H294.595V156.946H305.167V146.532Z" fill="#231F20"/>
<path d="M326.311 146.532H315.74V156.946H326.311V146.532Z" fill="#231F20"/>
<path d="M347.456 146.532H336.884V156.946H347.456V146.532Z" fill="#231F20"/>
<path d="M368.599 146.532H358.028V156.946H368.599V146.532Z" fill="#231F20"/>
<path d="M389.744 146.532H379.172V156.946H389.744V146.532Z" fill="#231F20"/>
<path d="M410.889 146.532H400.317V156.946H410.889V146.532Z" fill="#231F20"/>
<path d="M273.45 156.946H262.879V167.36H273.45V156.946Z" fill="#231F20"/>
<path d="M294.595 156.946H284.023V167.36H294.595V156.946Z" fill="#231F20"/>
<path d="M315.74 156.946H305.168V167.36H315.74V156.946Z" fill="#231F20"/>
<path d="M336.883 156.946H326.311V167.36H336.883V156.946Z" fill="#231F20"/>
<path d="M358.028 156.946H347.456V167.36H358.028V156.946Z" fill="#231F20"/>
<path d="M379.172 156.946H368.601V167.36H379.172V156.946Z" fill="#231F20"/>
<path d="M400.316 156.946H389.744V167.36H400.316V156.946Z" fill="#231F20"/>
<path d="M421.46 156.946H410.889V167.36H421.46V156.946Z" fill="#231F20"/>
<path d="M262.879 167.36H252.307V177.774H262.879V167.36Z" fill="#231F20"/>
<path d="M284.023 167.36H273.452V177.774H284.023V167.36Z" fill="#231F20"/>
<path d="M305.167 167.36H294.595V177.774H305.167V167.36Z" fill="#231F20"/>
<path d="M326.311 167.36H315.74V177.774H326.311V167.36Z" fill="#231F20"/>
<path d="M347.456 167.36H336.884V177.774H347.456V167.36Z" fill="#231F20"/>
<path d="M368.599 167.36H358.028V177.774H368.599V167.36Z" fill="#231F20"/>
<path d="M389.744 167.36H379.172V177.774H389.744V167.36Z" fill="#231F20"/>
<path d="M410.889 167.36H400.317V177.774H410.889V167.36Z" fill="#231F20"/>
<path d="M273.45 177.775H262.879V188.19H273.45V177.775Z" fill="#231F20"/>
<path d="M294.595 177.775H284.023V188.19H294.595V177.775Z" fill="#231F20"/>
<path d="M315.74 177.775H305.168V188.19H315.74V177.775Z" fill="#231F20"/>
<path d="M336.883 177.775H326.311V188.19H336.883V177.775Z" fill="#231F20"/>
<path d="M358.028 177.775H347.456V188.19H358.028V177.775Z" fill="#231F20"/>
<path d="M379.172 177.775H368.601V188.19H379.172V177.775Z" fill="#231F20"/>
<path d="M400.316 177.775H389.744V188.19H400.316V177.775Z" fill="#231F20"/>
<path d="M421.46 177.775H410.889V188.19H421.46V177.775Z" fill="#231F20"/>
<path d="M262.879 188.19H252.307V198.604H262.879V188.19Z" fill="#231F20"/>
<path d="M284.023 188.19H273.452V198.604H284.023V188.19Z" fill="#231F20"/>
<path d="M305.167 188.19H294.595V198.604H305.167V188.19Z" fill="#231F20"/>
<path d="M326.311 188.19H315.74V198.604H326.311V188.19Z" fill="#231F20"/>
<path d="M347.456 188.19H336.884V198.604H347.456V188.19Z" fill="#231F20"/>
<path d="M368.599 188.19H358.028V198.604H368.599V188.19Z" fill="#231F20"/>
<path d="M389.744 188.19H379.172V198.604H389.744V188.19Z" fill="#231F20"/>
<path d="M410.889 188.19H400.317V198.604H410.889V188.19Z" fill="#231F20"/>
<path d="M273.45 198.604H262.879V209.018H273.45V198.604Z" fill="#231F20"/>
<path d="M294.595 198.604H284.023V209.018H294.595V198.604Z" fill="#231F20"/>
<path d="M315.74 198.604H305.168V209.018H315.74V198.604Z" fill="#231F20"/>
<path d="M336.883 198.604H326.311V209.018H336.883V198.604Z" fill="#231F20"/>
<path d="M358.028 198.604H347.456V209.018H358.028V198.604Z" fill="#231F20"/>
<path d="M379.172 198.604H368.601V209.018H379.172V198.604Z" fill="#231F20"/>
<path d="M400.316 198.604H389.744V209.018H400.316V198.604Z" fill="#231F20"/>
<path d="M421.46 198.604H410.889V209.018H421.46V198.604Z" fill="#231F20"/>
<path d="M262.879 209.019H252.307V219.433H262.879V209.019Z" fill="#231F20"/>
<path d="M284.023 209.019H273.452V219.433H284.023V209.019Z" fill="#231F20"/>
<path d="M305.167 209.019H294.595V219.433H305.167V209.019Z" fill="#231F20"/>
<path d="M326.311 209.019H315.74V219.433H326.311V209.019Z" fill="#231F20"/>
<path d="M347.456 209.019H336.884V219.433H347.456V209.019Z" fill="#231F20"/>
<path d="M368.599 209.019H358.028V219.433H368.599V209.019Z" fill="#231F20"/>
<path d="M389.744 209.019H379.172V219.433H389.744V209.019Z" fill="#231F20"/>
<path d="M410.889 209.019H400.317V219.433H410.889V209.019Z" fill="#231F20"/>
<path d="M273.45 219.433H262.879V229.847H273.45V219.433Z" fill="#231F20"/>
<path d="M294.595 219.433H284.023V229.847H294.595V219.433Z" fill="#231F20"/>
<path d="M315.74 219.433H305.168V229.847H315.74V219.433Z" fill="#231F20"/>
<path d="M336.883 219.433H326.311V229.847H336.883V219.433Z" fill="#231F20"/>
<path d="M358.028 219.433H347.456V229.847H358.028V219.433Z" fill="#231F20"/>
<path d="M379.172 219.433H368.601V229.847H379.172V219.433Z" fill="#231F20"/>
<path d="M400.316 219.433H389.744V229.847H400.316V219.433Z" fill="#231F20"/>
<path d="M421.46 219.433H410.889V229.847H421.46V219.433Z" fill="#231F20"/>
<path d="M262.879 229.847H252.307V240.261H262.879V229.847Z" fill="#231F20"/>
<path d="M284.023 229.847H273.452V240.261H284.023V229.847Z" fill="#231F20"/>
<path d="M305.167 229.847H294.595V240.261H305.167V229.847Z" fill="#231F20"/>
<path d="M326.311 229.847H315.74V240.261H326.311V229.847Z" fill="#231F20"/>
<path d="M347.456 229.847H336.884V240.261H347.456V229.847Z" fill="#231F20"/>
<path d="M368.599 229.847H358.028V240.261H368.599V229.847Z" fill="#231F20"/>
<path d="M389.744 229.847H379.172V240.261H389.744V229.847Z" fill="#231F20"/>
<path d="M410.889 229.847H400.317V240.261H410.889V229.847Z" fill="#231F20"/>
<path d="M273.45 240.263H262.879V250.677H273.45V240.263Z" fill="#231F20"/>
<path d="M294.595 240.263H284.023V250.677H294.595V240.263Z" fill="#231F20"/>
<path d="M315.74 240.263H305.168V250.677H315.74V240.263Z" fill="#231F20"/>
<path d="M336.883 240.263H326.311V250.677H336.883V240.263Z" fill="#231F20"/>
<path d="M358.028 240.263H347.456V250.677H358.028V240.263Z" fill="#231F20"/>
<path d="M379.172 240.263H368.601V250.677H379.172V240.263Z" fill="#231F20"/>
<path d="M400.316 240.263H389.744V250.677H400.316V240.263Z" fill="#231F20"/>
<path d="M421.46 240.263H410.889V250.677H421.46V240.263Z" fill="#231F20"/>
<path d="M590.207 125.703H421.09V250.677H590.207V125.703Z" fill="white"/>
<path d="M431.662 125.703H421.09V136.117H431.662V125.703Z" fill="#231F20"/>
<path d="M452.807 125.703H442.235V136.117H452.807V125.703Z" fill="#231F20"/>
<path d="M473.95 125.703H463.378V136.117H473.95V125.703Z" fill="#231F20"/>
<path d="M495.095 125.703H484.523V136.117H495.095V125.703Z" fill="#231F20"/>
<path d="M516.239 125.703H505.668V136.117H516.239V125.703Z" fill="#231F20"/>
<path d="M537.383 125.703H526.811V136.117H537.383V125.703Z" fill="#231F20"/>
<path d="M558.527 125.703H547.956V136.117H558.527V125.703Z" fill="#231F20"/>
<path d="M579.672 125.703H569.1V136.117H579.672V125.703Z" fill="#231F20"/>
<path d="M442.234 136.117H431.662V146.531H442.234V136.117Z" fill="#231F20"/>
<path d="M463.378 136.117H452.807V146.531H463.378V136.117Z" fill="#231F20"/>
<path d="M484.523 136.117H473.951V146.531H484.523V136.117Z" fill="#231F20"/>
<path d="M505.667 136.117H495.095V146.531H505.667V136.117Z" fill="#231F20"/>
<path d="M526.811 136.117H516.239V146.531H526.811V136.117Z" fill="#231F20"/>
<path d="M547.956 136.117H537.384V146.531H547.956V136.117Z" fill="#231F20"/>
<path d="M569.099 136.117H558.527V146.531H569.099V136.117Z" fill="#231F20"/>
<path d="M590.244 136.117H579.672V146.531H590.244V136.117Z" fill="#231F20"/>
<path d="M431.662 146.532H421.09V156.946H431.662V146.532Z" fill="#231F20"/>
<path d="M452.807 146.532H442.235V156.946H452.807V146.532Z" fill="#231F20"/>
<path d="M473.95 146.532H463.378V156.946H473.95V146.532Z" fill="#231F20"/>
<path d="M495.095 146.532H484.523V156.946H495.095V146.532Z" fill="#231F20"/>
<path d="M516.239 146.532H505.668V156.946H516.239V146.532Z" fill="#231F20"/>
<path d="M537.383 146.532H526.811V156.946H537.383V146.532Z" fill="#231F20"/>
<path d="M558.527 146.532H547.956V156.946H558.527V146.532Z" fill="#231F20"/>
<path d="M579.672 146.532H569.1V156.946H579.672V146.532Z" fill="#231F20"/>
<path d="M442.234 156.946H431.662V167.36H442.234V156.946Z" fill="#231F20"/>
<path d="M463.378 156.946H452.807V167.36H463.378V156.946Z" fill="#231F20"/>
<path d="M484.523 156.946H473.951V167.36H484.523V156.946Z" fill="#231F20"/>
<path d="M505.667 156.946H495.095V167.36H505.667V156.946Z" fill="#231F20"/>
<path d="M526.811 156.946H516.239V167.36H526.811V156.946Z" fill="#231F20"/>
<path d="M547.956 156.946H537.384V167.36H547.956V156.946Z" fill="#231F20"/>
<path d="M569.099 156.946H558.527V167.36H569.099V156.946Z" fill="#231F20"/>
<path d="M590.244 156.946H579.672V167.36H590.244V156.946Z" fill="#231F20"/>
<path d="M431.662 167.36H421.09V177.774H431.662V167.36Z" fill="#231F20"/>
<path d="M452.807 167.36H442.235V177.774H452.807V167.36Z" fill="#231F20"/>
<path d="M473.95 167.36H463.378V177.774H473.95V167.36Z" fill="#231F20"/>
<path d="M495.095 167.36H484.523V177.774H495.095V167.36Z" fill="#231F20"/>
<path d="M516.239 167.36H505.668V177.774H516.239V167.36Z" fill="#231F20"/>
<path d="M537.383 167.36H526.811V177.774H537.383V167.36Z" fill="#231F20"/>
<path d="M558.527 167.36H547.956V177.774H558.527V167.36Z" fill="#231F20"/>
<path d="M579.672 167.36H569.1V177.774H579.672V167.36Z" fill="#231F20"/>
<path d="M442.234 177.775H431.662V188.19H442.234V177.775Z" fill="#231F20"/>
<path d="M463.378 177.775H452.807V188.19H463.378V177.775Z" fill="#231F20"/>
<path d="M484.523 177.775H473.951V188.19H484.523V177.775Z" fill="#231F20"/>
<path d="M505.667 177.775H495.095V188.19H505.667V177.775Z" fill="#231F20"/>
<path d="M526.811 177.775H516.239V188.19H526.811V177.775Z" fill="#231F20"/>
<path d="M547.956 177.775H537.384V188.19H547.956V177.775Z" fill="#231F20"/>
<path d="M569.099 177.775H558.527V188.19H569.099V177.775Z" fill="#231F20"/>
<path d="M590.244 177.775H579.672V188.19H590.244V177.775Z" fill="#231F20"/>
<path d="M431.662 188.19H421.09V198.604H431.662V188.19Z" fill="#231F20"/>
<path d="M452.807 188.19H442.235V198.604H452.807V188.19Z" fill="#231F20"/>
<path d="M473.95 188.19H463.378V198.604H473.95V188.19Z" fill="#231F20"/>
<path d="M495.095 188.19H484.523V198.604H495.095V188.19Z" fill="#231F20"/>
<path d="M516.239 188.19H505.668V198.604H516.239V188.19Z" fill="#231F20"/>
<path d="M537.383 188.19H526.811V198.604H537.383V188.19Z" fill="#231F20"/>
<path d="M558.527 188.19H547.956V198.604H558.527V188.19Z" fill="#231F20"/>
<path d="M579.672 188.19H569.1V198.604H579.672V188.19Z" fill="#231F20"/>
<path d="M442.234 198.604H431.662V209.018H442.234V198.604Z" fill="#231F20"/>
<path d="M463.378 198.604H452.807V209.018H463.378V198.604Z" fill="#231F20"/>
<path d="M484.523 198.604H473.951V209.018H484.523V198.604Z" fill="#231F20"/>
<path d="M505.667 198.604H495.095V209.018H505.667V198.604Z" fill="#231F20"/>
<path d="M526.811 198.604H516.239V209.018H526.811V198.604Z" fill="#231F20"/>
<path d="M547.956 198.604H537.384V209.018H547.956V198.604Z" fill="#231F20"/>
<path d="M569.099 198.604H558.527V209.018H569.099V198.604Z" fill="#231F20"/>
<path d="M590.244 198.604H579.672V209.018H590.244V198.604Z" fill="#231F20"/>
<path d="M431.662 209.019H421.09V219.433H431.662V209.019Z" fill="#231F20"/>
<path d="M452.807 209.019H442.235V219.433H452.807V209.019Z" fill="#231F20"/>
<path d="M473.95 209.019H463.378V219.433H473.95V209.019Z" fill="#231F20"/>
<path d="M495.095 209.019H484.523V219.433H495.095V209.019Z" fill="#231F20"/>
<path d="M516.239 209.019H505.668V219.433H516.239V209.019Z" fill="#231F20"/>
<path d="M537.383 209.019H526.811V219.433H537.383V209.019Z" fill="#231F20"/>
<path d="M558.527 209.019H547.956V219.433H558.527V209.019Z" fill="#231F20"/>
<path d="M579.672 209.019H569.1V219.433H579.672V209.019Z" fill="#231F20"/>
<path d="M442.234 219.433H431.662V229.847H442.234V219.433Z" fill="#231F20"/>
<path d="M463.378 219.433H452.807V229.847H463.378V219.433Z" fill="#231F20"/>
<path d="M484.523 219.433H473.951V229.847H484.523V219.433Z" fill="#231F20"/>
<path d="M505.667 219.433H495.095V229.847H505.667V219.433Z" fill="#231F20"/>
<path d="M526.811 219.433H516.239V229.847H526.811V219.433Z" fill="#231F20"/>
<path d="M547.956 219.433H537.384V229.847H547.956V219.433Z" fill="#231F20"/>
<path d="M569.099 219.433H558.527V229.847H569.099V219.433Z" fill="#231F20"/>
<path d="M590.244 219.433H579.672V229.847H590.244V219.433Z" fill="#231F20"/>
<path d="M431.662 229.847H421.09V240.261H431.662V229.847Z" fill="#231F20"/>
<path d="M452.807 229.847H442.235V240.261H452.807V229.847Z" fill="#231F20"/>
<path d="M473.95 229.847H463.378V240.261H473.95V229.847Z" fill="#231F20"/>
<path d="M495.095 229.847H484.523V240.261H495.095V229.847Z" fill="#231F20"/>
<path d="M516.239 229.847H505.668V240.261H516.239V229.847Z" fill="#231F20"/>
<path d="M537.383 229.847H526.811V240.261H537.383V229.847Z" fill="#231F20"/>
<path d="M558.527 229.847H547.956V240.261H558.527V229.847Z" fill="#231F20"/>
<path d="M579.672 229.847H569.1V240.261H579.672V229.847Z" fill="#231F20"/>
<path d="M442.234 240.263H431.662V250.677H442.234V240.263Z" fill="#231F20"/>
<path d="M463.378 240.263H452.807V250.677H463.378V240.263Z" fill="#231F20"/>
<path d="M484.523 240.263H473.951V250.677H484.523V240.263Z" fill="#231F20"/>
<path d="M505.667 240.263H495.095V250.677H505.667V240.263Z" fill="#231F20"/>
<path d="M526.811 240.263H516.239V250.677H526.811V240.263Z" fill="#231F20"/>
<path d="M547.956 240.263H537.384V250.677H547.956V240.263Z" fill="#231F20"/>
<path d="M569.099 240.263H558.527V250.677H569.099V240.263Z" fill="#231F20"/>
<path d="M590.244 240.263H579.672V250.677H590.244V240.263Z" fill="#231F20"/>
</g>
<g clip-path="url(#clip1_870_166)">
<path d="M83.1169 0H-86V124.974H83.1169V0Z" fill="white"/>
<path d="M-75.4283 0H-86V10.4141H-75.4283V0Z" fill="#231F20"/>
<path d="M-54.2837 0H-64.8554V10.4141H-54.2837V0Z" fill="#231F20"/>
<path d="M-33.1402 0H-43.7119V10.4141H-33.1402V0Z" fill="#231F20"/>
<path d="M-11.9956 0H-22.5673V10.4141H-11.9956V0Z" fill="#231F20"/>
<path d="M9.14905 0H-1.42271V10.4141H9.14905V0Z" fill="#231F20"/>
<path d="M30.2925 0H19.7208V10.4141H30.2925V0Z" fill="#231F20"/>
<path d="M51.4371 0H40.8654V10.4141H51.4371V0Z" fill="#231F20"/>
<path d="M72.5817 0H62.01V10.4141H72.5817V0Z" fill="#231F20"/>
<path d="M-64.8565 10.4141H-75.4283V20.8283H-64.8565V10.4141Z" fill="#231F20"/>
<path d="M-43.7119 10.4141H-54.2837V20.8283H-43.7119V10.4141Z" fill="#231F20"/>
<path d="M-22.5673 10.4141H-33.139V20.8283H-22.5673V10.4141Z" fill="#231F20"/>
<path d="M-1.42381 10.4141H-11.9956V20.8283H-1.42381V10.4141Z" fill="#231F20"/>
<path d="M19.7208 10.4141H9.14905V20.8283H19.7208V10.4141Z" fill="#231F20"/>
<path d="M40.8654 10.4141H30.2937V20.8283H40.8654V10.4141Z" fill="#231F20"/>
<path d="M62.0089 10.4141H51.4371V20.8283H62.0089V10.4141Z" fill="#231F20"/>
<path d="M83.1535 10.4141H72.5817V20.8283H83.1535V10.4141Z" fill="#231F20"/>
<path d="M-75.4283 20.8294H-86V31.2435H-75.4283V20.8294Z" fill="#231F20"/>
<path d="M-54.2837 20.8294H-64.8554V31.2435H-54.2837V20.8294Z" fill="#231F20"/>
<path d="M-33.1402 20.8294H-43.7119V31.2435H-33.1402V20.8294Z" fill="#231F20"/>
<path d="M-11.9956 20.8294H-22.5673V31.2435H-11.9956V20.8294Z" fill="#231F20"/>
<path d="M9.14905 20.8294H-1.42271V31.2435H9.14905V20.8294Z" fill="#231F20"/>
<path d="M30.2925 20.8294H19.7208V31.2435H30.2925V20.8294Z" fill="#231F20"/>
<path d="M51.4371 20.8294H40.8654V31.2435H51.4371V20.8294Z" fill="#231F20"/>
<path d="M72.5817 20.8294H62.01V31.2435H72.5817V20.8294Z" fill="#231F20"/>
<path d="M-64.8565 31.2435H-75.4283V41.6576H-64.8565V31.2435Z" fill="#231F20"/>
<path d="M-43.7119 31.2435H-54.2837V41.6576H-43.7119V31.2435Z" fill="#231F20"/>
<path d="M-22.5673 31.2435H-33.139V41.6576H-22.5673V31.2435Z" fill="#231F20"/>
<path d="M-1.42381 31.2435H-11.9956V41.6576H-1.42381V31.2435Z" fill="#231F20"/>
<path d="M19.7208 31.2435H9.14905V41.6576H19.7208V31.2435Z" fill="#231F20"/>
<path d="M40.8654 31.2435H30.2937V41.6576H40.8654V31.2435Z" fill="#231F20"/>
<path d="M62.0089 31.2435H51.4371V41.6576H62.0089V31.2435Z" fill="#231F20"/>
<path d="M83.1535 31.2435H72.5817V41.6576H83.1535V31.2435Z" fill="#231F20"/>
<path d="M-75.4283 41.6576H-86V52.0717H-75.4283V41.6576Z" fill="#231F20"/>
<path d="M-54.2837 41.6576H-64.8554V52.0717H-54.2837V41.6576Z" fill="#231F20"/>
<path d="M-33.1402 41.6576H-43.7119V52.0717H-33.1402V41.6576Z" fill="#231F20"/>
<path d="M-11.9956 41.6576H-22.5673V52.0717H-11.9956V41.6576Z" fill="#231F20"/>
<path d="M9.14905 41.6576H-1.42271V52.0717H9.14905V41.6576Z" fill="#231F20"/>
<path d="M30.2925 41.6576H19.7208V52.0717H30.2925V41.6576Z" fill="#231F20"/>
<path d="M51.4371 41.6576H40.8654V52.0717H51.4371V41.6576Z" fill="#231F20"/>
<path d="M72.5817 41.6576H62.01V52.0717H72.5817V41.6576Z" fill="#231F20"/>
<path d="M-64.8565 52.0728H-75.4283V62.487H-64.8565V52.0728Z" fill="#231F20"/>
<path d="M-43.7119 52.0728H-54.2837V62.487H-43.7119V52.0728Z" fill="#231F20"/>
<path d="M-22.5673 52.0728H-33.139V62.487H-22.5673V52.0728Z" fill="#231F20"/>
<path d="M-1.42381 52.0728H-11.9956V62.487H-1.42381V52.0728Z" fill="#231F20"/>
<path d="M19.7208 52.0728H9.14905V62.487H19.7208V52.0728Z" fill="#231F20"/>
<path d="M40.8654 52.0728H30.2937V62.487H40.8654V52.0728Z" fill="#231F20"/>
<path d="M62.0089 52.0728H51.4371V62.487H62.0089V52.0728Z" fill="#231F20"/>
<path d="M83.1535 52.0728H72.5817V62.487H83.1535V52.0728Z" fill="#231F20"/>
<path d="M-75.4283 62.487H-86V72.9011H-75.4283V62.487Z" fill="#231F20"/>
<path d="M-54.2837 62.487H-64.8554V72.9011H-54.2837V62.487Z" fill="#231F20"/>
<path d="M-33.1402 62.487H-43.7119V72.9011H-33.1402V62.487Z" fill="#231F20"/>
<path d="M-11.9956 62.487H-22.5673V72.9011H-11.9956V62.487Z" fill="#231F20"/>
<path d="M9.14905 62.487H-1.42271V72.9011H9.14905V62.487Z" fill="#231F20"/>
<path d="M30.2925 62.487H19.7208V72.9011H30.2925V62.487Z" fill="#231F20"/>
<path d="M51.4371 62.487H40.8654V72.9011H51.4371V62.487Z" fill="#231F20"/>
<path d="M72.5817 62.487H62.01V72.9011H72.5817V62.487Z" fill="#231F20"/>
<path d="M-64.8565 72.9011H-75.4283V83.3152H-64.8565V72.9011Z" fill="#231F20"/>
<path d="M-43.7119 72.9011H-54.2837V83.3152H-43.7119V72.9011Z" fill="#231F20"/>
<path d="M-22.5673 72.9011H-33.139V83.3152H-22.5673V72.9011Z" fill="#231F20"/>
<path d="M-1.42381 72.9011H-11.9956V83.3152H-1.42381V72.9011Z" fill="#231F20"/>
<path d="M19.7208 72.9011H9.14905V83.3152H19.7208V72.9011Z" fill="#231F20"/>
<path d="M40.8654 72.9011H30.2937V83.3152H40.8654V72.9011Z" fill="#231F20"/>
<path d="M62.0089 72.9011H51.4371V83.3152H62.0089V72.9011Z" fill="#231F20"/>
<path d="M83.1535 72.9011H72.5817V83.3152H83.1535V72.9011Z" fill="#231F20"/>
<path d="M-75.4283 83.3163H-86V93.7304H-75.4283V83.3163Z" fill="#231F20"/>
<path d="M-54.2837 83.3163H-64.8554V93.7304H-54.2837V83.3163Z" fill="#231F20"/>
<path d="M-33.1402 83.3163H-43.7119V93.7304H-33.1402V83.3163Z" fill="#231F20"/>
<path d="M-11.9956 83.3163H-22.5673V93.7304H-11.9956V83.3163Z" fill="#231F20"/>
<path d="M9.14905 83.3163H-1.42271V93.7304H9.14905V83.3163Z" fill="#231F20"/>
<path d="M30.2925 83.3163H19.7208V93.7304H30.2925V83.3163Z" fill="#231F20"/>
<path d="M51.4371 83.3163H40.8654V93.7304H51.4371V83.3163Z" fill="#231F20"/>
<path d="M72.5817 83.3163H62.01V93.7304H72.5817V83.3163Z" fill="#231F20"/>
<path d="M-64.8565 93.7304H-75.4283V104.145H-64.8565V93.7304Z" fill="#231F20"/>
<path d="M-43.7119 93.7304H-54.2837V104.145H-43.7119V93.7304Z" fill="#231F20"/>
<path d="M-22.5673 93.7304H-33.139V104.145H-22.5673V93.7304Z" fill="#231F20"/>
<path d="M-1.42381 93.7304H-11.9956V104.145H-1.42381V93.7304Z" fill="#231F20"/>
<path d="M19.7208 93.7304H9.14905V104.145H19.7208V93.7304Z" fill="#231F20"/>
<path d="M40.8654 93.7304H30.2937V104.145H40.8654V93.7304Z" fill="#231F20"/>
<path d="M62.0089 93.7304H51.4371V104.145H62.0089V93.7304Z" fill="#231F20"/>
<path d="M83.1535 93.7304H72.5817V104.145H83.1535V93.7304Z" fill="#231F20"/>
<path d="M-75.4283 104.145H-86V114.559H-75.4283V104.145Z" fill="#231F20"/>
<path d="M-54.2837 104.145H-64.8554V114.559H-54.2837V104.145Z" fill="#231F20"/>
<path d="M-33.1402 104.145H-43.7119V114.559H-33.1402V104.145Z" fill="#231F20"/>
<path d="M-11.9956 104.145H-22.5673V114.559H-11.9956V104.145Z" fill="#231F20"/>
<path d="M9.14905 104.145H-1.42271V114.559H9.14905V104.145Z" fill="#231F20"/>
<path d="M30.2925 104.145H19.7208V114.559H30.2925V104.145Z" fill="#231F20"/>
<path d="M51.4371 104.145H40.8654V114.559H51.4371V104.145Z" fill="#231F20"/>
<path d="M72.5817 104.145H62.01V114.559H72.5817V104.145Z" fill="#231F20"/>
<path d="M-64.8565 114.56H-75.4283V124.974H-64.8565V114.56Z" fill="#231F20"/>
<path d="M-43.7119 114.56H-54.2837V124.974H-43.7119V114.56Z" fill="#231F20"/>
<path d="M-22.5673 114.56H-33.139V124.974H-22.5673V114.56Z" fill="#231F20"/>
<path d="M-1.42381 114.56H-11.9956V124.974H-1.42381V114.56Z" fill="#231F20"/>
<path d="M19.7208 114.56H9.14905V124.974H19.7208V114.56Z" fill="#231F20"/>
<path d="M40.8654 114.56H30.2937V124.974H40.8654V114.56Z" fill="#231F20"/>
<path d="M62.0089 114.56H51.4371V124.974H62.0089V114.56Z" fill="#231F20"/>
<path d="M83.1535 114.56H72.5817V124.974H83.1535V114.56Z" fill="#231F20"/>
<path d="M252.27 0H83.1535V124.974H252.27V0Z" fill="white"/>
<path d="M93.7252 0H83.1535V10.4141H93.7252V0Z" fill="#231F20"/>
<path d="M114.87 0H104.298V10.4141H114.87V0Z" fill="#231F20"/>
<path d="M136.013 0H125.442V10.4141H136.013V0Z" fill="#231F20"/>
<path d="M157.158 0H146.586V10.4141H157.158V0Z" fill="#231F20"/>
<path d="M178.303 0H167.731V10.4141H178.303V0Z" fill="#231F20"/>
<path d="M199.446 0H188.874V10.4141H199.446V0Z" fill="#231F20"/>
<path d="M220.591 0H210.019V10.4141H220.591V0Z" fill="#231F20"/>
<path d="M241.735 0H231.163V10.4141H241.735V0Z" fill="#231F20"/>
<path d="M104.297 10.4141H93.7252V20.8283H104.297V10.4141Z" fill="#231F20"/>
<path d="M125.442 10.4141H114.87V20.8283H125.442V10.4141Z" fill="#231F20"/>
<path d="M146.586 10.4141H136.014V20.8283H146.586V10.4141Z" fill="#231F20"/>
<path d="M167.73 10.4141H157.158V20.8283H167.73V10.4141Z" fill="#231F20"/>
<path d="M188.874 10.4141H178.303V20.8283H188.874V10.4141Z" fill="#231F20"/>
<path d="M210.019 10.4141H199.447V20.8283H210.019V10.4141Z" fill="#231F20"/>
<path d="M231.162 10.4141H220.591V20.8283H231.162V10.4141Z" fill="#231F20"/>
<path d="M252.307 10.4141H241.735V20.8283H252.307V10.4141Z" fill="#231F20"/>
<path d="M93.7252 20.8294H83.1535V31.2435H93.7252V20.8294Z" fill="#231F20"/>
<path d="M114.87 20.8294H104.298V31.2435H114.87V20.8294Z" fill="#231F20"/>
<path d="M136.013 20.8294H125.442V31.2435H136.013V20.8294Z" fill="#231F20"/>
<path d="M157.158 20.8294H146.586V31.2435H157.158V20.8294Z" fill="#231F20"/>
<path d="M178.303 20.8294H167.731V31.2435H178.303V20.8294Z" fill="#231F20"/>
<path d="M199.446 20.8294H188.874V31.2435H199.446V20.8294Z" fill="#231F20"/>
<path d="M220.591 20.8294H210.019V31.2435H220.591V20.8294Z" fill="#231F20"/>
<path d="M241.735 20.8294H231.163V31.2435H241.735V20.8294Z" fill="#231F20"/>
<path d="M104.297 31.2435H93.7252V41.6576H104.297V31.2435Z" fill="#231F20"/>
<path d="M125.442 31.2435H114.87V41.6576H125.442V31.2435Z" fill="#231F20"/>
<path d="M146.586 31.2435H136.014V41.6576H146.586V31.2435Z" fill="#231F20"/>
<path d="M167.73 31.2435H157.158V41.6576H167.73V31.2435Z" fill="#231F20"/>
<path d="M188.874 31.2435H178.303V41.6576H188.874V31.2435Z" fill="#231F20"/>
<path d="M210.019 31.2435H199.447V41.6576H210.019V31.2435Z" fill="#231F20"/>
<path d="M231.162 31.2435H220.591V41.6576H231.162V31.2435Z" fill="#231F20"/>
<path d="M252.307 31.2435H241.735V41.6576H252.307V31.2435Z" fill="#231F20"/>
<path d="M93.7252 41.6576H83.1535V52.0717H93.7252V41.6576Z" fill="#231F20"/>
<path d="M114.87 41.6576H104.298V52.0717H114.87V41.6576Z" fill="#231F20"/>
<path d="M136.013 41.6576H125.442V52.0717H136.013V41.6576Z" fill="#231F20"/>
<path d="M157.158 41.6576H146.586V52.0717H157.158V41.6576Z" fill="#231F20"/>
<path d="M178.303 41.6576H167.731V52.0717H178.303V41.6576Z" fill="#231F20"/>
<path d="M199.446 41.6576H188.874V52.0717H199.446V41.6576Z" fill="#231F20"/>
<path d="M220.591 41.6576H210.019V52.0717H220.591V41.6576Z" fill="#231F20"/>
<path d="M241.735 41.6576H231.163V52.0717H241.735V41.6576Z" fill="#231F20"/>
<path d="M104.297 52.0728H93.7252V62.487H104.297V52.0728Z" fill="#231F20"/>
<path d="M125.442 52.0728H114.87V62.487H125.442V52.0728Z" fill="#231F20"/>
<path d="M146.586 52.0728H136.014V62.487H146.586V52.0728Z" fill="#231F20"/>
<path d="M167.73 52.0728H157.158V62.487H167.73V52.0728Z" fill="#231F20"/>
<path d="M188.874 52.0728H178.303V62.487H188.874V52.0728Z" fill="#231F20"/>
<path d="M210.019 52.0728H199.447V62.487H210.019V52.0728Z" fill="#231F20"/>
<path d="M231.162 52.0728H220.591V62.487H231.162V52.0728Z" fill="#231F20"/>
<path d="M252.307 52.0728H241.735V62.487H252.307V52.0728Z" fill="#231F20"/>
<path d="M93.7252 62.487H83.1535V72.9011H93.7252V62.487Z" fill="#231F20"/>
<path d="M114.87 62.487H104.298V72.9011H114.87V62.487Z" fill="#231F20"/>
<path d="M136.013 62.487H125.442V72.9011H136.013V62.487Z" fill="#231F20"/>
<path d="M157.158 62.487H146.586V72.9011H157.158V62.487Z" fill="#231F20"/>
<path d="M178.303 62.487H167.731V72.9011H178.303V62.487Z" fill="#231F20"/>
<path d="M199.446 62.487H188.874V72.9011H199.446V62.487Z" fill="#231F20"/>
<path d="M220.591 62.487H210.019V72.9011H220.591V62.487Z" fill="#231F20"/>
<path d="M241.735 62.487H231.163V72.9011H241.735V62.487Z" fill="#231F20"/>
<path d="M104.297 72.9011H93.7252V83.3152H104.297V72.9011Z" fill="#231F20"/>
<path d="M125.442 72.9011H114.87V83.3152H125.442V72.9011Z" fill="#231F20"/>
<path d="M146.586 72.9011H136.014V83.3152H146.586V72.9011Z" fill="#231F20"/>
<path d="M167.73 72.9011H157.158V83.3152H167.73V72.9011Z" fill="#231F20"/>
<path d="M188.874 72.9011H178.303V83.3152H188.874V72.9011Z" fill="#231F20"/>
<path d="M210.019 72.9011H199.447V83.3152H210.019V72.9011Z" fill="#231F20"/>
<path d="M231.162 72.9011H220.591V83.3152H231.162V72.9011Z" fill="#231F20"/>
<path d="M252.307 72.9011H241.735V83.3152H252.307V72.9011Z" fill="#231F20"/>
<path d="M93.7252 83.3163H83.1535V93.7304H93.7252V83.3163Z" fill="#231F20"/>
<path d="M114.87 83.3163H104.298V93.7304H114.87V83.3163Z" fill="#231F20"/>
<path d="M136.013 83.3163H125.442V93.7304H136.013V83.3163Z" fill="#231F20"/>
<path d="M157.158 83.3163H146.586V93.7304H157.158V83.3163Z" fill="#231F20"/>
<path d="M178.303 83.3163H167.731V93.7304H178.303V83.3163Z" fill="#231F20"/>
<path d="M199.446 83.3163H188.874V93.7304H199.446V83.3163Z" fill="#231F20"/>
<path d="M220.591 83.3163H210.019V93.7304H220.591V83.3163Z" fill="#231F20"/>
<path d="M241.735 83.3163H231.163V93.7304H241.735V83.3163Z" fill="#231F20"/>
<path d="M104.297 93.7304H93.7252V104.145H104.297V93.7304Z" fill="#231F20"/>
<path d="M125.442 93.7304H114.87V104.145H125.442V93.7304Z" fill="#231F20"/>
<path d="M146.586 93.7304H136.014V104.145H146.586V93.7304Z" fill="#231F20"/>
<path d="M167.73 93.7304H157.158V104.145H167.73V93.7304Z" fill="#231F20"/>
<path d="M188.874 93.7304H178.303V104.145H188.874V93.7304Z" fill="#231F20"/>
<path d="M210.019 93.7304H199.447V104.145H210.019V93.7304Z" fill="#231F20"/>
<path d="M231.162 93.7304H220.591V104.145H231.162V93.7304Z" fill="#231F20"/>
<path d="M252.307 93.7304H241.735V104.145H252.307V93.7304Z" fill="#231F20"/>
<path d="M93.7252 104.145H83.1535V114.559H93.7252V104.145Z" fill="#231F20"/>
<path d="M114.87 104.145H104.298V114.559H114.87V104.145Z" fill="#231F20"/>
<path d="M136.013 104.145H125.442V114.559H136.013V104.145Z" fill="#231F20"/>
<path d="M157.158 104.145H146.586V114.559H157.158V104.145Z" fill="#231F20"/>
<path d="M178.303 104.145H167.731V114.559H178.303V104.145Z" fill="#231F20"/>
<path d="M199.446 104.145H188.874V114.559H199.446V104.145Z" fill="#231F20"/>
<path d="M220.591 104.145H210.019V114.559H220.591V104.145Z" fill="#231F20"/>
<path d="M241.735 104.145H231.163V114.559H241.735V104.145Z" fill="#231F20"/>
<path d="M104.297 114.56H93.7252V124.974H104.297V114.56Z" fill="#231F20"/>
<path d="M125.442 114.56H114.87V124.974H125.442V114.56Z" fill="#231F20"/>
<path d="M146.586 114.56H136.014V124.974H146.586V114.56Z" fill="#231F20"/>
<path d="M167.73 114.56H157.158V124.974H167.73V114.56Z" fill="#231F20"/>
<path d="M188.874 114.56H178.303V124.974H188.874V114.56Z" fill="#231F20"/>
<path d="M210.019 114.56H199.447V124.974H210.019V114.56Z" fill="#231F20"/>
<path d="M231.162 114.56H220.591V124.974H231.162V114.56Z" fill="#231F20"/>
<path d="M252.307 114.56H241.735V124.974H252.307V114.56Z" fill="#231F20"/>
<path d="M421.424 0H252.307V124.974H421.424V0Z" fill="white"/>
<path d="M262.879 0H252.307V10.4141H262.879V0Z" fill="#231F20"/>
<path d="M284.023 0H273.452V10.4141H284.023V0Z" fill="#231F20"/>
<path d="M305.167 0H294.595V10.4141H305.167V0Z" fill="#231F20"/>
<path d="M326.311 0H315.74V10.4141H326.311V0Z" fill="#231F20"/>
<path d="M347.456 0H336.884V10.4141H347.456V0Z" fill="#231F20"/>
<path d="M368.599 0H358.028V10.4141H368.599V0Z" fill="#231F20"/>
<path d="M389.744 0H379.172V10.4141H389.744V0Z" fill="#231F20"/>
<path d="M410.889 0H400.317V10.4141H410.889V0Z" fill="#231F20"/>
<path d="M273.45 10.4141H262.879V20.8283H273.45V10.4141Z" fill="#231F20"/>
<path d="M294.595 10.4141H284.023V20.8283H294.595V10.4141Z" fill="#231F20"/>
<path d="M315.74 10.4141H305.168V20.8283H315.74V10.4141Z" fill="#231F20"/>
<path d="M336.883 10.4141H326.311V20.8283H336.883V10.4141Z" fill="#231F20"/>
<path d="M358.028 10.4141H347.456V20.8283H358.028V10.4141Z" fill="#231F20"/>
<path d="M379.172 10.4141H368.601V20.8283H379.172V10.4141Z" fill="#231F20"/>
<path d="M400.316 10.4141H389.744V20.8283H400.316V10.4141Z" fill="#231F20"/>
<path d="M421.46 10.4141H410.889V20.8283H421.46V10.4141Z" fill="#231F20"/>
<path d="M262.879 20.8294H252.307V31.2435H262.879V20.8294Z" fill="#231F20"/>
<path d="M284.023 20.8294H273.452V31.2435H284.023V20.8294Z" fill="#231F20"/>
<path d="M305.167 20.8294H294.595V31.2435H305.167V20.8294Z" fill="#231F20"/>
<path d="M326.311 20.8294H315.74V31.2435H326.311V20.8294Z" fill="#231F20"/>
<path d="M347.456 20.8294H336.884V31.2435H347.456V20.8294Z" fill="#231F20"/>
<path d="M368.599 20.8294H358.028V31.2435H368.599V20.8294Z" fill="#231F20"/>
<path d="M389.744 20.8294H379.172V31.2435H389.744V20.8294Z" fill="#231F20"/>
<path d="M410.889 20.8294H400.317V31.2435H410.889V20.8294Z" fill="#231F20"/>
<path d="M273.45 31.2435H262.879V41.6576H273.45V31.2435Z" fill="#231F20"/>
<path d="M294.595 31.2435H284.023V41.6576H294.595V31.2435Z" fill="#231F20"/>
<path d="M315.74 31.2435H305.168V41.6576H315.74V31.2435Z" fill="#231F20"/>
<path d="M336.883 31.2435H326.311V41.6576H336.883V31.2435Z" fill="#231F20"/>
<path d="M358.028 31.2435H347.456V41.6576H358.028V31.2435Z" fill="#231F20"/>
<path d="M379.172 31.2435H368.601V41.6576H379.172V31.2435Z" fill="#231F20"/>
<path d="M400.316 31.2435H389.744V41.6576H400.316V31.2435Z" fill="#231F20"/>
<path d="M421.46 31.2435H410.889V41.6576H421.46V31.2435Z" fill="#231F20"/>
<path d="M262.879 41.6576H252.307V52.0717H262.879V41.6576Z" fill="#231F20"/>
<path d="M284.023 41.6576H273.452V52.0717H284.023V41.6576Z" fill="#231F20"/>
<path d="M305.167 41.6576H294.595V52.0717H305.167V41.6576Z" fill="#231F20"/>
<path d="M326.311 41.6576H315.74V52.0717H326.311V41.6576Z" fill="#231F20"/>
<path d="M347.456 41.6576H336.884V52.0717H347.456V41.6576Z" fill="#231F20"/>
<path d="M368.599 41.6576H358.028V52.0717H368.599V41.6576Z" fill="#231F20"/>
<path d="M389.744 41.6576H379.172V52.0717H389.744V41.6576Z" fill="#231F20"/>
<path d="M410.889 41.6576H400.317V52.0717H410.889V41.6576Z" fill="#231F20"/>
<path d="M273.45 52.0728H262.879V62.487H273.45V52.0728Z" fill="#231F20"/>
<path d="M294.595 52.0728H284.023V62.487H294.595V52.0728Z" fill="#231F20"/>
<path d="M315.74 52.0728H305.168V62.487H315.74V52.0728Z" fill="#231F20"/>
<path d="M336.883 52.0728H326.311V62.487H336.883V52.0728Z" fill="#231F20"/>
<path d="M358.028 52.0728H347.456V62.487H358.028V52.0728Z" fill="#231F20"/>
<path d="M379.172 52.0728H368.601V62.487H379.172V52.0728Z" fill="#231F20"/>
<path d="M400.316 52.0728H389.744V62.487H400.316V52.0728Z" fill="#231F20"/>
<path d="M421.46 52.0728H410.889V62.487H421.46V52.0728Z" fill="#231F20"/>
<path d="M262.879 62.487H252.307V72.9011H262.879V62.487Z" fill="#231F20"/>
<path d="M284.023 62.487H273.452V72.9011H284.023V62.487Z" fill="#231F20"/>
<path d="M305.167 62.487H294.595V72.9011H305.167V62.487Z" fill="#231F20"/>
<path d="M326.311 62.487H315.74V72.9011H326.311V62.487Z" fill="#231F20"/>
<path d="M347.456 62.487H336.884V72.9011H347.456V62.487Z" fill="#231F20"/>
<path d="M368.599 62.487H358.028V72.9011H368.599V62.487Z" fill="#231F20"/>
<path d="M389.744 62.487H379.172V72.9011H389.744V62.487Z" fill="#231F20"/>
<path d="M410.889 62.487H400.317V72.9011H410.889V62.487Z" fill="#231F20"/>
<path d="M273.45 72.9011H262.879V83.3152H273.45V72.9011Z" fill="#231F20"/>
<path d="M294.595 72.9011H284.023V83.3152H294.595V72.9011Z" fill="#231F20"/>
<path d="M315.74 72.9011H305.168V83.3152H315.74V72.9011Z" fill="#231F20"/>
<path d="M336.883 72.9011H326.311V83.3152H336.883V72.9011Z" fill="#231F20"/>
<path d="M358.028 72.9011H347.456V83.3152H358.028V72.9011Z" fill="#231F20"/>
<path d="M379.172 72.9011H368.601V83.3152H379.172V72.9011Z" fill="#231F20"/>
<path d="M400.316 72.9011H389.744V83.3152H400.316V72.9011Z" fill="#231F20"/>
<path d="M421.46 72.9011H410.889V83.3152H421.46V72.9011Z" fill="#231F20"/>
<path d="M262.879 83.3163H252.307V93.7304H262.879V83.3163Z" fill="#231F20"/>
<path d="M284.023 83.3163H273.452V93.7304H284.023V83.3163Z" fill="#231F20"/>
<path d="M305.167 83.3163H294.595V93.7304H305.167V83.3163Z" fill="#231F20"/>
<path d="M326.311 83.3163H315.74V93.7304H326.311V83.3163Z" fill="#231F20"/>
<path d="M347.456 83.3163H336.884V93.7304H347.456V83.3163Z" fill="#231F20"/>
<path d="M368.599 83.3163H358.028V93.7304H368.599V83.3163Z" fill="#231F20"/>
<path d="M389.744 83.3163H379.172V93.7304H389.744V83.3163Z" fill="#231F20"/>
<path d="M410.889 83.3163H400.317V93.7304H410.889V83.3163Z" fill="#231F20"/>
<path d="M273.45 93.7304H262.879V104.145H273.45V93.7304Z" fill="#231F20"/>
<path d="M294.595 93.7304H284.023V104.145H294.595V93.7304Z" fill="#231F20"/>
<path d="M315.74 93.7304H305.168V104.145H315.74V93.7304Z" fill="#231F20"/>
<path d="M336.883 93.7304H326.311V104.145H336.883V93.7304Z" fill="#231F20"/>
<path d="M358.028 93.7304H347.456V104.145H358.028V93.7304Z" fill="#231F20"/>
<path d="M379.172 93.7304H368.601V104.145H379.172V93.7304Z" fill="#231F20"/>
<path d="M400.316 93.7304H389.744V104.145H400.316V93.7304Z" fill="#231F20"/>
<path d="M421.46 93.7304H410.889V104.145H421.46V93.7304Z" fill="#231F20"/>
<path d="M262.879 104.145H252.307V114.559H262.879V104.145Z" fill="#231F20"/>
<path d="M284.023 104.145H273.452V114.559H284.023V104.145Z" fill="#231F20"/>
<path d="M305.167 104.145H294.595V114.559H305.167V104.145Z" fill="#231F20"/>
<path d="M326.311 104.145H315.74V114.559H326.311V104.145Z" fill="#231F20"/>
<path d="M347.456 104.145H336.884V114.559H347.456V104.145Z" fill="#231F20"/>
<path d="M368.599 104.145H358.028V114.559H368.599V104.145Z" fill="#231F20"/>
<path d="M389.744 104.145H379.172V114.559H389.744V104.145Z" fill="#231F20"/>
<path d="M410.889 104.145H400.317V114.559H410.889V104.145Z" fill="#231F20"/>
<path d="M273.45 114.56H262.879V124.974H273.45V114.56Z" fill="#231F20"/>
<path d="M294.595 114.56H284.023V124.974H294.595V114.56Z" fill="#231F20"/>
<path d="M315.74 114.56H305.168V124.974H315.74V114.56Z" fill="#231F20"/>
<path d="M336.883 114.56H326.311V124.974H336.883V114.56Z" fill="#231F20"/>
<path d="M358.028 114.56H347.456V124.974H358.028V114.56Z" fill="#231F20"/>
<path d="M379.172 114.56H368.601V124.974H379.172V114.56Z" fill="#231F20"/>
<path d="M400.316 114.56H389.744V124.974H400.316V114.56Z" fill="#231F20"/>
<path d="M421.46 114.56H410.889V124.974H421.46V114.56Z" fill="#231F20"/>
<path d="M590.207 0H421.09V124.974H590.207V0Z" fill="white"/>
<path d="M431.662 0H421.09V10.4141H431.662V0Z" fill="#231F20"/>
<path d="M452.807 0H442.235V10.4141H452.807V0Z" fill="#231F20"/>
<path d="M473.95 0H463.378V10.4141H473.95V0Z" fill="#231F20"/>
<path d="M495.095 0H484.523V10.4141H495.095V0Z" fill="#231F20"/>
<path d="M516.239 0H505.668V10.4141H516.239V0Z" fill="#231F20"/>
<path d="M537.383 0H526.811V10.4141H537.383V0Z" fill="#231F20"/>
<path d="M558.527 0H547.956V10.4141H558.527V0Z" fill="#231F20"/>
<path d="M579.672 0H569.1V10.4141H579.672V0Z" fill="#231F20"/>
<path d="M442.234 10.4141H431.662V20.8283H442.234V10.4141Z" fill="#231F20"/>
<path d="M463.378 10.4141H452.807V20.8283H463.378V10.4141Z" fill="#231F20"/>
<path d="M484.523 10.4141H473.951V20.8283H484.523V10.4141Z" fill="#231F20"/>
<path d="M505.667 10.4141H495.095V20.8283H505.667V10.4141Z" fill="#231F20"/>
<path d="M526.811 10.4141H516.239V20.8283H526.811V10.4141Z" fill="#231F20"/>
<path d="M547.956 10.4141H537.384V20.8283H547.956V10.4141Z" fill="#231F20"/>
<path d="M569.099 10.4141H558.527V20.8283H569.099V10.4141Z" fill="#231F20"/>
<path d="M590.244 10.4141H579.672V20.8283H590.244V10.4141Z" fill="#231F20"/>
<path d="M431.662 20.8294H421.09V31.2435H431.662V20.8294Z" fill="#231F20"/>
<path d="M452.807 20.8294H442.235V31.2435H452.807V20.8294Z" fill="#231F20"/>
<path d="M473.95 20.8294H463.378V31.2435H473.95V20.8294Z" fill="#231F20"/>
<path d="M495.095 20.8294H484.523V31.2435H495.095V20.8294Z" fill="#231F20"/>
<path d="M516.239 20.8294H505.668V31.2435H516.239V20.8294Z" fill="#231F20"/>
<path d="M537.383 20.8294H526.811V31.2435H537.383V20.8294Z" fill="#231F20"/>
<path d="M558.527 20.8294H547.956V31.2435H558.527V20.8294Z" fill="#231F20"/>
<path d="M579.672 20.8294H569.1V31.2435H579.672V20.8294Z" fill="#231F20"/>
<path d="M442.234 31.2435H431.662V41.6576H442.234V31.2435Z" fill="#231F20"/>
<path d="M463.378 31.2435H452.807V41.6576H463.378V31.2435Z" fill="#231F20"/>
<path d="M484.523 31.2435H473.951V41.6576H484.523V31.2435Z" fill="#231F20"/>
<path d="M505.667 31.2435H495.095V41.6576H505.667V31.2435Z" fill="#231F20"/>
<path d="M526.811 31.2435H516.239V41.6576H526.811V31.2435Z" fill="#231F20"/>
<path d="M547.956 31.2435H537.384V41.6576H547.956V31.2435Z" fill="#231F20"/>
<path d="M569.099 31.2435H558.527V41.6576H569.099V31.2435Z" fill="#231F20"/>
<path d="M590.244 31.2435H579.672V41.6576H590.244V31.2435Z" fill="#231F20"/>
<path d="M431.662 41.6576H421.09V52.0717H431.662V41.6576Z" fill="#231F20"/>
<path d="M452.807 41.6576H442.235V52.0717H452.807V41.6576Z" fill="#231F20"/>
<path d="M473.95 41.6576H463.378V52.0717H473.95V41.6576Z" fill="#231F20"/>
<path d="M495.095 41.6576H484.523V52.0717H495.095V41.6576Z" fill="#231F20"/>
<path d="M516.239 41.6576H505.668V52.0717H516.239V41.6576Z" fill="#231F20"/>
<path d="M537.383 41.6576H526.811V52.0717H537.383V41.6576Z" fill="#231F20"/>
<path d="M558.527 41.6576H547.956V52.0717H558.527V41.6576Z" fill="#231F20"/>
<path d="M579.672 41.6576H569.1V52.0717H579.672V41.6576Z" fill="#231F20"/>
<path d="M442.234 52.0728H431.662V62.487H442.234V52.0728Z" fill="#231F20"/>
<path d="M463.378 52.0728H452.807V62.487H463.378V52.0728Z" fill="#231F20"/>
<path d="M484.523 52.0728H473.951V62.487H484.523V52.0728Z" fill="#231F20"/>
<path d="M505.667 52.0728H495.095V62.487H505.667V52.0728Z" fill="#231F20"/>
<path d="M526.811 52.0728H516.239V62.487H526.811V52.0728Z" fill="#231F20"/>
<path d="M547.956 52.0728H537.384V62.487H547.956V52.0728Z" fill="#231F20"/>
<path d="M569.099 52.0728H558.527V62.487H569.099V52.0728Z" fill="#231F20"/>
<path d="M590.244 52.0728H579.672V62.487H590.244V52.0728Z" fill="#231F20"/>
<path d="M431.662 62.487H421.09V72.9011H431.662V62.487Z" fill="#231F20"/>
<path d="M452.807 62.487H442.235V72.9011H452.807V62.487Z" fill="#231F20"/>
<path d="M473.95 62.487H463.378V72.9011H473.95V62.487Z" fill="#231F20"/>
<path d="M495.095 62.487H484.523V72.9011H495.095V62.487Z" fill="#231F20"/>
<path d="M516.239 62.487H505.668V72.9011H516.239V62.487Z" fill="#231F20"/>
<path d="M537.383 62.487H526.811V72.9011H537.383V62.487Z" fill="#231F20"/>
<path d="M558.527 62.487H547.956V72.9011H558.527V62.487Z" fill="#231F20"/>
<path d="M579.672 62.487H569.1V72.9011H579.672V62.487Z" fill="#231F20"/>
<path d="M442.234 72.9011H431.662V83.3152H442.234V72.9011Z" fill="#231F20"/>
<path d="M463.378 72.9011H452.807V83.3152H463.378V72.9011Z" fill="#231F20"/>
<path d="M484.523 72.9011H473.951V83.3152H484.523V72.9011Z" fill="#231F20"/>
<path d="M505.667 72.9011H495.095V83.3152H505.667V72.9011Z" fill="#231F20"/>
<path d="M526.811 72.9011H516.239V83.3152H526.811V72.9011Z" fill="#231F20"/>
<path d="M547.956 72.9011H537.384V83.3152H547.956V72.9011Z" fill="#231F20"/>
<path d="M569.099 72.9011H558.527V83.3152H569.099V72.9011Z" fill="#231F20"/>
<path d="M590.244 72.9011H579.672V83.3152H590.244V72.9011Z" fill="#231F20"/>
<path d="M431.662 83.3163H421.09V93.7304H431.662V83.3163Z" fill="#231F20"/>
<path d="M452.807 83.3163H442.235V93.7304H452.807V83.3163Z" fill="#231F20"/>
<path d="M473.95 83.3163H463.378V93.7304H473.95V83.3163Z" fill="#231F20"/>
<path d="M495.095 83.3163H484.523V93.7304H495.095V83.3163Z" fill="#231F20"/>
<path d="M516.239 83.3163H505.668V93.7304H516.239V83.3163Z" fill="#231F20"/>
<path d="M537.383 83.3163H526.811V93.7304H537.383V83.3163Z" fill="#231F20"/>
<path d="M558.527 83.3163H547.956V93.7304H558.527V83.3163Z" fill="#231F20"/>
<path d="M579.672 83.3163H569.1V93.7304H579.672V83.3163Z" fill="#231F20"/>
<path d="M442.234 93.7304H431.662V104.145H442.234V93.7304Z" fill="#231F20"/>
<path d="M463.378 93.7304H452.807V104.145H463.378V93.7304Z" fill="#231F20"/>
<path d="M484.523 93.7304H473.951V104.145H484.523V93.7304Z" fill="#231F20"/>
<path d="M505.667 93.7304H495.095V104.145H505.667V93.7304Z" fill="#231F20"/>
<path d="M526.811 93.7304H516.239V104.145H526.811V93.7304Z" fill="#231F20"/>
<path d="M547.956 93.7304H537.384V104.145H547.956V93.7304Z" fill="#231F20"/>
<path d="M569.099 93.7304H558.527V104.145H569.099V93.7304Z" fill="#231F20"/>
<path d="M590.244 93.7304H579.672V104.145H590.244V93.7304Z" fill="#231F20"/>
<path d="M431.662 104.145H421.09V114.559H431.662V104.145Z" fill="#231F20"/>
<path d="M452.807 104.145H442.235V114.559H452.807V104.145Z" fill="#231F20"/>
<path d="M473.95 104.145H463.378V114.559H473.95V104.145Z" fill="#231F20"/>
<path d="M495.095 104.145H484.523V114.559H495.095V104.145Z" fill="#231F20"/>
<path d="M516.239 104.145H505.668V114.559H516.239V104.145Z" fill="#231F20"/>
<path d="M537.383 104.145H526.811V114.559H537.383V104.145Z" fill="#231F20"/>
<path d="M558.527 104.145H547.956V114.559H558.527V104.145Z" fill="#231F20"/>
<path d="M579.672 104.145H569.1V114.559H579.672V104.145Z" fill="#231F20"/>
<path d="M442.234 114.56H431.662V124.974H442.234V114.56Z" fill="#231F20"/>
<path d="M463.378 114.56H452.807V124.974H463.378V114.56Z" fill="#231F20"/>
<path d="M484.523 114.56H473.951V124.974H484.523V114.56Z" fill="#231F20"/>
<path d="M505.667 114.56H495.095V124.974H505.667V114.56Z" fill="#231F20"/>
<path d="M526.811 114.56H516.239V124.974H526.811V114.56Z" fill="#231F20"/>
<path d="M547.956 114.56H537.384V124.974H547.956V114.56Z" fill="#231F20"/>
<path d="M569.099 114.56H558.527V124.974H569.099V114.56Z" fill="#231F20"/>
<path d="M590.244 114.56H579.672V124.974H590.244V114.56Z" fill="#231F20"/>
</g>
<defs>
<clipPath id="clip0_870_166">
<rect width="533" height="20.7683" fill="white" transform="translate(-86 125.703)"/>
</clipPath>
<clipPath id="clip1_870_166">
<rect width="533" height="20.7683" fill="white" transform="translate(-86)"/>
</clipPath>
</defs>
</svg>
