<svg width="992" height="320" viewBox="0 0 992 320" fill="none" xmlns="http://www.w3.org/2000/svg">
<path d="M185.975 242.786H209.175L218.219 233.794V191.962H200.328V225.78H195.019V116.509H200.328V150.326H218.219V108.494L209.175 99.5025H185.975L176.93 108.494V233.794L185.975 242.786Z" fill="black"/>
<path d="M272.092 99.5025H248.891L239.847 108.494V233.794L248.891 242.786H272.092L281.136 233.794V108.494L272.092 99.5025ZM263.047 225.78H257.935V116.509H263.047V225.78Z" fill="black"/>
<path d="M359.192 99.5025H339.137L331.862 151.304L322.818 99.5025H302.764V242.786H318.886V162.446L326.161 200.172H333.632L341.103 162.446V242.786H359.192V99.5025Z" fill="black"/>
<path d="M398.937 242.786V99.5025H380.849V242.786H398.937Z" fill="black"/>
<path d="M462.608 99.5025H444.519V134.884L438.621 99.5025H420.532V242.786H438.621V206.623L444.519 242.786H462.608V99.5025Z" fill="black"/>
<path d="M525.506 169.874H504.861V186.88H507.417V225.78H502.305V116.509H507.417V150.326H525.506V108.494L516.462 99.5025H493.261L484.217 108.494V233.794L493.261 242.786H516.462L525.506 233.794V169.874Z" fill="black"/>
<path d="M625.802 233.794V168.505L602.602 149.544V116.509H607.714V148.567H625.802V108.494L616.758 99.5025H593.558L584.513 108.494V161.273L607.91 180.429V225.78H602.405V181.211H584.513V233.794L593.558 242.786H616.758L625.802 233.794Z" fill="black"/>
<path d="M679.675 99.5025H656.474L647.43 108.494V233.794L656.474 242.786H679.675L688.719 233.794V108.494L679.675 99.5025ZM670.63 225.78H665.518V116.509H670.63V225.78Z" fill="black"/>
<path d="M742.591 99.5025H719.391L710.346 108.494V233.794L719.391 242.786H742.591L751.635 233.794V108.494L742.591 99.5025ZM733.547 225.78H728.435V116.509H733.547V225.78Z" fill="black"/>
<path d="M815.338 99.5025H797.25V134.884L791.352 99.5025H773.263V242.786H791.352V206.623L797.25 242.786H815.338V99.5025Z" fill="black"/>
<rect x="-77" y="65.2737" width="1146.27" height="15.9204" fill="#E9C56D"/>
<rect x="-77" y="262.687" width="1146.27" height="11.9403" fill="#E9C56D"/>
<rect x="-77" y="44.5771" width="1146.27" height="7.9602" fill="#E9C56D"/>
<g clip-path="url(#clip0_860_63)">
<path d="M286.702 274.627H-77V547.662H286.702V274.627Z" fill="white"/>
<path d="M-54.2644 274.627H-77V297.379H-54.2644V274.627Z" fill="#231F20"/>
<path d="M-8.79089 274.627H-31.5265V297.379H-8.79089V274.627Z" fill="#231F20"/>
<path d="M36.6803 274.627H13.9447V297.379H36.6803V274.627Z" fill="#231F20"/>
<path d="M82.1538 274.627H59.4182V297.379H82.1538V274.627Z" fill="#231F20"/>
<path d="M127.627 274.627H104.892V297.379H127.627V274.627Z" fill="#231F20"/>
<path d="M173.099 274.627H150.363V297.379H173.099V274.627Z" fill="#231F20"/>
<path d="M218.572 274.627H195.836V297.379H218.572V274.627Z" fill="#231F20"/>
<path d="M264.046 274.627H241.31V297.379H264.046V274.627Z" fill="#231F20"/>
<path d="M-31.5288 297.379H-54.2644V320.131H-31.5288V297.379Z" fill="#231F20"/>
<path d="M13.9447 297.379H-8.79089V320.131H13.9447V297.379Z" fill="#231F20"/>
<path d="M59.4182 297.379H36.6826V320.131H59.4182V297.379Z" fill="#231F20"/>
<path d="M104.889 297.379H82.1538V320.131H104.889V297.379Z" fill="#231F20"/>
<path d="M150.363 297.379H127.627V320.131H150.363V297.379Z" fill="#231F20"/>
<path d="M195.836 297.379H173.101V320.131H195.836V297.379Z" fill="#231F20"/>
<path d="M241.308 297.379H218.572V320.131H241.308V297.379Z" fill="#231F20"/>
<path d="M286.781 297.379H264.046V320.131H286.781V297.379Z" fill="#231F20"/>
<path d="M-54.2644 320.133H-77V342.886H-54.2644V320.133Z" fill="#231F20"/>
<path d="M-8.79089 320.133H-31.5265V342.886H-8.79089V320.133Z" fill="#231F20"/>
<path d="M36.6803 320.133H13.9447V342.886H36.6803V320.133Z" fill="#231F20"/>
<path d="M82.1538 320.133H59.4182V342.886H82.1538V320.133Z" fill="#231F20"/>
<path d="M127.627 320.133H104.892V342.886H127.627V320.133Z" fill="#231F20"/>
<path d="M173.099 320.133H150.363V342.886H173.099V320.133Z" fill="#231F20"/>
<path d="M218.572 320.133H195.836V342.886H218.572V320.133Z" fill="#231F20"/>
<path d="M264.046 320.133H241.31V342.886H264.046V320.133Z" fill="#231F20"/>
<path d="M-31.5288 342.886H-54.2644V365.638H-31.5288V342.886Z" fill="#231F20"/>
<path d="M13.9447 342.886H-8.79089V365.638H13.9447V342.886Z" fill="#231F20"/>
<path d="M59.4182 342.886H36.6826V365.638H59.4182V342.886Z" fill="#231F20"/>
<path d="M104.889 342.886H82.1538V365.638H104.889V342.886Z" fill="#231F20"/>
<path d="M150.363 342.886H127.627V365.638H150.363V342.886Z" fill="#231F20"/>
<path d="M195.836 342.886H173.101V365.638H195.836V342.886Z" fill="#231F20"/>
<path d="M241.308 342.886H218.572V365.638H241.308V342.886Z" fill="#231F20"/>
<path d="M286.781 342.886H264.046V365.638H286.781V342.886Z" fill="#231F20"/>
<path d="M-54.2644 365.638H-77V388.39H-54.2644V365.638Z" fill="#231F20"/>
<path d="M-8.79089 365.638H-31.5265V388.39H-8.79089V365.638Z" fill="#231F20"/>
<path d="M36.6803 365.638H13.9447V388.39H36.6803V365.638Z" fill="#231F20"/>
<path d="M82.1538 365.638H59.4182V388.39H82.1538V365.638Z" fill="#231F20"/>
<path d="M127.627 365.638H104.892V388.39H127.627V365.638Z" fill="#231F20"/>
<path d="M173.099 365.638H150.363V388.39H173.099V365.638Z" fill="#231F20"/>
<path d="M218.572 365.638H195.836V388.39H218.572V365.638Z" fill="#231F20"/>
<path d="M264.046 365.638H241.31V388.39H264.046V365.638Z" fill="#231F20"/>
<path d="M-31.5288 388.392H-54.2644V411.144H-31.5288V388.392Z" fill="#231F20"/>
<path d="M13.9447 388.392H-8.79089V411.144H13.9447V388.392Z" fill="#231F20"/>
<path d="M59.4182 388.392H36.6826V411.144H59.4182V388.392Z" fill="#231F20"/>
<path d="M104.889 388.392H82.1538V411.144H104.889V388.392Z" fill="#231F20"/>
<path d="M150.363 388.392H127.627V411.144H150.363V388.392Z" fill="#231F20"/>
<path d="M195.836 388.392H173.101V411.144H195.836V388.392Z" fill="#231F20"/>
<path d="M241.308 388.392H218.572V411.144H241.308V388.392Z" fill="#231F20"/>
<path d="M286.781 388.392H264.046V411.144H286.781V388.392Z" fill="#231F20"/>
<path d="M-54.2644 411.144H-77V433.896H-54.2644V411.144Z" fill="#231F20"/>
<path d="M-8.79089 411.144H-31.5265V433.896H-8.79089V411.144Z" fill="#231F20"/>
<path d="M36.6803 411.144H13.9447V433.896H36.6803V411.144Z" fill="#231F20"/>
<path d="M82.1538 411.144H59.4182V433.896H82.1538V411.144Z" fill="#231F20"/>
<path d="M127.627 411.144H104.892V433.896H127.627V411.144Z" fill="#231F20"/>
<path d="M173.099 411.144H150.363V433.896H173.099V411.144Z" fill="#231F20"/>
<path d="M218.572 411.144H195.836V433.896H218.572V411.144Z" fill="#231F20"/>
<path d="M264.046 411.144H241.31V433.896H264.046V411.144Z" fill="#231F20"/>
<path d="M-31.5288 433.896H-54.2644V456.648H-31.5288V433.896Z" fill="#231F20"/>
<path d="M13.9447 433.896H-8.79089V456.648H13.9447V433.896Z" fill="#231F20"/>
<path d="M59.4182 433.896H36.6826V456.648H59.4182V433.896Z" fill="#231F20"/>
<path d="M104.889 433.896H82.1538V456.648H104.889V433.896Z" fill="#231F20"/>
<path d="M150.363 433.896H127.627V456.648H150.363V433.896Z" fill="#231F20"/>
<path d="M195.836 433.896H173.101V456.648H195.836V433.896Z" fill="#231F20"/>
<path d="M241.308 433.896H218.572V456.648H241.308V433.896Z" fill="#231F20"/>
<path d="M286.781 433.896H264.046V456.648H286.781V433.896Z" fill="#231F20"/>
<path d="M-54.2644 456.651H-77V479.403H-54.2644V456.651Z" fill="#231F20"/>
<path d="M-8.79089 456.651H-31.5265V479.403H-8.79089V456.651Z" fill="#231F20"/>
<path d="M36.6803 456.651H13.9447V479.403H36.6803V456.651Z" fill="#231F20"/>
<path d="M82.1538 456.651H59.4182V479.403H82.1538V456.651Z" fill="#231F20"/>
<path d="M127.627 456.651H104.892V479.403H127.627V456.651Z" fill="#231F20"/>
<path d="M173.099 456.651H150.363V479.403H173.099V456.651Z" fill="#231F20"/>
<path d="M218.572 456.651H195.836V479.403H218.572V456.651Z" fill="#231F20"/>
<path d="M264.046 456.651H241.31V479.403H264.046V456.651Z" fill="#231F20"/>
<path d="M-31.5288 479.403H-54.2644V502.155H-31.5288V479.403Z" fill="#231F20"/>
<path d="M13.9447 479.403H-8.79089V502.155H13.9447V479.403Z" fill="#231F20"/>
<path d="M59.4182 479.403H36.6826V502.155H59.4182V479.403Z" fill="#231F20"/>
<path d="M104.889 479.403H82.1538V502.155H104.889V479.403Z" fill="#231F20"/>
<path d="M150.363 479.403H127.627V502.155H150.363V479.403Z" fill="#231F20"/>
<path d="M195.836 479.403H173.101V502.155H195.836V479.403Z" fill="#231F20"/>
<path d="M241.308 479.403H218.572V502.155H241.308V479.403Z" fill="#231F20"/>
<path d="M286.781 479.403H264.046V502.155H286.781V479.403Z" fill="#231F20"/>
<path d="M-54.2644 502.155H-77V524.907H-54.2644V502.155Z" fill="#231F20"/>
<path d="M-8.79089 502.155H-31.5265V524.907H-8.79089V502.155Z" fill="#231F20"/>
<path d="M36.6803 502.155H13.9447V524.907H36.6803V502.155Z" fill="#231F20"/>
<path d="M82.1538 502.155H59.4182V524.907H82.1538V502.155Z" fill="#231F20"/>
<path d="M127.627 502.155H104.892V524.907H127.627V502.155Z" fill="#231F20"/>
<path d="M173.099 502.155H150.363V524.907H173.099V502.155Z" fill="#231F20"/>
<path d="M218.572 502.155H195.836V524.907H218.572V502.155Z" fill="#231F20"/>
<path d="M264.046 502.155H241.31V524.907H264.046V502.155Z" fill="#231F20"/>
<path d="M-31.5288 524.91H-54.2644V547.662H-31.5288V524.91Z" fill="#231F20"/>
<path d="M13.9447 524.91H-8.79089V547.662H13.9447V524.91Z" fill="#231F20"/>
<path d="M59.4182 524.91H36.6826V547.662H59.4182V524.91Z" fill="#231F20"/>
<path d="M104.889 524.91H82.1538V547.662H104.889V524.91Z" fill="#231F20"/>
<path d="M150.363 524.91H127.627V547.662H150.363V524.91Z" fill="#231F20"/>
<path d="M195.836 524.91H173.101V547.662H195.836V524.91Z" fill="#231F20"/>
<path d="M241.308 524.91H218.572V547.662H241.308V524.91Z" fill="#231F20"/>
<path d="M286.781 524.91H264.046V547.662H286.781V524.91Z" fill="#231F20"/>
<path d="M650.484 274.627H286.781V547.662H650.484V274.627Z" fill="white"/>
<path d="M309.517 274.627H286.781V297.379H309.517V274.627Z" fill="#231F20"/>
<path d="M354.99 274.627H332.255V297.379H354.99V274.627Z" fill="#231F20"/>
<path d="M400.461 274.627H377.726V297.379H400.461V274.627Z" fill="#231F20"/>
<path d="M445.935 274.627H423.199V297.379H445.935V274.627Z" fill="#231F20"/>
<path d="M491.408 274.627H468.673V297.379H491.408V274.627Z" fill="#231F20"/>
<path d="M536.88 274.627H514.144V297.379H536.88V274.627Z" fill="#231F20"/>
<path d="M582.353 274.627H559.618V297.379H582.353V274.627Z" fill="#231F20"/>
<path d="M627.827 274.627H605.091V297.379H627.827V274.627Z" fill="#231F20"/>
<path d="M332.252 297.379H309.517V320.131H332.252V297.379Z" fill="#231F20"/>
<path d="M377.726 297.379H354.99V320.131H377.726V297.379Z" fill="#231F20"/>
<path d="M423.199 297.379H400.464V320.131H423.199V297.379Z" fill="#231F20"/>
<path d="M468.67 297.379H445.935V320.131H468.67V297.379Z" fill="#231F20"/>
<path d="M514.144 297.379H491.408V320.131H514.144V297.379Z" fill="#231F20"/>
<path d="M559.618 297.379H536.882V320.131H559.618V297.379Z" fill="#231F20"/>
<path d="M605.089 297.379H582.353V320.131H605.089V297.379Z" fill="#231F20"/>
<path d="M650.562 297.379H627.827V320.131H650.562V297.379Z" fill="#231F20"/>
<path d="M309.517 320.133H286.781V342.886H309.517V320.133Z" fill="#231F20"/>
<path d="M354.99 320.133H332.255V342.886H354.99V320.133Z" fill="#231F20"/>
<path d="M400.461 320.133H377.726V342.886H400.461V320.133Z" fill="#231F20"/>
<path d="M445.935 320.133H423.199V342.886H445.935V320.133Z" fill="#231F20"/>
<path d="M491.408 320.133H468.673V342.886H491.408V320.133Z" fill="#231F20"/>
<path d="M536.88 320.133H514.144V342.886H536.88V320.133Z" fill="#231F20"/>
<path d="M582.353 320.133H559.618V342.886H582.353V320.133Z" fill="#231F20"/>
<path d="M627.827 320.133H605.091V342.886H627.827V320.133Z" fill="#231F20"/>
<path d="M332.252 342.886H309.517V365.638H332.252V342.886Z" fill="#231F20"/>
<path d="M377.726 342.886H354.99V365.638H377.726V342.886Z" fill="#231F20"/>
<path d="M423.199 342.886H400.464V365.638H423.199V342.886Z" fill="#231F20"/>
<path d="M468.67 342.886H445.935V365.638H468.67V342.886Z" fill="#231F20"/>
<path d="M514.144 342.886H491.408V365.638H514.144V342.886Z" fill="#231F20"/>
<path d="M559.618 342.886H536.882V365.638H559.618V342.886Z" fill="#231F20"/>
<path d="M605.089 342.886H582.353V365.638H605.089V342.886Z" fill="#231F20"/>
<path d="M650.562 342.886H627.827V365.638H650.562V342.886Z" fill="#231F20"/>
<path d="M309.517 365.638H286.781V388.39H309.517V365.638Z" fill="#231F20"/>
<path d="M354.99 365.638H332.255V388.39H354.99V365.638Z" fill="#231F20"/>
<path d="M400.461 365.638H377.726V388.39H400.461V365.638Z" fill="#231F20"/>
<path d="M445.935 365.638H423.199V388.39H445.935V365.638Z" fill="#231F20"/>
<path d="M491.408 365.638H468.673V388.39H491.408V365.638Z" fill="#231F20"/>
<path d="M536.88 365.638H514.144V388.39H536.88V365.638Z" fill="#231F20"/>
<path d="M582.353 365.638H559.618V388.39H582.353V365.638Z" fill="#231F20"/>
<path d="M627.827 365.638H605.091V388.39H627.827V365.638Z" fill="#231F20"/>
<path d="M332.252 388.392H309.517V411.144H332.252V388.392Z" fill="#231F20"/>
<path d="M377.726 388.392H354.99V411.144H377.726V388.392Z" fill="#231F20"/>
<path d="M423.199 388.392H400.464V411.144H423.199V388.392Z" fill="#231F20"/>
<path d="M468.67 388.392H445.935V411.144H468.67V388.392Z" fill="#231F20"/>
<path d="M514.144 388.392H491.408V411.144H514.144V388.392Z" fill="#231F20"/>
<path d="M559.618 388.392H536.882V411.144H559.618V388.392Z" fill="#231F20"/>
<path d="M605.089 388.392H582.353V411.144H605.089V388.392Z" fill="#231F20"/>
<path d="M650.562 388.392H627.827V411.144H650.562V388.392Z" fill="#231F20"/>
<path d="M309.517 411.144H286.781V433.896H309.517V411.144Z" fill="#231F20"/>
<path d="M354.99 411.144H332.255V433.896H354.99V411.144Z" fill="#231F20"/>
<path d="M400.461 411.144H377.726V433.896H400.461V411.144Z" fill="#231F20"/>
<path d="M445.935 411.144H423.199V433.896H445.935V411.144Z" fill="#231F20"/>
<path d="M491.408 411.144H468.673V433.896H491.408V411.144Z" fill="#231F20"/>
<path d="M536.88 411.144H514.144V433.896H536.88V411.144Z" fill="#231F20"/>
<path d="M582.353 411.144H559.618V433.896H582.353V411.144Z" fill="#231F20"/>
<path d="M627.827 411.144H605.091V433.896H627.827V411.144Z" fill="#231F20"/>
<path d="M332.252 433.896H309.517V456.648H332.252V433.896Z" fill="#231F20"/>
<path d="M377.726 433.896H354.99V456.648H377.726V433.896Z" fill="#231F20"/>
<path d="M423.199 433.896H400.464V456.648H423.199V433.896Z" fill="#231F20"/>
<path d="M468.67 433.896H445.935V456.648H468.67V433.896Z" fill="#231F20"/>
<path d="M514.144 433.896H491.408V456.648H514.144V433.896Z" fill="#231F20"/>
<path d="M559.618 433.896H536.882V456.648H559.618V433.896Z" fill="#231F20"/>
<path d="M605.089 433.896H582.353V456.648H605.089V433.896Z" fill="#231F20"/>
<path d="M650.562 433.896H627.827V456.648H650.562V433.896Z" fill="#231F20"/>
<path d="M309.517 456.651H286.781V479.403H309.517V456.651Z" fill="#231F20"/>
<path d="M354.99 456.651H332.255V479.403H354.99V456.651Z" fill="#231F20"/>
<path d="M400.461 456.651H377.726V479.403H400.461V456.651Z" fill="#231F20"/>
<path d="M445.935 456.651H423.199V479.403H445.935V456.651Z" fill="#231F20"/>
<path d="M491.408 456.651H468.673V479.403H491.408V456.651Z" fill="#231F20"/>
<path d="M536.88 456.651H514.144V479.403H536.88V456.651Z" fill="#231F20"/>
<path d="M582.353 456.651H559.618V479.403H582.353V456.651Z" fill="#231F20"/>
<path d="M627.827 456.651H605.091V479.403H627.827V456.651Z" fill="#231F20"/>
<path d="M332.252 479.403H309.517V502.155H332.252V479.403Z" fill="#231F20"/>
<path d="M377.726 479.403H354.99V502.155H377.726V479.403Z" fill="#231F20"/>
<path d="M423.199 479.403H400.464V502.155H423.199V479.403Z" fill="#231F20"/>
<path d="M468.67 479.403H445.935V502.155H468.67V479.403Z" fill="#231F20"/>
<path d="M514.144 479.403H491.408V502.155H514.144V479.403Z" fill="#231F20"/>
<path d="M559.618 479.403H536.882V502.155H559.618V479.403Z" fill="#231F20"/>
<path d="M605.089 479.403H582.353V502.155H605.089V479.403Z" fill="#231F20"/>
<path d="M650.562 479.403H627.827V502.155H650.562V479.403Z" fill="#231F20"/>
<path d="M309.517 502.155H286.781V524.907H309.517V502.155Z" fill="#231F20"/>
<path d="M354.99 502.155H332.255V524.907H354.99V502.155Z" fill="#231F20"/>
<path d="M400.461 502.155H377.726V524.907H400.461V502.155Z" fill="#231F20"/>
<path d="M445.935 502.155H423.199V524.907H445.935V502.155Z" fill="#231F20"/>
<path d="M491.408 502.155H468.673V524.907H491.408V502.155Z" fill="#231F20"/>
<path d="M536.88 502.155H514.144V524.907H536.88V502.155Z" fill="#231F20"/>
<path d="M582.353 502.155H559.618V524.907H582.353V502.155Z" fill="#231F20"/>
<path d="M627.827 502.155H605.091V524.907H627.827V502.155Z" fill="#231F20"/>
<path d="M332.252 524.91H309.517V547.662H332.252V524.91Z" fill="#231F20"/>
<path d="M377.726 524.91H354.99V547.662H377.726V524.91Z" fill="#231F20"/>
<path d="M423.199 524.91H400.464V547.662H423.199V524.91Z" fill="#231F20"/>
<path d="M468.67 524.91H445.935V547.662H468.67V524.91Z" fill="#231F20"/>
<path d="M514.144 524.91H491.408V547.662H514.144V524.91Z" fill="#231F20"/>
<path d="M559.618 524.91H536.882V547.662H559.618V524.91Z" fill="#231F20"/>
<path d="M605.089 524.91H582.353V547.662H605.089V524.91Z" fill="#231F20"/>
<path d="M650.562 524.91H627.827V547.662H650.562V524.91Z" fill="#231F20"/>
<path d="M1014.26 274.627H650.562V547.662H1014.26V274.627Z" fill="white"/>
<path d="M673.298 274.627H650.562V297.379H673.298V274.627Z" fill="#231F20"/>
<path d="M718.771 274.627H696.036V297.379H718.771V274.627Z" fill="#231F20"/>
<path d="M764.242 274.627H741.507V297.379H764.242V274.627Z" fill="#231F20"/>
<path d="M809.716 274.627H786.98V297.379H809.716V274.627Z" fill="#231F20"/>
<path d="M855.19 274.627H832.454V297.379H855.19V274.627Z" fill="#231F20"/>
<path d="M900.661 274.627H877.925V297.379H900.661V274.627Z" fill="#231F20"/>
<path d="M946.134 274.627H923.399V297.379H946.134V274.627Z" fill="#231F20"/>
<path d="M991.608 274.627H968.872V297.379H991.608V274.627Z" fill="#231F20"/>
<path d="M696.033 297.379H673.298V320.131H696.033V297.379Z" fill="#231F20"/>
<path d="M741.507 297.379H718.771V320.131H741.507V297.379Z" fill="#231F20"/>
<path d="M786.98 297.379H764.245V320.131H786.98V297.379Z" fill="#231F20"/>
<path d="M832.452 297.379H809.716V320.131H832.452V297.379Z" fill="#231F20"/>
<path d="M877.925 297.379H855.19V320.131H877.925V297.379Z" fill="#231F20"/>
<path d="M923.399 297.379H900.663V320.131H923.399V297.379Z" fill="#231F20"/>
<path d="M968.87 297.379H946.134V320.131H968.87V297.379Z" fill="#231F20"/>
<path d="M1014.34 297.379H991.608V320.131H1014.34V297.379Z" fill="#231F20"/>
<path d="M673.298 320.133H650.562V342.886H673.298V320.133Z" fill="#231F20"/>
<path d="M718.771 320.133H696.036V342.886H718.771V320.133Z" fill="#231F20"/>
<path d="M764.242 320.133H741.507V342.886H764.242V320.133Z" fill="#231F20"/>
<path d="M809.716 320.133H786.98V342.886H809.716V320.133Z" fill="#231F20"/>
<path d="M855.19 320.133H832.454V342.886H855.19V320.133Z" fill="#231F20"/>
<path d="M900.661 320.133H877.925V342.886H900.661V320.133Z" fill="#231F20"/>
<path d="M946.134 320.133H923.399V342.886H946.134V320.133Z" fill="#231F20"/>
<path d="M991.608 320.133H968.872V342.886H991.608V320.133Z" fill="#231F20"/>
<path d="M696.033 342.886H673.298V365.638H696.033V342.886Z" fill="#231F20"/>
<path d="M741.507 342.886H718.771V365.638H741.507V342.886Z" fill="#231F20"/>
<path d="M786.98 342.886H764.245V365.638H786.98V342.886Z" fill="#231F20"/>
<path d="M832.452 342.886H809.716V365.638H832.452V342.886Z" fill="#231F20"/>
<path d="M877.925 342.886H855.19V365.638H877.925V342.886Z" fill="#231F20"/>
<path d="M923.399 342.886H900.663V365.638H923.399V342.886Z" fill="#231F20"/>
<path d="M968.87 342.886H946.134V365.638H968.87V342.886Z" fill="#231F20"/>
<path d="M1014.34 342.886H991.608V365.638H1014.34V342.886Z" fill="#231F20"/>
<path d="M673.298 365.638H650.562V388.39H673.298V365.638Z" fill="#231F20"/>
<path d="M718.771 365.638H696.036V388.39H718.771V365.638Z" fill="#231F20"/>
<path d="M764.242 365.638H741.507V388.39H764.242V365.638Z" fill="#231F20"/>
<path d="M809.716 365.638H786.98V388.39H809.716V365.638Z" fill="#231F20"/>
<path d="M855.19 365.638H832.454V388.39H855.19V365.638Z" fill="#231F20"/>
<path d="M900.661 365.638H877.925V388.39H900.661V365.638Z" fill="#231F20"/>
<path d="M946.134 365.638H923.399V388.39H946.134V365.638Z" fill="#231F20"/>
<path d="M991.608 365.638H968.872V388.39H991.608V365.638Z" fill="#231F20"/>
<path d="M696.033 388.392H673.298V411.144H696.033V388.392Z" fill="#231F20"/>
<path d="M741.507 388.392H718.771V411.144H741.507V388.392Z" fill="#231F20"/>
<path d="M786.98 388.392H764.245V411.144H786.98V388.392Z" fill="#231F20"/>
<path d="M832.452 388.392H809.716V411.144H832.452V388.392Z" fill="#231F20"/>
<path d="M877.925 388.392H855.19V411.144H877.925V388.392Z" fill="#231F20"/>
<path d="M923.399 388.392H900.663V411.144H923.399V388.392Z" fill="#231F20"/>
<path d="M968.87 388.392H946.134V411.144H968.87V388.392Z" fill="#231F20"/>
<path d="M1014.34 388.392H991.608V411.144H1014.34V388.392Z" fill="#231F20"/>
<path d="M673.298 411.144H650.562V433.896H673.298V411.144Z" fill="#231F20"/>
<path d="M718.771 411.144H696.036V433.896H718.771V411.144Z" fill="#231F20"/>
<path d="M764.242 411.144H741.507V433.896H764.242V411.144Z" fill="#231F20"/>
<path d="M809.716 411.144H786.98V433.896H809.716V411.144Z" fill="#231F20"/>
<path d="M855.19 411.144H832.454V433.896H855.19V411.144Z" fill="#231F20"/>
<path d="M900.661 411.144H877.925V433.896H900.661V411.144Z" fill="#231F20"/>
<path d="M946.134 411.144H923.399V433.896H946.134V411.144Z" fill="#231F20"/>
<path d="M991.608 411.144H968.872V433.896H991.608V411.144Z" fill="#231F20"/>
<path d="M696.033 433.896H673.298V456.648H696.033V433.896Z" fill="#231F20"/>
<path d="M741.507 433.896H718.771V456.648H741.507V433.896Z" fill="#231F20"/>
<path d="M786.98 433.896H764.245V456.648H786.98V433.896Z" fill="#231F20"/>
<path d="M832.452 433.896H809.716V456.648H832.452V433.896Z" fill="#231F20"/>
<path d="M877.925 433.896H855.19V456.648H877.925V433.896Z" fill="#231F20"/>
<path d="M923.399 433.896H900.663V456.648H923.399V433.896Z" fill="#231F20"/>
<path d="M968.87 433.896H946.134V456.648H968.87V433.896Z" fill="#231F20"/>
<path d="M1014.34 433.896H991.608V456.648H1014.34V433.896Z" fill="#231F20"/>
<path d="M673.298 456.651H650.562V479.403H673.298V456.651Z" fill="#231F20"/>
<path d="M718.771 456.651H696.036V479.403H718.771V456.651Z" fill="#231F20"/>
<path d="M764.242 456.651H741.507V479.403H764.242V456.651Z" fill="#231F20"/>
<path d="M809.716 456.651H786.98V479.403H809.716V456.651Z" fill="#231F20"/>
<path d="M855.19 456.651H832.454V479.403H855.19V456.651Z" fill="#231F20"/>
<path d="M900.661 456.651H877.925V479.403H900.661V456.651Z" fill="#231F20"/>
<path d="M946.134 456.651H923.399V479.403H946.134V456.651Z" fill="#231F20"/>
<path d="M991.608 456.651H968.872V479.403H991.608V456.651Z" fill="#231F20"/>
<path d="M696.033 479.403H673.298V502.155H696.033V479.403Z" fill="#231F20"/>
<path d="M741.507 479.403H718.771V502.155H741.507V479.403Z" fill="#231F20"/>
<path d="M786.98 479.403H764.245V502.155H786.98V479.403Z" fill="#231F20"/>
<path d="M832.452 479.403H809.716V502.155H832.452V479.403Z" fill="#231F20"/>
<path d="M877.925 479.403H855.19V502.155H877.925V479.403Z" fill="#231F20"/>
<path d="M923.399 479.403H900.663V502.155H923.399V479.403Z" fill="#231F20"/>
<path d="M968.87 479.403H946.134V502.155H968.87V479.403Z" fill="#231F20"/>
<path d="M1014.34 479.403H991.608V502.155H1014.34V479.403Z" fill="#231F20"/>
<path d="M673.298 502.155H650.562V524.907H673.298V502.155Z" fill="#231F20"/>
<path d="M718.771 502.155H696.036V524.907H718.771V502.155Z" fill="#231F20"/>
<path d="M764.242 502.155H741.507V524.907H764.242V502.155Z" fill="#231F20"/>
<path d="M809.716 502.155H786.98V524.907H809.716V502.155Z" fill="#231F20"/>
<path d="M855.19 502.155H832.454V524.907H855.19V502.155Z" fill="#231F20"/>
<path d="M900.661 502.155H877.925V524.907H900.661V502.155Z" fill="#231F20"/>
<path d="M946.134 502.155H923.399V524.907H946.134V502.155Z" fill="#231F20"/>
<path d="M991.608 502.155H968.872V524.907H991.608V502.155Z" fill="#231F20"/>
<path d="M696.033 524.91H673.298V547.662H696.033V524.91Z" fill="#231F20"/>
<path d="M741.507 524.91H718.771V547.662H741.507V524.91Z" fill="#231F20"/>
<path d="M786.98 524.91H764.245V547.662H786.98V524.91Z" fill="#231F20"/>
<path d="M832.452 524.91H809.716V547.662H832.452V524.91Z" fill="#231F20"/>
<path d="M877.925 524.91H855.19V547.662H877.925V524.91Z" fill="#231F20"/>
<path d="M923.399 524.91H900.663V547.662H923.399V524.91Z" fill="#231F20"/>
<path d="M968.87 524.91H946.134V547.662H968.87V524.91Z" fill="#231F20"/>
<path d="M1014.34 524.91H991.608V547.662H1014.34V524.91Z" fill="#231F20"/>
<path d="M1377.25 274.627H1013.55V547.662H1377.25V274.627Z" fill="white"/>
<path d="M1036.28 274.627H1013.55V297.379H1036.28V274.627Z" fill="#231F20"/>
<path d="M1081.76 274.627H1059.02V297.379H1081.76V274.627Z" fill="#231F20"/>
<path d="M1127.23 274.627H1104.49V297.379H1127.23V274.627Z" fill="#231F20"/>
<path d="M1172.7 274.627H1149.97V297.379H1172.7V274.627Z" fill="#231F20"/>
<path d="M1218.17 274.627H1195.44V297.379H1218.17V274.627Z" fill="#231F20"/>
<path d="M1263.65 274.627H1240.91V297.379H1263.65V274.627Z" fill="#231F20"/>
<path d="M1309.12 274.627H1286.38V297.379H1309.12V274.627Z" fill="#231F20"/>
<path d="M1354.59 274.627H1331.86V297.379H1354.59V274.627Z" fill="#231F20"/>
<path d="M1059.02 297.379H1036.28V320.131H1059.02V297.379Z" fill="#231F20"/>
<path d="M1104.49 297.379H1081.76V320.131H1104.49V297.379Z" fill="#231F20"/>
<path d="M1149.97 297.379H1127.23V320.131H1149.97V297.379Z" fill="#231F20"/>
<path d="M1195.44 297.379H1172.7V320.131H1195.44V297.379Z" fill="#231F20"/>
<path d="M1240.91 297.379H1218.17V320.131H1240.91V297.379Z" fill="#231F20"/>
<path d="M1286.38 297.379H1263.65V320.131H1286.38V297.379Z" fill="#231F20"/>
<path d="M1331.85 297.379H1309.12V320.131H1331.85V297.379Z" fill="#231F20"/>
<path d="M1377.33 297.379H1354.59V320.131H1377.33V297.379Z" fill="#231F20"/>
<path d="M1036.28 320.133H1013.55V342.886H1036.28V320.133Z" fill="#231F20"/>
<path d="M1081.76 320.133H1059.02V342.886H1081.76V320.133Z" fill="#231F20"/>
<path d="M1127.23 320.133H1104.49V342.886H1127.23V320.133Z" fill="#231F20"/>
<path d="M1172.7 320.133H1149.97V342.886H1172.7V320.133Z" fill="#231F20"/>
<path d="M1218.17 320.133H1195.44V342.886H1218.17V320.133Z" fill="#231F20"/>
<path d="M1263.65 320.133H1240.91V342.886H1263.65V320.133Z" fill="#231F20"/>
<path d="M1309.12 320.133H1286.38V342.886H1309.12V320.133Z" fill="#231F20"/>
<path d="M1354.59 320.133H1331.86V342.886H1354.59V320.133Z" fill="#231F20"/>
<path d="M1059.02 342.886H1036.28V365.638H1059.02V342.886Z" fill="#231F20"/>
<path d="M1104.49 342.886H1081.76V365.638H1104.49V342.886Z" fill="#231F20"/>
<path d="M1149.97 342.886H1127.23V365.638H1149.97V342.886Z" fill="#231F20"/>
<path d="M1195.44 342.886H1172.7V365.638H1195.44V342.886Z" fill="#231F20"/>
<path d="M1240.91 342.886H1218.17V365.638H1240.91V342.886Z" fill="#231F20"/>
<path d="M1286.38 342.886H1263.65V365.638H1286.38V342.886Z" fill="#231F20"/>
<path d="M1331.85 342.886H1309.12V365.638H1331.85V342.886Z" fill="#231F20"/>
<path d="M1377.33 342.886H1354.59V365.638H1377.33V342.886Z" fill="#231F20"/>
<path d="M1036.28 365.638H1013.55V388.39H1036.28V365.638Z" fill="#231F20"/>
<path d="M1081.76 365.638H1059.02V388.39H1081.76V365.638Z" fill="#231F20"/>
<path d="M1127.23 365.638H1104.49V388.39H1127.23V365.638Z" fill="#231F20"/>
<path d="M1172.7 365.638H1149.97V388.39H1172.7V365.638Z" fill="#231F20"/>
<path d="M1218.17 365.638H1195.44V388.39H1218.17V365.638Z" fill="#231F20"/>
<path d="M1263.65 365.638H1240.91V388.39H1263.65V365.638Z" fill="#231F20"/>
<path d="M1309.12 365.638H1286.38V388.39H1309.12V365.638Z" fill="#231F20"/>
<path d="M1354.59 365.638H1331.86V388.39H1354.59V365.638Z" fill="#231F20"/>
<path d="M1059.02 388.392H1036.28V411.144H1059.02V388.392Z" fill="#231F20"/>
<path d="M1104.49 388.392H1081.76V411.144H1104.49V388.392Z" fill="#231F20"/>
<path d="M1149.97 388.392H1127.23V411.144H1149.97V388.392Z" fill="#231F20"/>
<path d="M1195.44 388.392H1172.7V411.144H1195.44V388.392Z" fill="#231F20"/>
<path d="M1240.91 388.392H1218.17V411.144H1240.91V388.392Z" fill="#231F20"/>
<path d="M1286.38 388.392H1263.65V411.144H1286.38V388.392Z" fill="#231F20"/>
<path d="M1331.85 388.392H1309.12V411.144H1331.85V388.392Z" fill="#231F20"/>
<path d="M1377.33 388.392H1354.59V411.144H1377.33V388.392Z" fill="#231F20"/>
<path d="M1036.28 411.144H1013.55V433.896H1036.28V411.144Z" fill="#231F20"/>
<path d="M1081.76 411.144H1059.02V433.896H1081.76V411.144Z" fill="#231F20"/>
<path d="M1127.23 411.144H1104.49V433.896H1127.23V411.144Z" fill="#231F20"/>
<path d="M1172.7 411.144H1149.97V433.896H1172.7V411.144Z" fill="#231F20"/>
<path d="M1218.17 411.144H1195.44V433.896H1218.17V411.144Z" fill="#231F20"/>
<path d="M1263.65 411.144H1240.91V433.896H1263.65V411.144Z" fill="#231F20"/>
<path d="M1309.12 411.144H1286.38V433.896H1309.12V411.144Z" fill="#231F20"/>
<path d="M1354.59 411.144H1331.86V433.896H1354.59V411.144Z" fill="#231F20"/>
<path d="M1059.02 433.896H1036.28V456.648H1059.02V433.896Z" fill="#231F20"/>
<path d="M1104.49 433.896H1081.76V456.648H1104.49V433.896Z" fill="#231F20"/>
<path d="M1149.97 433.896H1127.23V456.648H1149.97V433.896Z" fill="#231F20"/>
<path d="M1195.44 433.896H1172.7V456.648H1195.44V433.896Z" fill="#231F20"/>
<path d="M1240.91 433.896H1218.17V456.648H1240.91V433.896Z" fill="#231F20"/>
<path d="M1286.38 433.896H1263.65V456.648H1286.38V433.896Z" fill="#231F20"/>
<path d="M1331.85 433.896H1309.12V456.648H1331.85V433.896Z" fill="#231F20"/>
<path d="M1377.33 433.896H1354.59V456.648H1377.33V433.896Z" fill="#231F20"/>
<path d="M1036.28 456.651H1013.55V479.403H1036.28V456.651Z" fill="#231F20"/>
<path d="M1081.76 456.651H1059.02V479.403H1081.76V456.651Z" fill="#231F20"/>
<path d="M1127.23 456.651H1104.49V479.403H1127.23V456.651Z" fill="#231F20"/>
<path d="M1172.7 456.651H1149.97V479.403H1172.7V456.651Z" fill="#231F20"/>
<path d="M1218.17 456.651H1195.44V479.403H1218.17V456.651Z" fill="#231F20"/>
<path d="M1263.65 456.651H1240.91V479.403H1263.65V456.651Z" fill="#231F20"/>
<path d="M1309.12 456.651H1286.38V479.403H1309.12V456.651Z" fill="#231F20"/>
<path d="M1354.59 456.651H1331.86V479.403H1354.59V456.651Z" fill="#231F20"/>
<path d="M1059.02 479.403H1036.28V502.155H1059.02V479.403Z" fill="#231F20"/>
<path d="M1104.49 479.403H1081.76V502.155H1104.49V479.403Z" fill="#231F20"/>
<path d="M1149.97 479.403H1127.23V502.155H1149.97V479.403Z" fill="#231F20"/>
<path d="M1195.44 479.403H1172.7V502.155H1195.44V479.403Z" fill="#231F20"/>
<path d="M1240.91 479.403H1218.17V502.155H1240.91V479.403Z" fill="#231F20"/>
<path d="M1286.38 479.403H1263.65V502.155H1286.38V479.403Z" fill="#231F20"/>
<path d="M1331.85 479.403H1309.12V502.155H1331.85V479.403Z" fill="#231F20"/>
<path d="M1377.33 479.403H1354.59V502.155H1377.33V479.403Z" fill="#231F20"/>
<path d="M1036.28 502.155H1013.55V524.907H1036.28V502.155Z" fill="#231F20"/>
<path d="M1081.76 502.155H1059.02V524.907H1081.76V502.155Z" fill="#231F20"/>
<path d="M1127.23 502.155H1104.49V524.907H1127.23V502.155Z" fill="#231F20"/>
<path d="M1172.7 502.155H1149.97V524.907H1172.7V502.155Z" fill="#231F20"/>
<path d="M1218.17 502.155H1195.44V524.907H1218.17V502.155Z" fill="#231F20"/>
<path d="M1263.65 502.155H1240.91V524.907H1263.65V502.155Z" fill="#231F20"/>
<path d="M1309.12 502.155H1286.38V524.907H1309.12V502.155Z" fill="#231F20"/>
<path d="M1354.59 502.155H1331.86V524.907H1354.59V502.155Z" fill="#231F20"/>
<path d="M1059.02 524.91H1036.28V547.662H1059.02V524.91Z" fill="#231F20"/>
<path d="M1104.49 524.91H1081.76V547.662H1104.49V524.91Z" fill="#231F20"/>
<path d="M1149.97 524.91H1127.23V547.662H1149.97V524.91Z" fill="#231F20"/>
<path d="M1195.44 524.91H1172.7V547.662H1195.44V524.91Z" fill="#231F20"/>
<path d="M1240.91 524.91H1218.17V547.662H1240.91V524.91Z" fill="#231F20"/>
<path d="M1286.38 524.91H1263.65V547.662H1286.38V524.91Z" fill="#231F20"/>
<path d="M1331.85 524.91H1309.12V547.662H1331.85V524.91Z" fill="#231F20"/>
<path d="M1377.33 524.91H1354.59V547.662H1377.33V524.91Z" fill="#231F20"/>
</g>
<g clip-path="url(#clip1_860_63)">
<path d="M286.702 0H-77V273.035H286.702V0Z" fill="white"/>
<path d="M-54.2644 0H-77V22.7521H-54.2644V0Z" fill="#231F20"/>
<path d="M-8.79089 0H-31.5265V22.7521H-8.79089V0Z" fill="#231F20"/>
<path d="M36.6803 0H13.9447V22.7521H36.6803V0Z" fill="#231F20"/>
<path d="M82.1538 0H59.4182V22.7521H82.1538V0Z" fill="#231F20"/>
<path d="M127.627 0H104.892V22.7521H127.627V0Z" fill="#231F20"/>
<path d="M173.099 0H150.363V22.7521H173.099V0Z" fill="#231F20"/>
<path d="M218.572 0H195.836V22.7521H218.572V0Z" fill="#231F20"/>
<path d="M264.046 0H241.31V22.7521H264.046V0Z" fill="#231F20"/>
<path d="M-31.5288 22.7521H-54.2644V45.5042H-31.5288V22.7521Z" fill="#231F20"/>
<path d="M13.9447 22.7521H-8.79089V45.5042H13.9447V22.7521Z" fill="#231F20"/>
<path d="M59.4182 22.7521H36.6826V45.5042H59.4182V22.7521Z" fill="#231F20"/>
<path d="M104.889 22.7521H82.1538V45.5042H104.889V22.7521Z" fill="#231F20"/>
<path d="M150.363 22.7521H127.627V45.5042H150.363V22.7521Z" fill="#231F20"/>
<path d="M195.836 22.7521H173.101V45.5042H195.836V22.7521Z" fill="#231F20"/>
<path d="M241.308 22.7521H218.572V45.5042H241.308V22.7521Z" fill="#231F20"/>
<path d="M286.781 22.7521H264.046V45.5042H286.781V22.7521Z" fill="#231F20"/>
<path d="M-54.2644 45.5066H-77V68.2587H-54.2644V45.5066Z" fill="#231F20"/>
<path d="M-8.79089 45.5066H-31.5265V68.2587H-8.79089V45.5066Z" fill="#231F20"/>
<path d="M36.6803 45.5066H13.9447V68.2587H36.6803V45.5066Z" fill="#231F20"/>
<path d="M82.1538 45.5066H59.4182V68.2587H82.1538V45.5066Z" fill="#231F20"/>
<path d="M127.627 45.5066H104.892V68.2587H127.627V45.5066Z" fill="#231F20"/>
<path d="M173.099 45.5066H150.363V68.2587H173.099V45.5066Z" fill="#231F20"/>
<path d="M218.572 45.5066H195.836V68.2587H218.572V45.5066Z" fill="#231F20"/>
<path d="M264.046 45.5066H241.31V68.2587H264.046V45.5066Z" fill="#231F20"/>
<path d="M-31.5288 68.2587H-54.2644V91.0108H-31.5288V68.2587Z" fill="#231F20"/>
<path d="M13.9447 68.2587H-8.79089V91.0108H13.9447V68.2587Z" fill="#231F20"/>
<path d="M59.4182 68.2587H36.6826V91.0108H59.4182V68.2587Z" fill="#231F20"/>
<path d="M104.889 68.2587H82.1538V91.0108H104.889V68.2587Z" fill="#231F20"/>
<path d="M150.363 68.2587H127.627V91.0108H150.363V68.2587Z" fill="#231F20"/>
<path d="M195.836 68.2587H173.101V91.0108H195.836V68.2587Z" fill="#231F20"/>
<path d="M241.308 68.2587H218.572V91.0108H241.308V68.2587Z" fill="#231F20"/>
<path d="M286.781 68.2587H264.046V91.0108H286.781V68.2587Z" fill="#231F20"/>
<path d="M-54.2644 91.0108H-77V113.763H-54.2644V91.0108Z" fill="#231F20"/>
<path d="M-8.79089 91.0108H-31.5265V113.763H-8.79089V91.0108Z" fill="#231F20"/>
<path d="M36.6803 91.0108H13.9447V113.763H36.6803V91.0108Z" fill="#231F20"/>
<path d="M82.1538 91.0108H59.4182V113.763H82.1538V91.0108Z" fill="#231F20"/>
<path d="M127.627 91.0108H104.892V113.763H127.627V91.0108Z" fill="#231F20"/>
<path d="M173.099 91.0108H150.363V113.763H173.099V91.0108Z" fill="#231F20"/>
<path d="M218.572 91.0108H195.836V113.763H218.572V91.0108Z" fill="#231F20"/>
<path d="M264.046 91.0108H241.31V113.763H264.046V91.0108Z" fill="#231F20"/>
<path d="M-31.5288 113.765H-54.2644V136.517H-31.5288V113.765Z" fill="#231F20"/>
<path d="M13.9447 113.765H-8.79089V136.517H13.9447V113.765Z" fill="#231F20"/>
<path d="M59.4182 113.765H36.6826V136.517H59.4182V113.765Z" fill="#231F20"/>
<path d="M104.889 113.765H82.1538V136.517H104.889V113.765Z" fill="#231F20"/>
<path d="M150.363 113.765H127.627V136.517H150.363V113.765Z" fill="#231F20"/>
<path d="M195.836 113.765H173.101V136.517H195.836V113.765Z" fill="#231F20"/>
<path d="M241.308 113.765H218.572V136.517H241.308V113.765Z" fill="#231F20"/>
<path d="M286.781 113.765H264.046V136.517H286.781V113.765Z" fill="#231F20"/>
<path d="M-54.2644 136.517H-77V159.27H-54.2644V136.517Z" fill="#231F20"/>
<path d="M-8.79089 136.517H-31.5265V159.27H-8.79089V136.517Z" fill="#231F20"/>
<path d="M36.6803 136.517H13.9447V159.27H36.6803V136.517Z" fill="#231F20"/>
<path d="M82.1538 136.517H59.4182V159.27H82.1538V136.517Z" fill="#231F20"/>
<path d="M127.627 136.517H104.892V159.27H127.627V136.517Z" fill="#231F20"/>
<path d="M173.099 136.517H150.363V159.27H173.099V136.517Z" fill="#231F20"/>
<path d="M218.572 136.517H195.836V159.27H218.572V136.517Z" fill="#231F20"/>
<path d="M264.046 136.517H241.31V159.27H264.046V136.517Z" fill="#231F20"/>
<path d="M-31.5288 159.27H-54.2644V182.022H-31.5288V159.27Z" fill="#231F20"/>
<path d="M13.9447 159.27H-8.79089V182.022H13.9447V159.27Z" fill="#231F20"/>
<path d="M59.4182 159.27H36.6826V182.022H59.4182V159.27Z" fill="#231F20"/>
<path d="M104.889 159.27H82.1538V182.022H104.889V159.27Z" fill="#231F20"/>
<path d="M150.363 159.27H127.627V182.022H150.363V159.27Z" fill="#231F20"/>
<path d="M195.836 159.27H173.101V182.022H195.836V159.27Z" fill="#231F20"/>
<path d="M241.308 159.27H218.572V182.022H241.308V159.27Z" fill="#231F20"/>
<path d="M286.781 159.27H264.046V182.022H286.781V159.27Z" fill="#231F20"/>
<path d="M-54.2644 182.024H-77V204.776H-54.2644V182.024Z" fill="#231F20"/>
<path d="M-8.79089 182.024H-31.5265V204.776H-8.79089V182.024Z" fill="#231F20"/>
<path d="M36.6803 182.024H13.9447V204.776H36.6803V182.024Z" fill="#231F20"/>
<path d="M82.1538 182.024H59.4182V204.776H82.1538V182.024Z" fill="#231F20"/>
<path d="M127.627 182.024H104.892V204.776H127.627V182.024Z" fill="#231F20"/>
<path d="M173.099 182.024H150.363V204.776H173.099V182.024Z" fill="#231F20"/>
<path d="M218.572 182.024H195.836V204.776H218.572V182.024Z" fill="#231F20"/>
<path d="M264.046 182.024H241.31V204.776H264.046V182.024Z" fill="#231F20"/>
<path d="M-31.5288 204.776H-54.2644V227.528H-31.5288V204.776Z" fill="#231F20"/>
<path d="M13.9447 204.776H-8.79089V227.528H13.9447V204.776Z" fill="#231F20"/>
<path d="M59.4182 204.776H36.6826V227.528H59.4182V204.776Z" fill="#231F20"/>
<path d="M104.889 204.776H82.1538V227.528H104.889V204.776Z" fill="#231F20"/>
<path d="M150.363 204.776H127.627V227.528H150.363V204.776Z" fill="#231F20"/>
<path d="M195.836 204.776H173.101V227.528H195.836V204.776Z" fill="#231F20"/>
<path d="M241.308 204.776H218.572V227.528H241.308V204.776Z" fill="#231F20"/>
<path d="M286.781 204.776H264.046V227.528H286.781V204.776Z" fill="#231F20"/>
<path d="M-54.2644 227.528H-77V250.28H-54.2644V227.528Z" fill="#231F20"/>
<path d="M-8.79089 227.528H-31.5265V250.28H-8.79089V227.528Z" fill="#231F20"/>
<path d="M36.6803 227.528H13.9447V250.28H36.6803V227.528Z" fill="#231F20"/>
<path d="M82.1538 227.528H59.4182V250.28H82.1538V227.528Z" fill="#231F20"/>
<path d="M127.627 227.528H104.892V250.28H127.627V227.528Z" fill="#231F20"/>
<path d="M173.099 227.528H150.363V250.28H173.099V227.528Z" fill="#231F20"/>
<path d="M218.572 227.528H195.836V250.28H218.572V227.528Z" fill="#231F20"/>
<path d="M264.046 227.528H241.31V250.28H264.046V227.528Z" fill="#231F20"/>
<path d="M-31.5288 250.283H-54.2644V273.035H-31.5288V250.283Z" fill="#231F20"/>
<path d="M13.9447 250.283H-8.79089V273.035H13.9447V250.283Z" fill="#231F20"/>
<path d="M59.4182 250.283H36.6826V273.035H59.4182V250.283Z" fill="#231F20"/>
<path d="M104.889 250.283H82.1538V273.035H104.889V250.283Z" fill="#231F20"/>
<path d="M150.363 250.283H127.627V273.035H150.363V250.283Z" fill="#231F20"/>
<path d="M195.836 250.283H173.101V273.035H195.836V250.283Z" fill="#231F20"/>
<path d="M241.308 250.283H218.572V273.035H241.308V250.283Z" fill="#231F20"/>
<path d="M286.781 250.283H264.046V273.035H286.781V250.283Z" fill="#231F20"/>
<path d="M650.484 0H286.781V273.035H650.484V0Z" fill="white"/>
<path d="M309.517 0H286.781V22.7521H309.517V0Z" fill="#231F20"/>
<path d="M354.99 0H332.255V22.7521H354.99V0Z" fill="#231F20"/>
<path d="M400.461 0H377.726V22.7521H400.461V0Z" fill="#231F20"/>
<path d="M445.935 0H423.199V22.7521H445.935V0Z" fill="#231F20"/>
<path d="M491.408 0H468.673V22.7521H491.408V0Z" fill="#231F20"/>
<path d="M536.88 0H514.144V22.7521H536.88V0Z" fill="#231F20"/>
<path d="M582.353 0H559.618V22.7521H582.353V0Z" fill="#231F20"/>
<path d="M627.827 0H605.091V22.7521H627.827V0Z" fill="#231F20"/>
<path d="M332.252 22.7521H309.517V45.5042H332.252V22.7521Z" fill="#231F20"/>
<path d="M377.726 22.7521H354.99V45.5042H377.726V22.7521Z" fill="#231F20"/>
<path d="M423.199 22.7521H400.464V45.5042H423.199V22.7521Z" fill="#231F20"/>
<path d="M468.67 22.7521H445.935V45.5042H468.67V22.7521Z" fill="#231F20"/>
<path d="M514.144 22.7521H491.408V45.5042H514.144V22.7521Z" fill="#231F20"/>
<path d="M559.618 22.7521H536.882V45.5042H559.618V22.7521Z" fill="#231F20"/>
<path d="M605.089 22.7521H582.353V45.5042H605.089V22.7521Z" fill="#231F20"/>
<path d="M650.562 22.7521H627.827V45.5042H650.562V22.7521Z" fill="#231F20"/>
<path d="M309.517 45.5066H286.781V68.2587H309.517V45.5066Z" fill="#231F20"/>
<path d="M354.99 45.5066H332.255V68.2587H354.99V45.5066Z" fill="#231F20"/>
<path d="M400.461 45.5066H377.726V68.2587H400.461V45.5066Z" fill="#231F20"/>
<path d="M445.935 45.5066H423.199V68.2587H445.935V45.5066Z" fill="#231F20"/>
<path d="M491.408 45.5066H468.673V68.2587H491.408V45.5066Z" fill="#231F20"/>
<path d="M536.88 45.5066H514.144V68.2587H536.88V45.5066Z" fill="#231F20"/>
<path d="M582.353 45.5066H559.618V68.2587H582.353V45.5066Z" fill="#231F20"/>
<path d="M627.827 45.5066H605.091V68.2587H627.827V45.5066Z" fill="#231F20"/>
<path d="M332.252 68.2587H309.517V91.0108H332.252V68.2587Z" fill="#231F20"/>
<path d="M377.726 68.2587H354.99V91.0108H377.726V68.2587Z" fill="#231F20"/>
<path d="M423.199 68.2587H400.464V91.0108H423.199V68.2587Z" fill="#231F20"/>
<path d="M468.67 68.2587H445.935V91.0108H468.67V68.2587Z" fill="#231F20"/>
<path d="M514.144 68.2587H491.408V91.0108H514.144V68.2587Z" fill="#231F20"/>
<path d="M559.618 68.2587H536.882V91.0108H559.618V68.2587Z" fill="#231F20"/>
<path d="M605.089 68.2587H582.353V91.0108H605.089V68.2587Z" fill="#231F20"/>
<path d="M650.562 68.2587H627.827V91.0108H650.562V68.2587Z" fill="#231F20"/>
<path d="M309.517 91.0108H286.781V113.763H309.517V91.0108Z" fill="#231F20"/>
<path d="M354.99 91.0108H332.255V113.763H354.99V91.0108Z" fill="#231F20"/>
<path d="M400.461 91.0108H377.726V113.763H400.461V91.0108Z" fill="#231F20"/>
<path d="M445.935 91.0108H423.199V113.763H445.935V91.0108Z" fill="#231F20"/>
<path d="M491.408 91.0108H468.673V113.763H491.408V91.0108Z" fill="#231F20"/>
<path d="M536.88 91.0108H514.144V113.763H536.88V91.0108Z" fill="#231F20"/>
<path d="M582.353 91.0108H559.618V113.763H582.353V91.0108Z" fill="#231F20"/>
<path d="M627.827 91.0108H605.091V113.763H627.827V91.0108Z" fill="#231F20"/>
<path d="M332.252 113.765H309.517V136.517H332.252V113.765Z" fill="#231F20"/>
<path d="M377.726 113.765H354.99V136.517H377.726V113.765Z" fill="#231F20"/>
<path d="M423.199 113.765H400.464V136.517H423.199V113.765Z" fill="#231F20"/>
<path d="M468.67 113.765H445.935V136.517H468.67V113.765Z" fill="#231F20"/>
<path d="M514.144 113.765H491.408V136.517H514.144V113.765Z" fill="#231F20"/>
<path d="M559.618 113.765H536.882V136.517H559.618V113.765Z" fill="#231F20"/>
<path d="M605.089 113.765H582.353V136.517H605.089V113.765Z" fill="#231F20"/>
<path d="M650.562 113.765H627.827V136.517H650.562V113.765Z" fill="#231F20"/>
<path d="M309.517 136.517H286.781V159.27H309.517V136.517Z" fill="#231F20"/>
<path d="M354.99 136.517H332.255V159.27H354.99V136.517Z" fill="#231F20"/>
<path d="M400.461 136.517H377.726V159.27H400.461V136.517Z" fill="#231F20"/>
<path d="M445.935 136.517H423.199V159.27H445.935V136.517Z" fill="#231F20"/>
<path d="M491.408 136.517H468.673V159.27H491.408V136.517Z" fill="#231F20"/>
<path d="M536.88 136.517H514.144V159.27H536.88V136.517Z" fill="#231F20"/>
<path d="M582.353 136.517H559.618V159.27H582.353V136.517Z" fill="#231F20"/>
<path d="M627.827 136.517H605.091V159.27H627.827V136.517Z" fill="#231F20"/>
<path d="M332.252 159.27H309.517V182.022H332.252V159.27Z" fill="#231F20"/>
<path d="M377.726 159.27H354.99V182.022H377.726V159.27Z" fill="#231F20"/>
<path d="M423.199 159.27H400.464V182.022H423.199V159.27Z" fill="#231F20"/>
<path d="M468.67 159.27H445.935V182.022H468.67V159.27Z" fill="#231F20"/>
<path d="M514.144 159.27H491.408V182.022H514.144V159.27Z" fill="#231F20"/>
<path d="M559.618 159.27H536.882V182.022H559.618V159.27Z" fill="#231F20"/>
<path d="M605.089 159.27H582.353V182.022H605.089V159.27Z" fill="#231F20"/>
<path d="M650.562 159.27H627.827V182.022H650.562V159.27Z" fill="#231F20"/>
<path d="M309.517 182.024H286.781V204.776H309.517V182.024Z" fill="#231F20"/>
<path d="M354.99 182.024H332.255V204.776H354.99V182.024Z" fill="#231F20"/>
<path d="M400.461 182.024H377.726V204.776H400.461V182.024Z" fill="#231F20"/>
<path d="M445.935 182.024H423.199V204.776H445.935V182.024Z" fill="#231F20"/>
<path d="M491.408 182.024H468.673V204.776H491.408V182.024Z" fill="#231F20"/>
<path d="M536.88 182.024H514.144V204.776H536.88V182.024Z" fill="#231F20"/>
<path d="M582.353 182.024H559.618V204.776H582.353V182.024Z" fill="#231F20"/>
<path d="M627.827 182.024H605.091V204.776H627.827V182.024Z" fill="#231F20"/>
<path d="M332.252 204.776H309.517V227.528H332.252V204.776Z" fill="#231F20"/>
<path d="M377.726 204.776H354.99V227.528H377.726V204.776Z" fill="#231F20"/>
<path d="M423.199 204.776H400.464V227.528H423.199V204.776Z" fill="#231F20"/>
<path d="M468.67 204.776H445.935V227.528H468.67V204.776Z" fill="#231F20"/>
<path d="M514.144 204.776H491.408V227.528H514.144V204.776Z" fill="#231F20"/>
<path d="M559.618 204.776H536.882V227.528H559.618V204.776Z" fill="#231F20"/>
<path d="M605.089 204.776H582.353V227.528H605.089V204.776Z" fill="#231F20"/>
<path d="M650.562 204.776H627.827V227.528H650.562V204.776Z" fill="#231F20"/>
<path d="M309.517 227.528H286.781V250.28H309.517V227.528Z" fill="#231F20"/>
<path d="M354.99 227.528H332.255V250.28H354.99V227.528Z" fill="#231F20"/>
<path d="M400.461 227.528H377.726V250.28H400.461V227.528Z" fill="#231F20"/>
<path d="M445.935 227.528H423.199V250.28H445.935V227.528Z" fill="#231F20"/>
<path d="M491.408 227.528H468.673V250.28H491.408V227.528Z" fill="#231F20"/>
<path d="M536.88 227.528H514.144V250.28H536.88V227.528Z" fill="#231F20"/>
<path d="M582.353 227.528H559.618V250.28H582.353V227.528Z" fill="#231F20"/>
<path d="M627.827 227.528H605.091V250.28H627.827V227.528Z" fill="#231F20"/>
<path d="M332.252 250.283H309.517V273.035H332.252V250.283Z" fill="#231F20"/>
<path d="M377.726 250.283H354.99V273.035H377.726V250.283Z" fill="#231F20"/>
<path d="M423.199 250.283H400.464V273.035H423.199V250.283Z" fill="#231F20"/>
<path d="M468.67 250.283H445.935V273.035H468.67V250.283Z" fill="#231F20"/>
<path d="M514.144 250.283H491.408V273.035H514.144V250.283Z" fill="#231F20"/>
<path d="M559.618 250.283H536.882V273.035H559.618V250.283Z" fill="#231F20"/>
<path d="M605.089 250.283H582.353V273.035H605.089V250.283Z" fill="#231F20"/>
<path d="M650.562 250.283H627.827V273.035H650.562V250.283Z" fill="#231F20"/>
<path d="M1014.26 0H650.562V273.035H1014.26V0Z" fill="white"/>
<path d="M673.298 0H650.562V22.7521H673.298V0Z" fill="#231F20"/>
<path d="M718.771 0H696.036V22.7521H718.771V0Z" fill="#231F20"/>
<path d="M764.242 0H741.507V22.7521H764.242V0Z" fill="#231F20"/>
<path d="M809.716 0H786.98V22.7521H809.716V0Z" fill="#231F20"/>
<path d="M855.19 0H832.454V22.7521H855.19V0Z" fill="#231F20"/>
<path d="M900.661 0H877.925V22.7521H900.661V0Z" fill="#231F20"/>
<path d="M946.134 0H923.399V22.7521H946.134V0Z" fill="#231F20"/>
<path d="M991.608 0H968.872V22.7521H991.608V0Z" fill="#231F20"/>
<path d="M696.033 22.7521H673.298V45.5042H696.033V22.7521Z" fill="#231F20"/>
<path d="M741.507 22.7521H718.771V45.5042H741.507V22.7521Z" fill="#231F20"/>
<path d="M786.98 22.7521H764.245V45.5042H786.98V22.7521Z" fill="#231F20"/>
<path d="M832.452 22.7521H809.716V45.5042H832.452V22.7521Z" fill="#231F20"/>
<path d="M877.925 22.7521H855.19V45.5042H877.925V22.7521Z" fill="#231F20"/>
<path d="M923.399 22.7521H900.663V45.5042H923.399V22.7521Z" fill="#231F20"/>
<path d="M968.87 22.7521H946.134V45.5042H968.87V22.7521Z" fill="#231F20"/>
<path d="M1014.34 22.7521H991.608V45.5042H1014.34V22.7521Z" fill="#231F20"/>
<path d="M673.298 45.5066H650.562V68.2587H673.298V45.5066Z" fill="#231F20"/>
<path d="M718.771 45.5066H696.036V68.2587H718.771V45.5066Z" fill="#231F20"/>
<path d="M764.242 45.5066H741.507V68.2587H764.242V45.5066Z" fill="#231F20"/>
<path d="M809.716 45.5066H786.98V68.2587H809.716V45.5066Z" fill="#231F20"/>
<path d="M855.19 45.5066H832.454V68.2587H855.19V45.5066Z" fill="#231F20"/>
<path d="M900.661 45.5066H877.925V68.2587H900.661V45.5066Z" fill="#231F20"/>
<path d="M946.134 45.5066H923.399V68.2587H946.134V45.5066Z" fill="#231F20"/>
<path d="M991.608 45.5066H968.872V68.2587H991.608V45.5066Z" fill="#231F20"/>
<path d="M696.033 68.2587H673.298V91.0108H696.033V68.2587Z" fill="#231F20"/>
<path d="M741.507 68.2587H718.771V91.0108H741.507V68.2587Z" fill="#231F20"/>
<path d="M786.98 68.2587H764.245V91.0108H786.98V68.2587Z" fill="#231F20"/>
<path d="M832.452 68.2587H809.716V91.0108H832.452V68.2587Z" fill="#231F20"/>
<path d="M877.925 68.2587H855.19V91.0108H877.925V68.2587Z" fill="#231F20"/>
<path d="M923.399 68.2587H900.663V91.0108H923.399V68.2587Z" fill="#231F20"/>
<path d="M968.87 68.2587H946.134V91.0108H968.87V68.2587Z" fill="#231F20"/>
<path d="M1014.34 68.2587H991.608V91.0108H1014.34V68.2587Z" fill="#231F20"/>
<path d="M673.298 91.0108H650.562V113.763H673.298V91.0108Z" fill="#231F20"/>
<path d="M718.771 91.0108H696.036V113.763H718.771V91.0108Z" fill="#231F20"/>
<path d="M764.242 91.0108H741.507V113.763H764.242V91.0108Z" fill="#231F20"/>
<path d="M809.716 91.0108H786.98V113.763H809.716V91.0108Z" fill="#231F20"/>
<path d="M855.19 91.0108H832.454V113.763H855.19V91.0108Z" fill="#231F20"/>
<path d="M900.661 91.0108H877.925V113.763H900.661V91.0108Z" fill="#231F20"/>
<path d="M946.134 91.0108H923.399V113.763H946.134V91.0108Z" fill="#231F20"/>
<path d="M991.608 91.0108H968.872V113.763H991.608V91.0108Z" fill="#231F20"/>
<path d="M696.033 113.765H673.298V136.517H696.033V113.765Z" fill="#231F20"/>
<path d="M741.507 113.765H718.771V136.517H741.507V113.765Z" fill="#231F20"/>
<path d="M786.98 113.765H764.245V136.517H786.98V113.765Z" fill="#231F20"/>
<path d="M832.452 113.765H809.716V136.517H832.452V113.765Z" fill="#231F20"/>
<path d="M877.925 113.765H855.19V136.517H877.925V113.765Z" fill="#231F20"/>
<path d="M923.399 113.765H900.663V136.517H923.399V113.765Z" fill="#231F20"/>
<path d="M968.87 113.765H946.134V136.517H968.87V113.765Z" fill="#231F20"/>
<path d="M1014.34 113.765H991.608V136.517H1014.34V113.765Z" fill="#231F20"/>
<path d="M673.298 136.517H650.562V159.27H673.298V136.517Z" fill="#231F20"/>
<path d="M718.771 136.517H696.036V159.27H718.771V136.517Z" fill="#231F20"/>
<path d="M764.242 136.517H741.507V159.27H764.242V136.517Z" fill="#231F20"/>
<path d="M809.716 136.517H786.98V159.27H809.716V136.517Z" fill="#231F20"/>
<path d="M855.19 136.517H832.454V159.27H855.19V136.517Z" fill="#231F20"/>
<path d="M900.661 136.517H877.925V159.27H900.661V136.517Z" fill="#231F20"/>
<path d="M946.134 136.517H923.399V159.27H946.134V136.517Z" fill="#231F20"/>
<path d="M991.608 136.517H968.872V159.27H991.608V136.517Z" fill="#231F20"/>
<path d="M696.033 159.27H673.298V182.022H696.033V159.27Z" fill="#231F20"/>
<path d="M741.507 159.27H718.771V182.022H741.507V159.27Z" fill="#231F20"/>
<path d="M786.98 159.27H764.245V182.022H786.98V159.27Z" fill="#231F20"/>
<path d="M832.452 159.27H809.716V182.022H832.452V159.27Z" fill="#231F20"/>
<path d="M877.925 159.27H855.19V182.022H877.925V159.27Z" fill="#231F20"/>
<path d="M923.399 159.27H900.663V182.022H923.399V159.27Z" fill="#231F20"/>
<path d="M968.87 159.27H946.134V182.022H968.87V159.27Z" fill="#231F20"/>
<path d="M1014.34 159.27H991.608V182.022H1014.34V159.27Z" fill="#231F20"/>
<path d="M673.298 182.024H650.562V204.776H673.298V182.024Z" fill="#231F20"/>
<path d="M718.771 182.024H696.036V204.776H718.771V182.024Z" fill="#231F20"/>
<path d="M764.242 182.024H741.507V204.776H764.242V182.024Z" fill="#231F20"/>
<path d="M809.716 182.024H786.98V204.776H809.716V182.024Z" fill="#231F20"/>
<path d="M855.19 182.024H832.454V204.776H855.19V182.024Z" fill="#231F20"/>
<path d="M900.661 182.024H877.925V204.776H900.661V182.024Z" fill="#231F20"/>
<path d="M946.134 182.024H923.399V204.776H946.134V182.024Z" fill="#231F20"/>
<path d="M991.608 182.024H968.872V204.776H991.608V182.024Z" fill="#231F20"/>
<path d="M696.033 204.776H673.298V227.528H696.033V204.776Z" fill="#231F20"/>
<path d="M741.507 204.776H718.771V227.528H741.507V204.776Z" fill="#231F20"/>
<path d="M786.98 204.776H764.245V227.528H786.98V204.776Z" fill="#231F20"/>
<path d="M832.452 204.776H809.716V227.528H832.452V204.776Z" fill="#231F20"/>
<path d="M877.925 204.776H855.19V227.528H877.925V204.776Z" fill="#231F20"/>
<path d="M923.399 204.776H900.663V227.528H923.399V204.776Z" fill="#231F20"/>
<path d="M968.87 204.776H946.134V227.528H968.87V204.776Z" fill="#231F20"/>
<path d="M1014.34 204.776H991.608V227.528H1014.34V204.776Z" fill="#231F20"/>
<path d="M673.298 227.528H650.562V250.28H673.298V227.528Z" fill="#231F20"/>
<path d="M718.771 227.528H696.036V250.28H718.771V227.528Z" fill="#231F20"/>
<path d="M764.242 227.528H741.507V250.28H764.242V227.528Z" fill="#231F20"/>
<path d="M809.716 227.528H786.98V250.28H809.716V227.528Z" fill="#231F20"/>
<path d="M855.19 227.528H832.454V250.28H855.19V227.528Z" fill="#231F20"/>
<path d="M900.661 227.528H877.925V250.28H900.661V227.528Z" fill="#231F20"/>
<path d="M946.134 227.528H923.399V250.28H946.134V227.528Z" fill="#231F20"/>
<path d="M991.608 227.528H968.872V250.28H991.608V227.528Z" fill="#231F20"/>
<path d="M696.033 250.283H673.298V273.035H696.033V250.283Z" fill="#231F20"/>
<path d="M741.507 250.283H718.771V273.035H741.507V250.283Z" fill="#231F20"/>
<path d="M786.98 250.283H764.245V273.035H786.98V250.283Z" fill="#231F20"/>
<path d="M832.452 250.283H809.716V273.035H832.452V250.283Z" fill="#231F20"/>
<path d="M877.925 250.283H855.19V273.035H877.925V250.283Z" fill="#231F20"/>
<path d="M923.399 250.283H900.663V273.035H923.399V250.283Z" fill="#231F20"/>
<path d="M968.87 250.283H946.134V273.035H968.87V250.283Z" fill="#231F20"/>
<path d="M1014.34 250.283H991.608V273.035H1014.34V250.283Z" fill="#231F20"/>
<path d="M1377.25 0H1013.55V273.035H1377.25V0Z" fill="white"/>
<path d="M1036.28 0H1013.55V22.7521H1036.28V0Z" fill="#231F20"/>
<path d="M1081.76 0H1059.02V22.7521H1081.76V0Z" fill="#231F20"/>
<path d="M1127.23 0H1104.49V22.7521H1127.23V0Z" fill="#231F20"/>
<path d="M1172.7 0H1149.97V22.7521H1172.7V0Z" fill="#231F20"/>
<path d="M1218.17 0H1195.44V22.7521H1218.17V0Z" fill="#231F20"/>
<path d="M1263.65 0H1240.91V22.7521H1263.65V0Z" fill="#231F20"/>
<path d="M1309.12 0H1286.38V22.7521H1309.12V0Z" fill="#231F20"/>
<path d="M1354.59 0H1331.86V22.7521H1354.59V0Z" fill="#231F20"/>
<path d="M1059.02 22.7521H1036.28V45.5042H1059.02V22.7521Z" fill="#231F20"/>
<path d="M1104.49 22.7521H1081.76V45.5042H1104.49V22.7521Z" fill="#231F20"/>
<path d="M1149.97 22.7521H1127.23V45.5042H1149.97V22.7521Z" fill="#231F20"/>
<path d="M1195.44 22.7521H1172.7V45.5042H1195.44V22.7521Z" fill="#231F20"/>
<path d="M1240.91 22.7521H1218.17V45.5042H1240.91V22.7521Z" fill="#231F20"/>
<path d="M1286.38 22.7521H1263.65V45.5042H1286.38V22.7521Z" fill="#231F20"/>
<path d="M1331.85 22.7521H1309.12V45.5042H1331.85V22.7521Z" fill="#231F20"/>
<path d="M1377.33 22.7521H1354.59V45.5042H1377.33V22.7521Z" fill="#231F20"/>
<path d="M1036.28 45.5066H1013.55V68.2587H1036.28V45.5066Z" fill="#231F20"/>
<path d="M1081.76 45.5066H1059.02V68.2587H1081.76V45.5066Z" fill="#231F20"/>
<path d="M1127.23 45.5066H1104.49V68.2587H1127.23V45.5066Z" fill="#231F20"/>
<path d="M1172.7 45.5066H1149.97V68.2587H1172.7V45.5066Z" fill="#231F20"/>
<path d="M1218.17 45.5066H1195.44V68.2587H1218.17V45.5066Z" fill="#231F20"/>
<path d="M1263.65 45.5066H1240.91V68.2587H1263.65V45.5066Z" fill="#231F20"/>
<path d="M1309.12 45.5066H1286.38V68.2587H1309.12V45.5066Z" fill="#231F20"/>
<path d="M1354.59 45.5066H1331.86V68.2587H1354.59V45.5066Z" fill="#231F20"/>
<path d="M1059.02 68.2587H1036.28V91.0108H1059.02V68.2587Z" fill="#231F20"/>
<path d="M1104.49 68.2587H1081.76V91.0108H1104.49V68.2587Z" fill="#231F20"/>
<path d="M1149.97 68.2587H1127.23V91.0108H1149.97V68.2587Z" fill="#231F20"/>
<path d="M1195.44 68.2587H1172.7V91.0108H1195.44V68.2587Z" fill="#231F20"/>
<path d="M1240.91 68.2587H1218.17V91.0108H1240.91V68.2587Z" fill="#231F20"/>
<path d="M1286.38 68.2587H1263.65V91.0108H1286.38V68.2587Z" fill="#231F20"/>
<path d="M1331.85 68.2587H1309.12V91.0108H1331.85V68.2587Z" fill="#231F20"/>
<path d="M1377.33 68.2587H1354.59V91.0108H1377.33V68.2587Z" fill="#231F20"/>
<path d="M1036.28 91.0108H1013.55V113.763H1036.28V91.0108Z" fill="#231F20"/>
<path d="M1081.76 91.0108H1059.02V113.763H1081.76V91.0108Z" fill="#231F20"/>
<path d="M1127.23 91.0108H1104.49V113.763H1127.23V91.0108Z" fill="#231F20"/>
<path d="M1172.7 91.0108H1149.97V113.763H1172.7V91.0108Z" fill="#231F20"/>
<path d="M1218.17 91.0108H1195.44V113.763H1218.17V91.0108Z" fill="#231F20"/>
<path d="M1263.65 91.0108H1240.91V113.763H1263.65V91.0108Z" fill="#231F20"/>
<path d="M1309.12 91.0108H1286.38V113.763H1309.12V91.0108Z" fill="#231F20"/>
<path d="M1354.59 91.0108H1331.86V113.763H1354.59V91.0108Z" fill="#231F20"/>
<path d="M1059.02 113.765H1036.28V136.517H1059.02V113.765Z" fill="#231F20"/>
<path d="M1104.49 113.765H1081.76V136.517H1104.49V113.765Z" fill="#231F20"/>
<path d="M1149.97 113.765H1127.23V136.517H1149.97V113.765Z" fill="#231F20"/>
<path d="M1195.44 113.765H1172.7V136.517H1195.44V113.765Z" fill="#231F20"/>
<path d="M1240.91 113.765H1218.17V136.517H1240.91V113.765Z" fill="#231F20"/>
<path d="M1286.38 113.765H1263.65V136.517H1286.38V113.765Z" fill="#231F20"/>
<path d="M1331.85 113.765H1309.12V136.517H1331.85V113.765Z" fill="#231F20"/>
<path d="M1377.33 113.765H1354.59V136.517H1377.33V113.765Z" fill="#231F20"/>
<path d="M1036.28 136.517H1013.55V159.27H1036.28V136.517Z" fill="#231F20"/>
<path d="M1081.76 136.517H1059.02V159.27H1081.76V136.517Z" fill="#231F20"/>
<path d="M1127.23 136.517H1104.49V159.27H1127.23V136.517Z" fill="#231F20"/>
<path d="M1172.7 136.517H1149.97V159.27H1172.7V136.517Z" fill="#231F20"/>
<path d="M1218.17 136.517H1195.44V159.27H1218.17V136.517Z" fill="#231F20"/>
<path d="M1263.65 136.517H1240.91V159.27H1263.65V136.517Z" fill="#231F20"/>
<path d="M1309.12 136.517H1286.38V159.27H1309.12V136.517Z" fill="#231F20"/>
<path d="M1354.59 136.517H1331.86V159.27H1354.59V136.517Z" fill="#231F20"/>
<path d="M1059.02 159.27H1036.28V182.022H1059.02V159.27Z" fill="#231F20"/>
<path d="M1104.49 159.27H1081.76V182.022H1104.49V159.27Z" fill="#231F20"/>
<path d="M1149.97 159.27H1127.23V182.022H1149.97V159.27Z" fill="#231F20"/>
<path d="M1195.44 159.27H1172.7V182.022H1195.44V159.27Z" fill="#231F20"/>
<path d="M1240.91 159.27H1218.17V182.022H1240.91V159.27Z" fill="#231F20"/>
<path d="M1286.38 159.27H1263.65V182.022H1286.38V159.27Z" fill="#231F20"/>
<path d="M1331.85 159.27H1309.12V182.022H1331.85V159.27Z" fill="#231F20"/>
<path d="M1377.33 159.27H1354.59V182.022H1377.33V159.27Z" fill="#231F20"/>
<path d="M1036.28 182.024H1013.55V204.776H1036.28V182.024Z" fill="#231F20"/>
<path d="M1081.76 182.024H1059.02V204.776H1081.76V182.024Z" fill="#231F20"/>
<path d="M1127.23 182.024H1104.49V204.776H1127.23V182.024Z" fill="#231F20"/>
<path d="M1172.7 182.024H1149.97V204.776H1172.7V182.024Z" fill="#231F20"/>
<path d="M1218.17 182.024H1195.44V204.776H1218.17V182.024Z" fill="#231F20"/>
<path d="M1263.65 182.024H1240.91V204.776H1263.65V182.024Z" fill="#231F20"/>
<path d="M1309.12 182.024H1286.38V204.776H1309.12V182.024Z" fill="#231F20"/>
<path d="M1354.59 182.024H1331.86V204.776H1354.59V182.024Z" fill="#231F20"/>
<path d="M1059.02 204.776H1036.28V227.528H1059.02V204.776Z" fill="#231F20"/>
<path d="M1104.49 204.776H1081.76V227.528H1104.49V204.776Z" fill="#231F20"/>
<path d="M1149.97 204.776H1127.23V227.528H1149.97V204.776Z" fill="#231F20"/>
<path d="M1195.44 204.776H1172.7V227.528H1195.44V204.776Z" fill="#231F20"/>
<path d="M1240.91 204.776H1218.17V227.528H1240.91V204.776Z" fill="#231F20"/>
<path d="M1286.38 204.776H1263.65V227.528H1286.38V204.776Z" fill="#231F20"/>
<path d="M1331.85 204.776H1309.12V227.528H1331.85V204.776Z" fill="#231F20"/>
<path d="M1377.33 204.776H1354.59V227.528H1377.33V204.776Z" fill="#231F20"/>
<path d="M1036.28 227.528H1013.55V250.28H1036.28V227.528Z" fill="#231F20"/>
<path d="M1081.76 227.528H1059.02V250.28H1081.76V227.528Z" fill="#231F20"/>
<path d="M1127.23 227.528H1104.49V250.28H1127.23V227.528Z" fill="#231F20"/>
<path d="M1172.7 227.528H1149.97V250.28H1172.7V227.528Z" fill="#231F20"/>
<path d="M1218.17 227.528H1195.44V250.28H1218.17V227.528Z" fill="#231F20"/>
<path d="M1263.65 227.528H1240.91V250.28H1263.65V227.528Z" fill="#231F20"/>
<path d="M1309.12 227.528H1286.38V250.28H1309.12V227.528Z" fill="#231F20"/>
<path d="M1354.59 227.528H1331.86V250.28H1354.59V227.528Z" fill="#231F20"/>
<path d="M1059.02 250.283H1036.28V273.035H1059.02V250.283Z" fill="#231F20"/>
<path d="M1104.49 250.283H1081.76V273.035H1104.49V250.283Z" fill="#231F20"/>
<path d="M1149.97 250.283H1127.23V273.035H1149.97V250.283Z" fill="#231F20"/>
<path d="M1195.44 250.283H1172.7V273.035H1195.44V250.283Z" fill="#231F20"/>
<path d="M1240.91 250.283H1218.17V273.035H1240.91V250.283Z" fill="#231F20"/>
<path d="M1286.38 250.283H1263.65V273.035H1286.38V250.283Z" fill="#231F20"/>
<path d="M1331.85 250.283H1309.12V273.035H1331.85V250.283Z" fill="#231F20"/>
<path d="M1377.33 250.283H1354.59V273.035H1377.33V250.283Z" fill="#231F20"/>
</g>
<defs>
<clipPath id="clip0_860_63">
<rect width="1146.27" height="45.3731" fill="white" transform="translate(-77 274.627)"/>
</clipPath>
<clipPath id="clip1_860_63">
<rect width="1146.27" height="45.3731" fill="white" transform="translate(-77)"/>
</clipPath>
</defs>
</svg>
