<svg width="576" height="190" viewBox="0 0 576 190" fill="none" xmlns="http://www.w3.org/2000/svg">
<path d="M100.62 144.154H114.614L120.069 138.815V113.978H109.277V134.057H106.075V69.1771H109.277V89.2561H120.069V64.4185L114.614 59.0796H100.62L95.1643 64.4185V138.815L100.62 144.154Z" fill="black"/>
<path d="M152.563 59.0796H138.569L133.114 64.4185V138.815L138.569 144.154H152.563L158.018 138.815V64.4185L152.563 59.0796ZM147.108 134.057H144.025V69.1771H147.108V134.057Z" fill="black"/>
<path d="M205.1 59.0796H193.003L188.615 89.8365L183.16 59.0796H171.064V144.154H180.788V96.4521L185.176 118.852H189.683L194.189 96.4521V144.154H205.1V59.0796Z" fill="black"/>
<path d="M229.073 144.154V59.0796H218.163V144.154H229.073Z" fill="black"/>
<path d="M267.478 59.0796H256.567V80.0871L253.009 59.0796H242.099V144.154H253.009V122.682L256.567 144.154H267.478V59.0796Z" fill="black"/>
<path d="M305.416 100.862H292.964V110.96H294.506V134.057H291.422V69.1771H294.506V89.2561H305.416V64.4185L299.961 59.0796H285.967L280.512 64.4185V138.815L285.967 144.154H299.961L305.416 138.815V100.862Z" fill="black"/>
<path d="M365.912 138.815V100.05L351.918 88.7919V69.1771H355.002V88.2116H365.912V64.4185L360.457 59.0796H346.463L341.008 64.4185V95.7557L355.12 107.13V134.057H351.8V107.594H341.008V138.815L346.463 144.154H360.457L365.912 138.815Z" fill="black"/>
<path d="M398.407 59.0796H384.413L378.958 64.4185V138.815L384.413 144.154H398.407L403.862 138.815V64.4185L398.407 59.0796ZM392.952 134.057H389.868V69.1771H392.952V134.057Z" fill="black"/>
<path d="M436.356 59.0796H422.363L416.907 64.4185V138.815L422.363 144.154H436.356L441.812 138.815V64.4185L436.356 59.0796ZM430.901 134.057H427.818V69.1771H430.901V134.057Z" fill="black"/>
<path d="M480.236 59.0796H469.325V80.0871L465.767 59.0796H454.857V144.154H465.767V122.682L469.325 144.154H480.236V59.0796Z" fill="black"/>
<rect x="-58" y="38.7562" width="691.4" height="9.45274" fill="#E9C56D"/>
<rect x="-58" y="155.97" width="691.4" height="7.08956" fill="#E9C56D"/>
<rect x="-58" y="26.4677" width="691.4" height="4.72637" fill="#E9C56D"/>
<g clip-path="url(#clip0_870_135)">
<path d="M161.376 163.06H-58V325.174H161.376V163.06Z" fill="white"/>
<path d="M-44.2865 163.06H-58V176.569H-44.2865V163.06Z" fill="#231F20"/>
<path d="M-16.858 163.06H-30.5715V176.569H-16.858V163.06Z" fill="#231F20"/>
<path d="M10.569 163.06H-3.14448V176.569H10.569V163.06Z" fill="#231F20"/>
<path d="M37.9975 163.06H24.284V176.569H37.9975V163.06Z" fill="#231F20"/>
<path d="M65.426 163.06H51.7125V176.569H65.426V163.06Z" fill="#231F20"/>
<path d="M92.8531 163.06H79.1395V176.569H92.8531V163.06Z" fill="#231F20"/>
<path d="M120.282 163.06H106.568V176.569H120.282V163.06Z" fill="#231F20"/>
<path d="M147.71 163.06H133.996V176.569H147.71V163.06Z" fill="#231F20"/>
<path d="M-30.573 176.569H-44.2865V190.078H-30.573V176.569Z" fill="#231F20"/>
<path d="M-3.14448 176.569H-16.858V190.078H-3.14448V176.569Z" fill="#231F20"/>
<path d="M24.284 176.569H10.5705V190.078H24.284V176.569Z" fill="#231F20"/>
<path d="M51.711 176.569H37.9975V190.078H51.711V176.569Z" fill="#231F20"/>
<path d="M79.1395 176.569H65.426V190.078H79.1395V176.569Z" fill="#231F20"/>
<path d="M106.568 176.569H92.8545V190.078H106.568V176.569Z" fill="#231F20"/>
<path d="M133.995 176.569H120.282V190.078H133.995V176.569Z" fill="#231F20"/>
<path d="M161.424 176.569H147.71V190.078H161.424V176.569Z" fill="#231F20"/>
<path d="M-44.2865 190.079H-58V203.588H-44.2865V190.079Z" fill="#231F20"/>
<path d="M-16.858 190.079H-30.5715V203.588H-16.858V190.079Z" fill="#231F20"/>
<path d="M10.569 190.079H-3.14448V203.588H10.569V190.079Z" fill="#231F20"/>
<path d="M37.9975 190.079H24.284V203.588H37.9975V190.079Z" fill="#231F20"/>
<path d="M65.426 190.079H51.7125V203.588H65.426V190.079Z" fill="#231F20"/>
<path d="M92.8531 190.079H79.1395V203.588H92.8531V190.079Z" fill="#231F20"/>
<path d="M120.282 190.079H106.568V203.588H120.282V190.079Z" fill="#231F20"/>
<path d="M147.71 190.079H133.996V203.588H147.71V190.079Z" fill="#231F20"/>
<path d="M-30.573 203.588H-44.2865V217.097H-30.573V203.588Z" fill="#231F20"/>
<path d="M-3.14448 203.588H-16.858V217.097H-3.14448V203.588Z" fill="#231F20"/>
<path d="M24.284 203.588H10.5705V217.097H24.284V203.588Z" fill="#231F20"/>
<path d="M51.711 203.588H37.9975V217.097H51.711V203.588Z" fill="#231F20"/>
<path d="M79.1395 203.588H65.426V217.097H79.1395V203.588Z" fill="#231F20"/>
<path d="M106.568 203.588H92.8545V217.097H106.568V203.588Z" fill="#231F20"/>
<path d="M133.995 203.588H120.282V217.097H133.995V203.588Z" fill="#231F20"/>
<path d="M161.424 203.588H147.71V217.097H161.424V203.588Z" fill="#231F20"/>
<path d="M-44.2865 217.097H-58V230.606H-44.2865V217.097Z" fill="#231F20"/>
<path d="M-16.858 217.097H-30.5715V230.606H-16.858V217.097Z" fill="#231F20"/>
<path d="M10.569 217.097H-3.14448V230.606H10.569V217.097Z" fill="#231F20"/>
<path d="M37.9975 217.097H24.284V230.606H37.9975V217.097Z" fill="#231F20"/>
<path d="M65.426 217.097H51.7125V230.606H65.426V217.097Z" fill="#231F20"/>
<path d="M92.8531 217.097H79.1395V230.606H92.8531V217.097Z" fill="#231F20"/>
<path d="M120.282 217.097H106.568V230.606H120.282V217.097Z" fill="#231F20"/>
<path d="M147.71 217.097H133.996V230.606H147.71V217.097Z" fill="#231F20"/>
<path d="M-30.573 230.608H-44.2865V244.117H-30.573V230.608Z" fill="#231F20"/>
<path d="M-3.14448 230.608H-16.858V244.117H-3.14448V230.608Z" fill="#231F20"/>
<path d="M24.284 230.608H10.5705V244.117H24.284V230.608Z" fill="#231F20"/>
<path d="M51.711 230.608H37.9975V244.117H51.711V230.608Z" fill="#231F20"/>
<path d="M79.1395 230.608H65.426V244.117H79.1395V230.608Z" fill="#231F20"/>
<path d="M106.568 230.608H92.8545V244.117H106.568V230.608Z" fill="#231F20"/>
<path d="M133.995 230.608H120.282V244.117H133.995V230.608Z" fill="#231F20"/>
<path d="M161.424 230.608H147.71V244.117H161.424V230.608Z" fill="#231F20"/>
<path d="M-44.2865 244.117H-58V257.626H-44.2865V244.117Z" fill="#231F20"/>
<path d="M-16.858 244.117H-30.5715V257.626H-16.858V244.117Z" fill="#231F20"/>
<path d="M10.569 244.117H-3.14448V257.626H10.569V244.117Z" fill="#231F20"/>
<path d="M37.9975 244.117H24.284V257.626H37.9975V244.117Z" fill="#231F20"/>
<path d="M65.426 244.117H51.7125V257.626H65.426V244.117Z" fill="#231F20"/>
<path d="M92.8531 244.117H79.1395V257.626H92.8531V244.117Z" fill="#231F20"/>
<path d="M120.282 244.117H106.568V257.626H120.282V244.117Z" fill="#231F20"/>
<path d="M147.71 244.117H133.996V257.626H147.71V244.117Z" fill="#231F20"/>
<path d="M-30.573 257.626H-44.2865V271.135H-30.573V257.626Z" fill="#231F20"/>
<path d="M-3.14448 257.626H-16.858V271.135H-3.14448V257.626Z" fill="#231F20"/>
<path d="M24.284 257.626H10.5705V271.135H24.284V257.626Z" fill="#231F20"/>
<path d="M51.711 257.626H37.9975V271.135H51.711V257.626Z" fill="#231F20"/>
<path d="M79.1395 257.626H65.426V271.135H79.1395V257.626Z" fill="#231F20"/>
<path d="M106.568 257.626H92.8545V271.135H106.568V257.626Z" fill="#231F20"/>
<path d="M133.995 257.626H120.282V271.135H133.995V257.626Z" fill="#231F20"/>
<path d="M161.424 257.626H147.71V271.135H161.424V257.626Z" fill="#231F20"/>
<path d="M-44.2865 271.137H-58V284.646H-44.2865V271.137Z" fill="#231F20"/>
<path d="M-16.858 271.137H-30.5715V284.646H-16.858V271.137Z" fill="#231F20"/>
<path d="M10.569 271.137H-3.14448V284.646H10.569V271.137Z" fill="#231F20"/>
<path d="M37.9975 271.137H24.284V284.646H37.9975V271.137Z" fill="#231F20"/>
<path d="M65.426 271.137H51.7125V284.646H65.426V271.137Z" fill="#231F20"/>
<path d="M92.8531 271.137H79.1395V284.646H92.8531V271.137Z" fill="#231F20"/>
<path d="M120.282 271.137H106.568V284.646H120.282V271.137Z" fill="#231F20"/>
<path d="M147.71 271.137H133.996V284.646H147.71V271.137Z" fill="#231F20"/>
<path d="M-30.573 284.646H-44.2865V298.155H-30.573V284.646Z" fill="#231F20"/>
<path d="M-3.14448 284.646H-16.858V298.155H-3.14448V284.646Z" fill="#231F20"/>
<path d="M24.284 284.646H10.5705V298.155H24.284V284.646Z" fill="#231F20"/>
<path d="M51.711 284.646H37.9975V298.155H51.711V284.646Z" fill="#231F20"/>
<path d="M79.1395 284.646H65.426V298.155H79.1395V284.646Z" fill="#231F20"/>
<path d="M106.568 284.646H92.8545V298.155H106.568V284.646Z" fill="#231F20"/>
<path d="M133.995 284.646H120.282V298.155H133.995V284.646Z" fill="#231F20"/>
<path d="M161.424 284.646H147.71V298.155H161.424V284.646Z" fill="#231F20"/>
<path d="M-44.2865 298.155H-58V311.664H-44.2865V298.155Z" fill="#231F20"/>
<path d="M-16.858 298.155H-30.5715V311.664H-16.858V298.155Z" fill="#231F20"/>
<path d="M10.569 298.155H-3.14448V311.664H10.569V298.155Z" fill="#231F20"/>
<path d="M37.9975 298.155H24.284V311.664H37.9975V298.155Z" fill="#231F20"/>
<path d="M65.426 298.155H51.7125V311.664H65.426V298.155Z" fill="#231F20"/>
<path d="M92.8531 298.155H79.1395V311.664H92.8531V298.155Z" fill="#231F20"/>
<path d="M120.282 298.155H106.568V311.664H120.282V298.155Z" fill="#231F20"/>
<path d="M147.71 298.155H133.996V311.664H147.71V298.155Z" fill="#231F20"/>
<path d="M-30.573 311.665H-44.2865V325.174H-30.573V311.665Z" fill="#231F20"/>
<path d="M-3.14448 311.665H-16.858V325.174H-3.14448V311.665Z" fill="#231F20"/>
<path d="M24.284 311.665H10.5705V325.174H24.284V311.665Z" fill="#231F20"/>
<path d="M51.711 311.665H37.9975V325.174H51.711V311.665Z" fill="#231F20"/>
<path d="M79.1395 311.665H65.426V325.174H79.1395V311.665Z" fill="#231F20"/>
<path d="M106.568 311.665H92.8545V325.174H106.568V311.665Z" fill="#231F20"/>
<path d="M133.995 311.665H120.282V325.174H133.995V311.665Z" fill="#231F20"/>
<path d="M161.424 311.665H147.71V325.174H161.424V311.665Z" fill="#231F20"/>
<path d="M380.8 163.06H161.424V325.174H380.8V163.06Z" fill="white"/>
<path d="M175.137 163.06H161.424V176.569H175.137V163.06Z" fill="#231F20"/>
<path d="M202.566 163.06H188.852V176.569H202.566V163.06Z" fill="#231F20"/>
<path d="M229.993 163.06H216.279V176.569H229.993V163.06Z" fill="#231F20"/>
<path d="M257.421 163.06H243.708V176.569H257.421V163.06Z" fill="#231F20"/>
<path d="M284.85 163.06H271.136V176.569H284.85V163.06Z" fill="#231F20"/>
<path d="M312.277 163.06H298.563V176.569H312.277V163.06Z" fill="#231F20"/>
<path d="M339.705 163.06H325.992V176.569H339.705V163.06Z" fill="#231F20"/>
<path d="M367.134 163.06H353.42V176.569H367.134V163.06Z" fill="#231F20"/>
<path d="M188.851 176.569H175.137V190.078H188.851V176.569Z" fill="#231F20"/>
<path d="M216.279 176.569H202.566V190.078H216.279V176.569Z" fill="#231F20"/>
<path d="M243.708 176.569H229.994V190.078H243.708V176.569Z" fill="#231F20"/>
<path d="M271.135 176.569H257.421V190.078H271.135V176.569Z" fill="#231F20"/>
<path d="M298.563 176.569H284.85V190.078H298.563V176.569Z" fill="#231F20"/>
<path d="M325.992 176.569H312.278V190.078H325.992V176.569Z" fill="#231F20"/>
<path d="M353.419 176.569H339.705V190.078H353.419V176.569Z" fill="#231F20"/>
<path d="M380.847 176.569H367.134V190.078H380.847V176.569Z" fill="#231F20"/>
<path d="M175.137 190.079H161.424V203.588H175.137V190.079Z" fill="#231F20"/>
<path d="M202.566 190.079H188.852V203.588H202.566V190.079Z" fill="#231F20"/>
<path d="M229.993 190.079H216.279V203.588H229.993V190.079Z" fill="#231F20"/>
<path d="M257.421 190.079H243.708V203.588H257.421V190.079Z" fill="#231F20"/>
<path d="M284.85 190.079H271.136V203.588H284.85V190.079Z" fill="#231F20"/>
<path d="M312.277 190.079H298.563V203.588H312.277V190.079Z" fill="#231F20"/>
<path d="M339.705 190.079H325.992V203.588H339.705V190.079Z" fill="#231F20"/>
<path d="M367.134 190.079H353.42V203.588H367.134V190.079Z" fill="#231F20"/>
<path d="M188.851 203.588H175.137V217.097H188.851V203.588Z" fill="#231F20"/>
<path d="M216.279 203.588H202.566V217.097H216.279V203.588Z" fill="#231F20"/>
<path d="M243.708 203.588H229.994V217.097H243.708V203.588Z" fill="#231F20"/>
<path d="M271.135 203.588H257.421V217.097H271.135V203.588Z" fill="#231F20"/>
<path d="M298.563 203.588H284.85V217.097H298.563V203.588Z" fill="#231F20"/>
<path d="M325.992 203.588H312.278V217.097H325.992V203.588Z" fill="#231F20"/>
<path d="M353.419 203.588H339.705V217.097H353.419V203.588Z" fill="#231F20"/>
<path d="M380.847 203.588H367.134V217.097H380.847V203.588Z" fill="#231F20"/>
<path d="M175.137 217.097H161.424V230.606H175.137V217.097Z" fill="#231F20"/>
<path d="M202.566 217.097H188.852V230.606H202.566V217.097Z" fill="#231F20"/>
<path d="M229.993 217.097H216.279V230.606H229.993V217.097Z" fill="#231F20"/>
<path d="M257.421 217.097H243.708V230.606H257.421V217.097Z" fill="#231F20"/>
<path d="M284.85 217.097H271.136V230.606H284.85V217.097Z" fill="#231F20"/>
<path d="M312.277 217.097H298.563V230.606H312.277V217.097Z" fill="#231F20"/>
<path d="M339.705 217.097H325.992V230.606H339.705V217.097Z" fill="#231F20"/>
<path d="M367.134 217.097H353.42V230.606H367.134V217.097Z" fill="#231F20"/>
<path d="M188.851 230.608H175.137V244.117H188.851V230.608Z" fill="#231F20"/>
<path d="M216.279 230.608H202.566V244.117H216.279V230.608Z" fill="#231F20"/>
<path d="M243.708 230.608H229.994V244.117H243.708V230.608Z" fill="#231F20"/>
<path d="M271.135 230.608H257.421V244.117H271.135V230.608Z" fill="#231F20"/>
<path d="M298.563 230.608H284.85V244.117H298.563V230.608Z" fill="#231F20"/>
<path d="M325.992 230.608H312.278V244.117H325.992V230.608Z" fill="#231F20"/>
<path d="M353.419 230.608H339.705V244.117H353.419V230.608Z" fill="#231F20"/>
<path d="M380.847 230.608H367.134V244.117H380.847V230.608Z" fill="#231F20"/>
<path d="M175.137 244.117H161.424V257.626H175.137V244.117Z" fill="#231F20"/>
<path d="M202.566 244.117H188.852V257.626H202.566V244.117Z" fill="#231F20"/>
<path d="M229.993 244.117H216.279V257.626H229.993V244.117Z" fill="#231F20"/>
<path d="M257.421 244.117H243.708V257.626H257.421V244.117Z" fill="#231F20"/>
<path d="M284.85 244.117H271.136V257.626H284.85V244.117Z" fill="#231F20"/>
<path d="M312.277 244.117H298.563V257.626H312.277V244.117Z" fill="#231F20"/>
<path d="M339.705 244.117H325.992V257.626H339.705V244.117Z" fill="#231F20"/>
<path d="M367.134 244.117H353.42V257.626H367.134V244.117Z" fill="#231F20"/>
<path d="M188.851 257.626H175.137V271.135H188.851V257.626Z" fill="#231F20"/>
<path d="M216.279 257.626H202.566V271.135H216.279V257.626Z" fill="#231F20"/>
<path d="M243.708 257.626H229.994V271.135H243.708V257.626Z" fill="#231F20"/>
<path d="M271.135 257.626H257.421V271.135H271.135V257.626Z" fill="#231F20"/>
<path d="M298.563 257.626H284.85V271.135H298.563V257.626Z" fill="#231F20"/>
<path d="M325.992 257.626H312.278V271.135H325.992V257.626Z" fill="#231F20"/>
<path d="M353.419 257.626H339.705V271.135H353.419V257.626Z" fill="#231F20"/>
<path d="M380.847 257.626H367.134V271.135H380.847V257.626Z" fill="#231F20"/>
<path d="M175.137 271.137H161.424V284.646H175.137V271.137Z" fill="#231F20"/>
<path d="M202.566 271.137H188.852V284.646H202.566V271.137Z" fill="#231F20"/>
<path d="M229.993 271.137H216.279V284.646H229.993V271.137Z" fill="#231F20"/>
<path d="M257.421 271.137H243.708V284.646H257.421V271.137Z" fill="#231F20"/>
<path d="M284.85 271.137H271.136V284.646H284.85V271.137Z" fill="#231F20"/>
<path d="M312.277 271.137H298.563V284.646H312.277V271.137Z" fill="#231F20"/>
<path d="M339.705 271.137H325.992V284.646H339.705V271.137Z" fill="#231F20"/>
<path d="M367.134 271.137H353.42V284.646H367.134V271.137Z" fill="#231F20"/>
<path d="M188.851 284.646H175.137V298.155H188.851V284.646Z" fill="#231F20"/>
<path d="M216.279 284.646H202.566V298.155H216.279V284.646Z" fill="#231F20"/>
<path d="M243.708 284.646H229.994V298.155H243.708V284.646Z" fill="#231F20"/>
<path d="M271.135 284.646H257.421V298.155H271.135V284.646Z" fill="#231F20"/>
<path d="M298.563 284.646H284.85V298.155H298.563V284.646Z" fill="#231F20"/>
<path d="M325.992 284.646H312.278V298.155H325.992V284.646Z" fill="#231F20"/>
<path d="M353.419 284.646H339.705V298.155H353.419V284.646Z" fill="#231F20"/>
<path d="M380.847 284.646H367.134V298.155H380.847V284.646Z" fill="#231F20"/>
<path d="M175.137 298.155H161.424V311.664H175.137V298.155Z" fill="#231F20"/>
<path d="M202.566 298.155H188.852V311.664H202.566V298.155Z" fill="#231F20"/>
<path d="M229.993 298.155H216.279V311.664H229.993V298.155Z" fill="#231F20"/>
<path d="M257.421 298.155H243.708V311.664H257.421V298.155Z" fill="#231F20"/>
<path d="M284.85 298.155H271.136V311.664H284.85V298.155Z" fill="#231F20"/>
<path d="M312.277 298.155H298.563V311.664H312.277V298.155Z" fill="#231F20"/>
<path d="M339.705 298.155H325.992V311.664H339.705V298.155Z" fill="#231F20"/>
<path d="M367.134 298.155H353.42V311.664H367.134V298.155Z" fill="#231F20"/>
<path d="M188.851 311.665H175.137V325.174H188.851V311.665Z" fill="#231F20"/>
<path d="M216.279 311.665H202.566V325.174H216.279V311.665Z" fill="#231F20"/>
<path d="M243.708 311.665H229.994V325.174H243.708V311.665Z" fill="#231F20"/>
<path d="M271.135 311.665H257.421V325.174H271.135V311.665Z" fill="#231F20"/>
<path d="M298.563 311.665H284.85V325.174H298.563V311.665Z" fill="#231F20"/>
<path d="M325.992 311.665H312.278V325.174H325.992V311.665Z" fill="#231F20"/>
<path d="M353.419 311.665H339.705V325.174H353.419V311.665Z" fill="#231F20"/>
<path d="M380.847 311.665H367.134V325.174H380.847V311.665Z" fill="#231F20"/>
<path d="M600.223 163.06H380.847V325.174H600.223V163.06Z" fill="white"/>
<path d="M394.561 163.06H380.847V176.569H394.561V163.06Z" fill="#231F20"/>
<path d="M421.989 163.06H408.276V176.569H421.989V163.06Z" fill="#231F20"/>
<path d="M449.416 163.06H435.703V176.569H449.416V163.06Z" fill="#231F20"/>
<path d="M476.845 163.06H463.131V176.569H476.845V163.06Z" fill="#231F20"/>
<path d="M504.273 163.06H490.56V176.569H504.273V163.06Z" fill="#231F20"/>
<path d="M531.7 163.06H517.987V176.569H531.7V163.06Z" fill="#231F20"/>
<path d="M559.129 163.06H545.415V176.569H559.129V163.06Z" fill="#231F20"/>
<path d="M586.557 163.06H572.844V176.569H586.557V163.06Z" fill="#231F20"/>
<path d="M408.274 176.569H394.561V190.078H408.274V176.569Z" fill="#231F20"/>
<path d="M435.703 176.569H421.989V190.078H435.703V176.569Z" fill="#231F20"/>
<path d="M463.131 176.569H449.418V190.078H463.131V176.569Z" fill="#231F20"/>
<path d="M490.558 176.569H476.845V190.078H490.558V176.569Z" fill="#231F20"/>
<path d="M517.987 176.569H504.273V190.078H517.987V176.569Z" fill="#231F20"/>
<path d="M545.415 176.569H531.702V190.078H545.415V176.569Z" fill="#231F20"/>
<path d="M572.842 176.569H559.129V190.078H572.842V176.569Z" fill="#231F20"/>
<path d="M600.271 176.569H586.557V190.078H600.271V176.569Z" fill="#231F20"/>
<path d="M394.561 190.079H380.847V203.588H394.561V190.079Z" fill="#231F20"/>
<path d="M421.989 190.079H408.276V203.588H421.989V190.079Z" fill="#231F20"/>
<path d="M449.416 190.079H435.703V203.588H449.416V190.079Z" fill="#231F20"/>
<path d="M476.845 190.079H463.131V203.588H476.845V190.079Z" fill="#231F20"/>
<path d="M504.273 190.079H490.56V203.588H504.273V190.079Z" fill="#231F20"/>
<path d="M531.7 190.079H517.987V203.588H531.7V190.079Z" fill="#231F20"/>
<path d="M559.129 190.079H545.415V203.588H559.129V190.079Z" fill="#231F20"/>
<path d="M586.557 190.079H572.844V203.588H586.557V190.079Z" fill="#231F20"/>
<path d="M408.274 203.588H394.561V217.097H408.274V203.588Z" fill="#231F20"/>
<path d="M435.703 203.588H421.989V217.097H435.703V203.588Z" fill="#231F20"/>
<path d="M463.131 203.588H449.418V217.097H463.131V203.588Z" fill="#231F20"/>
<path d="M490.558 203.588H476.845V217.097H490.558V203.588Z" fill="#231F20"/>
<path d="M517.987 203.588H504.273V217.097H517.987V203.588Z" fill="#231F20"/>
<path d="M545.415 203.588H531.702V217.097H545.415V203.588Z" fill="#231F20"/>
<path d="M572.842 203.588H559.129V217.097H572.842V203.588Z" fill="#231F20"/>
<path d="M600.271 203.588H586.557V217.097H600.271V203.588Z" fill="#231F20"/>
<path d="M394.561 217.097H380.847V230.606H394.561V217.097Z" fill="#231F20"/>
<path d="M421.989 217.097H408.276V230.606H421.989V217.097Z" fill="#231F20"/>
<path d="M449.416 217.097H435.703V230.606H449.416V217.097Z" fill="#231F20"/>
<path d="M476.845 217.097H463.131V230.606H476.845V217.097Z" fill="#231F20"/>
<path d="M504.273 217.097H490.56V230.606H504.273V217.097Z" fill="#231F20"/>
<path d="M531.7 217.097H517.987V230.606H531.7V217.097Z" fill="#231F20"/>
<path d="M559.129 217.097H545.415V230.606H559.129V217.097Z" fill="#231F20"/>
<path d="M586.557 217.097H572.844V230.606H586.557V217.097Z" fill="#231F20"/>
<path d="M408.274 230.608H394.561V244.117H408.274V230.608Z" fill="#231F20"/>
<path d="M435.703 230.608H421.989V244.117H435.703V230.608Z" fill="#231F20"/>
<path d="M463.131 230.608H449.418V244.117H463.131V230.608Z" fill="#231F20"/>
<path d="M490.558 230.608H476.845V244.117H490.558V230.608Z" fill="#231F20"/>
<path d="M517.987 230.608H504.273V244.117H517.987V230.608Z" fill="#231F20"/>
<path d="M545.415 230.608H531.702V244.117H545.415V230.608Z" fill="#231F20"/>
<path d="M572.842 230.608H559.129V244.117H572.842V230.608Z" fill="#231F20"/>
<path d="M600.271 230.608H586.557V244.117H600.271V230.608Z" fill="#231F20"/>
<path d="M394.561 244.117H380.847V257.626H394.561V244.117Z" fill="#231F20"/>
<path d="M421.989 244.117H408.276V257.626H421.989V244.117Z" fill="#231F20"/>
<path d="M449.416 244.117H435.703V257.626H449.416V244.117Z" fill="#231F20"/>
<path d="M476.845 244.117H463.131V257.626H476.845V244.117Z" fill="#231F20"/>
<path d="M504.273 244.117H490.56V257.626H504.273V244.117Z" fill="#231F20"/>
<path d="M531.7 244.117H517.987V257.626H531.7V244.117Z" fill="#231F20"/>
<path d="M559.129 244.117H545.415V257.626H559.129V244.117Z" fill="#231F20"/>
<path d="M586.557 244.117H572.844V257.626H586.557V244.117Z" fill="#231F20"/>
<path d="M408.274 257.626H394.561V271.135H408.274V257.626Z" fill="#231F20"/>
<path d="M435.703 257.626H421.989V271.135H435.703V257.626Z" fill="#231F20"/>
<path d="M463.131 257.626H449.418V271.135H463.131V257.626Z" fill="#231F20"/>
<path d="M490.558 257.626H476.845V271.135H490.558V257.626Z" fill="#231F20"/>
<path d="M517.987 257.626H504.273V271.135H517.987V257.626Z" fill="#231F20"/>
<path d="M545.415 257.626H531.702V271.135H545.415V257.626Z" fill="#231F20"/>
<path d="M572.842 257.626H559.129V271.135H572.842V257.626Z" fill="#231F20"/>
<path d="M600.271 257.626H586.557V271.135H600.271V257.626Z" fill="#231F20"/>
<path d="M394.561 271.137H380.847V284.646H394.561V271.137Z" fill="#231F20"/>
<path d="M421.989 271.137H408.276V284.646H421.989V271.137Z" fill="#231F20"/>
<path d="M449.416 271.137H435.703V284.646H449.416V271.137Z" fill="#231F20"/>
<path d="M476.845 271.137H463.131V284.646H476.845V271.137Z" fill="#231F20"/>
<path d="M504.273 271.137H490.56V284.646H504.273V271.137Z" fill="#231F20"/>
<path d="M531.7 271.137H517.987V284.646H531.7V271.137Z" fill="#231F20"/>
<path d="M559.129 271.137H545.415V284.646H559.129V271.137Z" fill="#231F20"/>
<path d="M586.557 271.137H572.844V284.646H586.557V271.137Z" fill="#231F20"/>
<path d="M408.274 284.646H394.561V298.155H408.274V284.646Z" fill="#231F20"/>
<path d="M435.703 284.646H421.989V298.155H435.703V284.646Z" fill="#231F20"/>
<path d="M463.131 284.646H449.418V298.155H463.131V284.646Z" fill="#231F20"/>
<path d="M490.558 284.646H476.845V298.155H490.558V284.646Z" fill="#231F20"/>
<path d="M517.987 284.646H504.273V298.155H517.987V284.646Z" fill="#231F20"/>
<path d="M545.415 284.646H531.702V298.155H545.415V284.646Z" fill="#231F20"/>
<path d="M572.842 284.646H559.129V298.155H572.842V284.646Z" fill="#231F20"/>
<path d="M600.271 284.646H586.557V298.155H600.271V284.646Z" fill="#231F20"/>
<path d="M394.561 298.155H380.847V311.664H394.561V298.155Z" fill="#231F20"/>
<path d="M421.989 298.155H408.276V311.664H421.989V298.155Z" fill="#231F20"/>
<path d="M449.416 298.155H435.703V311.664H449.416V298.155Z" fill="#231F20"/>
<path d="M476.845 298.155H463.131V311.664H476.845V298.155Z" fill="#231F20"/>
<path d="M504.273 298.155H490.56V311.664H504.273V298.155Z" fill="#231F20"/>
<path d="M531.7 298.155H517.987V311.664H531.7V298.155Z" fill="#231F20"/>
<path d="M559.129 298.155H545.415V311.664H559.129V298.155Z" fill="#231F20"/>
<path d="M586.557 298.155H572.844V311.664H586.557V298.155Z" fill="#231F20"/>
<path d="M408.274 311.665H394.561V325.174H408.274V311.665Z" fill="#231F20"/>
<path d="M435.703 311.665H421.989V325.174H435.703V311.665Z" fill="#231F20"/>
<path d="M463.131 311.665H449.418V325.174H463.131V311.665Z" fill="#231F20"/>
<path d="M490.558 311.665H476.845V325.174H490.558V311.665Z" fill="#231F20"/>
<path d="M517.987 311.665H504.273V325.174H517.987V311.665Z" fill="#231F20"/>
<path d="M545.415 311.665H531.702V325.174H545.415V311.665Z" fill="#231F20"/>
<path d="M572.842 311.665H559.129V325.174H572.842V311.665Z" fill="#231F20"/>
<path d="M600.271 311.665H586.557V325.174H600.271V311.665Z" fill="#231F20"/>
<path d="M819.167 163.06H599.79V325.174H819.167V163.06Z" fill="white"/>
<path d="M613.504 163.06H599.79V176.569H613.504V163.06Z" fill="#231F20"/>
<path d="M640.932 163.06H627.219V176.569H640.932V163.06Z" fill="#231F20"/>
<path d="M668.359 163.06H654.646V176.569H668.359V163.06Z" fill="#231F20"/>
<path d="M695.788 163.06H682.074V176.569H695.788V163.06Z" fill="#231F20"/>
<path d="M723.216 163.06H709.503V176.569H723.216V163.06Z" fill="#231F20"/>
<path d="M750.643 163.06H736.93V176.569H750.643V163.06Z" fill="#231F20"/>
<path d="M778.072 163.06H764.358V176.569H778.072V163.06Z" fill="#231F20"/>
<path d="M805.5 163.06H791.787V176.569H805.5V163.06Z" fill="#231F20"/>
<path d="M627.218 176.569H613.504V190.078H627.218V176.569Z" fill="#231F20"/>
<path d="M654.646 176.569H640.932V190.078H654.646V176.569Z" fill="#231F20"/>
<path d="M682.074 176.569H668.361V190.078H682.074V176.569Z" fill="#231F20"/>
<path d="M709.502 176.569H695.788V190.078H709.502V176.569Z" fill="#231F20"/>
<path d="M736.93 176.569H723.216V190.078H736.93V176.569Z" fill="#231F20"/>
<path d="M764.358 176.569H750.645V190.078H764.358V176.569Z" fill="#231F20"/>
<path d="M791.786 176.569H778.072V190.078H791.786V176.569Z" fill="#231F20"/>
<path d="M819.214 176.569H805.5V190.078H819.214V176.569Z" fill="#231F20"/>
<path d="M613.504 190.079H599.79V203.588H613.504V190.079Z" fill="#231F20"/>
<path d="M640.932 190.079H627.219V203.588H640.932V190.079Z" fill="#231F20"/>
<path d="M668.359 190.079H654.646V203.588H668.359V190.079Z" fill="#231F20"/>
<path d="M695.788 190.079H682.074V203.588H695.788V190.079Z" fill="#231F20"/>
<path d="M723.216 190.079H709.503V203.588H723.216V190.079Z" fill="#231F20"/>
<path d="M750.643 190.079H736.93V203.588H750.643V190.079Z" fill="#231F20"/>
<path d="M778.072 190.079H764.358V203.588H778.072V190.079Z" fill="#231F20"/>
<path d="M805.5 190.079H791.787V203.588H805.5V190.079Z" fill="#231F20"/>
<path d="M627.218 203.588H613.504V217.097H627.218V203.588Z" fill="#231F20"/>
<path d="M654.646 203.588H640.932V217.097H654.646V203.588Z" fill="#231F20"/>
<path d="M682.074 203.588H668.361V217.097H682.074V203.588Z" fill="#231F20"/>
<path d="M709.502 203.588H695.788V217.097H709.502V203.588Z" fill="#231F20"/>
<path d="M736.93 203.588H723.216V217.097H736.93V203.588Z" fill="#231F20"/>
<path d="M764.358 203.588H750.645V217.097H764.358V203.588Z" fill="#231F20"/>
<path d="M791.786 203.588H778.072V217.097H791.786V203.588Z" fill="#231F20"/>
<path d="M819.214 203.588H805.5V217.097H819.214V203.588Z" fill="#231F20"/>
<path d="M613.504 217.097H599.79V230.606H613.504V217.097Z" fill="#231F20"/>
<path d="M640.932 217.097H627.219V230.606H640.932V217.097Z" fill="#231F20"/>
<path d="M668.359 217.097H654.646V230.606H668.359V217.097Z" fill="#231F20"/>
<path d="M695.788 217.097H682.074V230.606H695.788V217.097Z" fill="#231F20"/>
<path d="M723.216 217.097H709.503V230.606H723.216V217.097Z" fill="#231F20"/>
<path d="M750.643 217.097H736.93V230.606H750.643V217.097Z" fill="#231F20"/>
<path d="M778.072 217.097H764.358V230.606H778.072V217.097Z" fill="#231F20"/>
<path d="M805.5 217.097H791.787V230.606H805.5V217.097Z" fill="#231F20"/>
<path d="M627.218 230.608H613.504V244.117H627.218V230.608Z" fill="#231F20"/>
<path d="M654.646 230.608H640.932V244.117H654.646V230.608Z" fill="#231F20"/>
<path d="M682.074 230.608H668.361V244.117H682.074V230.608Z" fill="#231F20"/>
<path d="M709.502 230.608H695.788V244.117H709.502V230.608Z" fill="#231F20"/>
<path d="M736.93 230.608H723.216V244.117H736.93V230.608Z" fill="#231F20"/>
<path d="M764.358 230.608H750.645V244.117H764.358V230.608Z" fill="#231F20"/>
<path d="M791.786 230.608H778.072V244.117H791.786V230.608Z" fill="#231F20"/>
<path d="M819.214 230.608H805.5V244.117H819.214V230.608Z" fill="#231F20"/>
<path d="M613.504 244.117H599.79V257.626H613.504V244.117Z" fill="#231F20"/>
<path d="M640.932 244.117H627.219V257.626H640.932V244.117Z" fill="#231F20"/>
<path d="M668.359 244.117H654.646V257.626H668.359V244.117Z" fill="#231F20"/>
<path d="M695.788 244.117H682.074V257.626H695.788V244.117Z" fill="#231F20"/>
<path d="M723.216 244.117H709.503V257.626H723.216V244.117Z" fill="#231F20"/>
<path d="M750.643 244.117H736.93V257.626H750.643V244.117Z" fill="#231F20"/>
<path d="M778.072 244.117H764.358V257.626H778.072V244.117Z" fill="#231F20"/>
<path d="M805.5 244.117H791.787V257.626H805.5V244.117Z" fill="#231F20"/>
<path d="M627.218 257.626H613.504V271.135H627.218V257.626Z" fill="#231F20"/>
<path d="M654.646 257.626H640.932V271.135H654.646V257.626Z" fill="#231F20"/>
<path d="M682.074 257.626H668.361V271.135H682.074V257.626Z" fill="#231F20"/>
<path d="M709.502 257.626H695.788V271.135H709.502V257.626Z" fill="#231F20"/>
<path d="M736.93 257.626H723.216V271.135H736.93V257.626Z" fill="#231F20"/>
<path d="M764.358 257.626H750.645V271.135H764.358V257.626Z" fill="#231F20"/>
<path d="M791.786 257.626H778.072V271.135H791.786V257.626Z" fill="#231F20"/>
<path d="M819.214 257.626H805.5V271.135H819.214V257.626Z" fill="#231F20"/>
<path d="M613.504 271.137H599.79V284.646H613.504V271.137Z" fill="#231F20"/>
<path d="M640.932 271.137H627.219V284.646H640.932V271.137Z" fill="#231F20"/>
<path d="M668.359 271.137H654.646V284.646H668.359V271.137Z" fill="#231F20"/>
<path d="M695.788 271.137H682.074V284.646H695.788V271.137Z" fill="#231F20"/>
<path d="M723.216 271.137H709.503V284.646H723.216V271.137Z" fill="#231F20"/>
<path d="M750.643 271.137H736.93V284.646H750.643V271.137Z" fill="#231F20"/>
<path d="M778.072 271.137H764.358V284.646H778.072V271.137Z" fill="#231F20"/>
<path d="M805.5 271.137H791.787V284.646H805.5V271.137Z" fill="#231F20"/>
<path d="M627.218 284.646H613.504V298.155H627.218V284.646Z" fill="#231F20"/>
<path d="M654.646 284.646H640.932V298.155H654.646V284.646Z" fill="#231F20"/>
<path d="M682.074 284.646H668.361V298.155H682.074V284.646Z" fill="#231F20"/>
<path d="M709.502 284.646H695.788V298.155H709.502V284.646Z" fill="#231F20"/>
<path d="M736.93 284.646H723.216V298.155H736.93V284.646Z" fill="#231F20"/>
<path d="M764.358 284.646H750.645V298.155H764.358V284.646Z" fill="#231F20"/>
<path d="M791.786 284.646H778.072V298.155H791.786V284.646Z" fill="#231F20"/>
<path d="M819.214 284.646H805.5V298.155H819.214V284.646Z" fill="#231F20"/>
<path d="M613.504 298.155H599.79V311.664H613.504V298.155Z" fill="#231F20"/>
<path d="M640.932 298.155H627.219V311.664H640.932V298.155Z" fill="#231F20"/>
<path d="M668.359 298.155H654.646V311.664H668.359V298.155Z" fill="#231F20"/>
<path d="M695.788 298.155H682.074V311.664H695.788V298.155Z" fill="#231F20"/>
<path d="M723.216 298.155H709.503V311.664H723.216V298.155Z" fill="#231F20"/>
<path d="M750.643 298.155H736.93V311.664H750.643V298.155Z" fill="#231F20"/>
<path d="M778.072 298.155H764.358V311.664H778.072V298.155Z" fill="#231F20"/>
<path d="M805.5 298.155H791.787V311.664H805.5V298.155Z" fill="#231F20"/>
<path d="M627.218 311.665H613.504V325.174H627.218V311.665Z" fill="#231F20"/>
<path d="M654.646 311.665H640.932V325.174H654.646V311.665Z" fill="#231F20"/>
<path d="M682.074 311.665H668.361V325.174H682.074V311.665Z" fill="#231F20"/>
<path d="M709.502 311.665H695.788V325.174H709.502V311.665Z" fill="#231F20"/>
<path d="M736.93 311.665H723.216V325.174H736.93V311.665Z" fill="#231F20"/>
<path d="M764.358 311.665H750.645V325.174H764.358V311.665Z" fill="#231F20"/>
<path d="M791.786 311.665H778.072V325.174H791.786V311.665Z" fill="#231F20"/>
<path d="M819.214 311.665H805.5V325.174H819.214V311.665Z" fill="#231F20"/>
</g>
<g clip-path="url(#clip1_870_135)">
<path d="M161.376 0H-58V162.114H161.376V0Z" fill="white"/>
<path d="M-44.2865 0H-58V13.5091H-44.2865V0Z" fill="#231F20"/>
<path d="M-16.858 0H-30.5715V13.5091H-16.858V0Z" fill="#231F20"/>
<path d="M10.569 0H-3.14448V13.5091H10.569V0Z" fill="#231F20"/>
<path d="M37.9975 0H24.284V13.5091H37.9975V0Z" fill="#231F20"/>
<path d="M65.426 0H51.7125V13.5091H65.426V0Z" fill="#231F20"/>
<path d="M92.8531 0H79.1395V13.5091H92.8531V0Z" fill="#231F20"/>
<path d="M120.282 0H106.568V13.5091H120.282V0Z" fill="#231F20"/>
<path d="M147.71 0H133.996V13.5091H147.71V0Z" fill="#231F20"/>
<path d="M-30.573 13.5091H-44.2865V27.0181H-30.573V13.5091Z" fill="#231F20"/>
<path d="M-3.14448 13.5091H-16.858V27.0181H-3.14448V13.5091Z" fill="#231F20"/>
<path d="M24.284 13.5091H10.5705V27.0181H24.284V13.5091Z" fill="#231F20"/>
<path d="M51.711 13.5091H37.9975V27.0181H51.711V13.5091Z" fill="#231F20"/>
<path d="M79.1395 13.5091H65.426V27.0181H79.1395V13.5091Z" fill="#231F20"/>
<path d="M106.568 13.5091H92.8545V27.0181H106.568V13.5091Z" fill="#231F20"/>
<path d="M133.995 13.5091H120.282V27.0181H133.995V13.5091Z" fill="#231F20"/>
<path d="M161.424 13.5091H147.71V27.0181H161.424V13.5091Z" fill="#231F20"/>
<path d="M-44.2865 27.0195H-58V40.5286H-44.2865V27.0195Z" fill="#231F20"/>
<path d="M-16.858 27.0195H-30.5715V40.5286H-16.858V27.0195Z" fill="#231F20"/>
<path d="M10.569 27.0195H-3.14448V40.5286H10.569V27.0195Z" fill="#231F20"/>
<path d="M37.9975 27.0195H24.284V40.5286H37.9975V27.0195Z" fill="#231F20"/>
<path d="M65.426 27.0195H51.7125V40.5286H65.426V27.0195Z" fill="#231F20"/>
<path d="M92.8531 27.0195H79.1395V40.5286H92.8531V27.0195Z" fill="#231F20"/>
<path d="M120.282 27.0195H106.568V40.5286H120.282V27.0195Z" fill="#231F20"/>
<path d="M147.71 27.0195H133.996V40.5286H147.71V27.0195Z" fill="#231F20"/>
<path d="M-30.573 40.5286H-44.2865V54.0377H-30.573V40.5286Z" fill="#231F20"/>
<path d="M-3.14448 40.5286H-16.858V54.0377H-3.14448V40.5286Z" fill="#231F20"/>
<path d="M24.284 40.5286H10.5705V54.0377H24.284V40.5286Z" fill="#231F20"/>
<path d="M51.711 40.5286H37.9975V54.0377H51.711V40.5286Z" fill="#231F20"/>
<path d="M79.1395 40.5286H65.426V54.0377H79.1395V40.5286Z" fill="#231F20"/>
<path d="M106.568 40.5286H92.8545V54.0377H106.568V40.5286Z" fill="#231F20"/>
<path d="M133.995 40.5286H120.282V54.0377H133.995V40.5286Z" fill="#231F20"/>
<path d="M161.424 40.5286H147.71V54.0377H161.424V40.5286Z" fill="#231F20"/>
<path d="M-44.2865 54.0377H-58V67.5467H-44.2865V54.0377Z" fill="#231F20"/>
<path d="M-16.858 54.0377H-30.5715V67.5467H-16.858V54.0377Z" fill="#231F20"/>
<path d="M10.569 54.0377H-3.14448V67.5467H10.569V54.0377Z" fill="#231F20"/>
<path d="M37.9975 54.0377H24.284V67.5467H37.9975V54.0377Z" fill="#231F20"/>
<path d="M65.426 54.0377H51.7125V67.5467H65.426V54.0377Z" fill="#231F20"/>
<path d="M92.8531 54.0377H79.1395V67.5467H92.8531V54.0377Z" fill="#231F20"/>
<path d="M120.282 54.0377H106.568V67.5467H120.282V54.0377Z" fill="#231F20"/>
<path d="M147.71 54.0377H133.996V67.5467H147.71V54.0377Z" fill="#231F20"/>
<path d="M-30.573 67.5482H-44.2865V81.0572H-30.573V67.5482Z" fill="#231F20"/>
<path d="M-3.14448 67.5482H-16.858V81.0572H-3.14448V67.5482Z" fill="#231F20"/>
<path d="M24.284 67.5482H10.5705V81.0572H24.284V67.5482Z" fill="#231F20"/>
<path d="M51.711 67.5482H37.9975V81.0572H51.711V67.5482Z" fill="#231F20"/>
<path d="M79.1395 67.5482H65.426V81.0572H79.1395V67.5482Z" fill="#231F20"/>
<path d="M106.568 67.5482H92.8545V81.0572H106.568V67.5482Z" fill="#231F20"/>
<path d="M133.995 67.5482H120.282V81.0572H133.995V67.5482Z" fill="#231F20"/>
<path d="M161.424 67.5482H147.71V81.0572H161.424V67.5482Z" fill="#231F20"/>
<path d="M-44.2865 81.0572H-58V94.5663H-44.2865V81.0572Z" fill="#231F20"/>
<path d="M-16.858 81.0572H-30.5715V94.5663H-16.858V81.0572Z" fill="#231F20"/>
<path d="M10.569 81.0572H-3.14448V94.5663H10.569V81.0572Z" fill="#231F20"/>
<path d="M37.9975 81.0572H24.284V94.5663H37.9975V81.0572Z" fill="#231F20"/>
<path d="M65.426 81.0572H51.7125V94.5663H65.426V81.0572Z" fill="#231F20"/>
<path d="M92.8531 81.0572H79.1395V94.5663H92.8531V81.0572Z" fill="#231F20"/>
<path d="M120.282 81.0572H106.568V94.5663H120.282V81.0572Z" fill="#231F20"/>
<path d="M147.71 81.0572H133.996V94.5663H147.71V81.0572Z" fill="#231F20"/>
<path d="M-30.573 94.5663H-44.2865V108.075H-30.573V94.5663Z" fill="#231F20"/>
<path d="M-3.14448 94.5663H-16.858V108.075H-3.14448V94.5663Z" fill="#231F20"/>
<path d="M24.284 94.5663H10.5705V108.075H24.284V94.5663Z" fill="#231F20"/>
<path d="M51.711 94.5663H37.9975V108.075H51.711V94.5663Z" fill="#231F20"/>
<path d="M79.1395 94.5663H65.426V108.075H79.1395V94.5663Z" fill="#231F20"/>
<path d="M106.568 94.5663H92.8545V108.075H106.568V94.5663Z" fill="#231F20"/>
<path d="M133.995 94.5663H120.282V108.075H133.995V94.5663Z" fill="#231F20"/>
<path d="M161.424 94.5663H147.71V108.075H161.424V94.5663Z" fill="#231F20"/>
<path d="M-44.2865 108.077H-58V121.586H-44.2865V108.077Z" fill="#231F20"/>
<path d="M-16.858 108.077H-30.5715V121.586H-16.858V108.077Z" fill="#231F20"/>
<path d="M10.569 108.077H-3.14448V121.586H10.569V108.077Z" fill="#231F20"/>
<path d="M37.9975 108.077H24.284V121.586H37.9975V108.077Z" fill="#231F20"/>
<path d="M65.426 108.077H51.7125V121.586H65.426V108.077Z" fill="#231F20"/>
<path d="M92.8531 108.077H79.1395V121.586H92.8531V108.077Z" fill="#231F20"/>
<path d="M120.282 108.077H106.568V121.586H120.282V108.077Z" fill="#231F20"/>
<path d="M147.71 108.077H133.996V121.586H147.71V108.077Z" fill="#231F20"/>
<path d="M-30.573 121.586H-44.2865V135.095H-30.573V121.586Z" fill="#231F20"/>
<path d="M-3.14448 121.586H-16.858V135.095H-3.14448V121.586Z" fill="#231F20"/>
<path d="M24.284 121.586H10.5705V135.095H24.284V121.586Z" fill="#231F20"/>
<path d="M51.711 121.586H37.9975V135.095H51.711V121.586Z" fill="#231F20"/>
<path d="M79.1395 121.586H65.426V135.095H79.1395V121.586Z" fill="#231F20"/>
<path d="M106.568 121.586H92.8545V135.095H106.568V121.586Z" fill="#231F20"/>
<path d="M133.995 121.586H120.282V135.095H133.995V121.586Z" fill="#231F20"/>
<path d="M161.424 121.586H147.71V135.095H161.424V121.586Z" fill="#231F20"/>
<path d="M-44.2865 135.095H-58V148.604H-44.2865V135.095Z" fill="#231F20"/>
<path d="M-16.858 135.095H-30.5715V148.604H-16.858V135.095Z" fill="#231F20"/>
<path d="M10.569 135.095H-3.14448V148.604H10.569V135.095Z" fill="#231F20"/>
<path d="M37.9975 135.095H24.284V148.604H37.9975V135.095Z" fill="#231F20"/>
<path d="M65.426 135.095H51.7125V148.604H65.426V135.095Z" fill="#231F20"/>
<path d="M92.8531 135.095H79.1395V148.604H92.8531V135.095Z" fill="#231F20"/>
<path d="M120.282 135.095H106.568V148.604H120.282V135.095Z" fill="#231F20"/>
<path d="M147.71 135.095H133.996V148.604H147.71V135.095Z" fill="#231F20"/>
<path d="M-30.573 148.605H-44.2865V162.114H-30.573V148.605Z" fill="#231F20"/>
<path d="M-3.14448 148.605H-16.858V162.114H-3.14448V148.605Z" fill="#231F20"/>
<path d="M24.284 148.605H10.5705V162.114H24.284V148.605Z" fill="#231F20"/>
<path d="M51.711 148.605H37.9975V162.114H51.711V148.605Z" fill="#231F20"/>
<path d="M79.1395 148.605H65.426V162.114H79.1395V148.605Z" fill="#231F20"/>
<path d="M106.568 148.605H92.8545V162.114H106.568V148.605Z" fill="#231F20"/>
<path d="M133.995 148.605H120.282V162.114H133.995V148.605Z" fill="#231F20"/>
<path d="M161.424 148.605H147.71V162.114H161.424V148.605Z" fill="#231F20"/>
<path d="M380.8 0H161.424V162.114H380.8V0Z" fill="white"/>
<path d="M175.137 0H161.424V13.5091H175.137V0Z" fill="#231F20"/>
<path d="M202.566 0H188.852V13.5091H202.566V0Z" fill="#231F20"/>
<path d="M229.993 0H216.279V13.5091H229.993V0Z" fill="#231F20"/>
<path d="M257.421 0H243.708V13.5091H257.421V0Z" fill="#231F20"/>
<path d="M284.85 0H271.136V13.5091H284.85V0Z" fill="#231F20"/>
<path d="M312.277 0H298.563V13.5091H312.277V0Z" fill="#231F20"/>
<path d="M339.705 0H325.992V13.5091H339.705V0Z" fill="#231F20"/>
<path d="M367.134 0H353.42V13.5091H367.134V0Z" fill="#231F20"/>
<path d="M188.851 13.5091H175.137V27.0181H188.851V13.5091Z" fill="#231F20"/>
<path d="M216.279 13.5091H202.566V27.0181H216.279V13.5091Z" fill="#231F20"/>
<path d="M243.708 13.5091H229.994V27.0181H243.708V13.5091Z" fill="#231F20"/>
<path d="M271.135 13.5091H257.421V27.0181H271.135V13.5091Z" fill="#231F20"/>
<path d="M298.563 13.5091H284.85V27.0181H298.563V13.5091Z" fill="#231F20"/>
<path d="M325.992 13.5091H312.278V27.0181H325.992V13.5091Z" fill="#231F20"/>
<path d="M353.419 13.5091H339.705V27.0181H353.419V13.5091Z" fill="#231F20"/>
<path d="M380.847 13.5091H367.134V27.0181H380.847V13.5091Z" fill="#231F20"/>
<path d="M175.137 27.0195H161.424V40.5286H175.137V27.0195Z" fill="#231F20"/>
<path d="M202.566 27.0195H188.852V40.5286H202.566V27.0195Z" fill="#231F20"/>
<path d="M229.993 27.0195H216.279V40.5286H229.993V27.0195Z" fill="#231F20"/>
<path d="M257.421 27.0195H243.708V40.5286H257.421V27.0195Z" fill="#231F20"/>
<path d="M284.85 27.0195H271.136V40.5286H284.85V27.0195Z" fill="#231F20"/>
<path d="M312.277 27.0195H298.563V40.5286H312.277V27.0195Z" fill="#231F20"/>
<path d="M339.705 27.0195H325.992V40.5286H339.705V27.0195Z" fill="#231F20"/>
<path d="M367.134 27.0195H353.42V40.5286H367.134V27.0195Z" fill="#231F20"/>
<path d="M188.851 40.5286H175.137V54.0377H188.851V40.5286Z" fill="#231F20"/>
<path d="M216.279 40.5286H202.566V54.0377H216.279V40.5286Z" fill="#231F20"/>
<path d="M243.708 40.5286H229.994V54.0377H243.708V40.5286Z" fill="#231F20"/>
<path d="M271.135 40.5286H257.421V54.0377H271.135V40.5286Z" fill="#231F20"/>
<path d="M298.563 40.5286H284.85V54.0377H298.563V40.5286Z" fill="#231F20"/>
<path d="M325.992 40.5286H312.278V54.0377H325.992V40.5286Z" fill="#231F20"/>
<path d="M353.419 40.5286H339.705V54.0377H353.419V40.5286Z" fill="#231F20"/>
<path d="M380.847 40.5286H367.134V54.0377H380.847V40.5286Z" fill="#231F20"/>
<path d="M175.137 54.0377H161.424V67.5467H175.137V54.0377Z" fill="#231F20"/>
<path d="M202.566 54.0377H188.852V67.5467H202.566V54.0377Z" fill="#231F20"/>
<path d="M229.993 54.0377H216.279V67.5467H229.993V54.0377Z" fill="#231F20"/>
<path d="M257.421 54.0377H243.708V67.5467H257.421V54.0377Z" fill="#231F20"/>
<path d="M284.85 54.0377H271.136V67.5467H284.85V54.0377Z" fill="#231F20"/>
<path d="M312.277 54.0377H298.563V67.5467H312.277V54.0377Z" fill="#231F20"/>
<path d="M339.705 54.0377H325.992V67.5467H339.705V54.0377Z" fill="#231F20"/>
<path d="M367.134 54.0377H353.42V67.5467H367.134V54.0377Z" fill="#231F20"/>
<path d="M188.851 67.5482H175.137V81.0572H188.851V67.5482Z" fill="#231F20"/>
<path d="M216.279 67.5482H202.566V81.0572H216.279V67.5482Z" fill="#231F20"/>
<path d="M243.708 67.5482H229.994V81.0572H243.708V67.5482Z" fill="#231F20"/>
<path d="M271.135 67.5482H257.421V81.0572H271.135V67.5482Z" fill="#231F20"/>
<path d="M298.563 67.5482H284.85V81.0572H298.563V67.5482Z" fill="#231F20"/>
<path d="M325.992 67.5482H312.278V81.0572H325.992V67.5482Z" fill="#231F20"/>
<path d="M353.419 67.5482H339.705V81.0572H353.419V67.5482Z" fill="#231F20"/>
<path d="M380.847 67.5482H367.134V81.0572H380.847V67.5482Z" fill="#231F20"/>
<path d="M175.137 81.0572H161.424V94.5663H175.137V81.0572Z" fill="#231F20"/>
<path d="M202.566 81.0572H188.852V94.5663H202.566V81.0572Z" fill="#231F20"/>
<path d="M229.993 81.0572H216.279V94.5663H229.993V81.0572Z" fill="#231F20"/>
<path d="M257.421 81.0572H243.708V94.5663H257.421V81.0572Z" fill="#231F20"/>
<path d="M284.85 81.0572H271.136V94.5663H284.85V81.0572Z" fill="#231F20"/>
<path d="M312.277 81.0572H298.563V94.5663H312.277V81.0572Z" fill="#231F20"/>
<path d="M339.705 81.0572H325.992V94.5663H339.705V81.0572Z" fill="#231F20"/>
<path d="M367.134 81.0572H353.42V94.5663H367.134V81.0572Z" fill="#231F20"/>
<path d="M188.851 94.5663H175.137V108.075H188.851V94.5663Z" fill="#231F20"/>
<path d="M216.279 94.5663H202.566V108.075H216.279V94.5663Z" fill="#231F20"/>
<path d="M243.708 94.5663H229.994V108.075H243.708V94.5663Z" fill="#231F20"/>
<path d="M271.135 94.5663H257.421V108.075H271.135V94.5663Z" fill="#231F20"/>
<path d="M298.563 94.5663H284.85V108.075H298.563V94.5663Z" fill="#231F20"/>
<path d="M325.992 94.5663H312.278V108.075H325.992V94.5663Z" fill="#231F20"/>
<path d="M353.419 94.5663H339.705V108.075H353.419V94.5663Z" fill="#231F20"/>
<path d="M380.847 94.5663H367.134V108.075H380.847V94.5663Z" fill="#231F20"/>
<path d="M175.137 108.077H161.424V121.586H175.137V108.077Z" fill="#231F20"/>
<path d="M202.566 108.077H188.852V121.586H202.566V108.077Z" fill="#231F20"/>
<path d="M229.993 108.077H216.279V121.586H229.993V108.077Z" fill="#231F20"/>
<path d="M257.421 108.077H243.708V121.586H257.421V108.077Z" fill="#231F20"/>
<path d="M284.85 108.077H271.136V121.586H284.85V108.077Z" fill="#231F20"/>
<path d="M312.277 108.077H298.563V121.586H312.277V108.077Z" fill="#231F20"/>
<path d="M339.705 108.077H325.992V121.586H339.705V108.077Z" fill="#231F20"/>
<path d="M367.134 108.077H353.42V121.586H367.134V108.077Z" fill="#231F20"/>
<path d="M188.851 121.586H175.137V135.095H188.851V121.586Z" fill="#231F20"/>
<path d="M216.279 121.586H202.566V135.095H216.279V121.586Z" fill="#231F20"/>
<path d="M243.708 121.586H229.994V135.095H243.708V121.586Z" fill="#231F20"/>
<path d="M271.135 121.586H257.421V135.095H271.135V121.586Z" fill="#231F20"/>
<path d="M298.563 121.586H284.85V135.095H298.563V121.586Z" fill="#231F20"/>
<path d="M325.992 121.586H312.278V135.095H325.992V121.586Z" fill="#231F20"/>
<path d="M353.419 121.586H339.705V135.095H353.419V121.586Z" fill="#231F20"/>
<path d="M380.847 121.586H367.134V135.095H380.847V121.586Z" fill="#231F20"/>
<path d="M175.137 135.095H161.424V148.604H175.137V135.095Z" fill="#231F20"/>
<path d="M202.566 135.095H188.852V148.604H202.566V135.095Z" fill="#231F20"/>
<path d="M229.993 135.095H216.279V148.604H229.993V135.095Z" fill="#231F20"/>
<path d="M257.421 135.095H243.708V148.604H257.421V135.095Z" fill="#231F20"/>
<path d="M284.85 135.095H271.136V148.604H284.85V135.095Z" fill="#231F20"/>
<path d="M312.277 135.095H298.563V148.604H312.277V135.095Z" fill="#231F20"/>
<path d="M339.705 135.095H325.992V148.604H339.705V135.095Z" fill="#231F20"/>
<path d="M367.134 135.095H353.42V148.604H367.134V135.095Z" fill="#231F20"/>
<path d="M188.851 148.605H175.137V162.114H188.851V148.605Z" fill="#231F20"/>
<path d="M216.279 148.605H202.566V162.114H216.279V148.605Z" fill="#231F20"/>
<path d="M243.708 148.605H229.994V162.114H243.708V148.605Z" fill="#231F20"/>
<path d="M271.135 148.605H257.421V162.114H271.135V148.605Z" fill="#231F20"/>
<path d="M298.563 148.605H284.85V162.114H298.563V148.605Z" fill="#231F20"/>
<path d="M325.992 148.605H312.278V162.114H325.992V148.605Z" fill="#231F20"/>
<path d="M353.419 148.605H339.705V162.114H353.419V148.605Z" fill="#231F20"/>
<path d="M380.847 148.605H367.134V162.114H380.847V148.605Z" fill="#231F20"/>
<path d="M600.223 0H380.847V162.114H600.223V0Z" fill="white"/>
<path d="M394.561 0H380.847V13.5091H394.561V0Z" fill="#231F20"/>
<path d="M421.989 0H408.276V13.5091H421.989V0Z" fill="#231F20"/>
<path d="M449.416 0H435.703V13.5091H449.416V0Z" fill="#231F20"/>
<path d="M476.845 0H463.131V13.5091H476.845V0Z" fill="#231F20"/>
<path d="M504.273 0H490.56V13.5091H504.273V0Z" fill="#231F20"/>
<path d="M531.7 0H517.987V13.5091H531.7V0Z" fill="#231F20"/>
<path d="M559.129 0H545.415V13.5091H559.129V0Z" fill="#231F20"/>
<path d="M586.557 0H572.844V13.5091H586.557V0Z" fill="#231F20"/>
<path d="M408.274 13.5091H394.561V27.0181H408.274V13.5091Z" fill="#231F20"/>
<path d="M435.703 13.5091H421.989V27.0181H435.703V13.5091Z" fill="#231F20"/>
<path d="M463.131 13.5091H449.418V27.0181H463.131V13.5091Z" fill="#231F20"/>
<path d="M490.558 13.5091H476.845V27.0181H490.558V13.5091Z" fill="#231F20"/>
<path d="M517.987 13.5091H504.273V27.0181H517.987V13.5091Z" fill="#231F20"/>
<path d="M545.415 13.5091H531.702V27.0181H545.415V13.5091Z" fill="#231F20"/>
<path d="M572.842 13.5091H559.129V27.0181H572.842V13.5091Z" fill="#231F20"/>
<path d="M600.271 13.5091H586.557V27.0181H600.271V13.5091Z" fill="#231F20"/>
<path d="M394.561 27.0195H380.847V40.5286H394.561V27.0195Z" fill="#231F20"/>
<path d="M421.989 27.0195H408.276V40.5286H421.989V27.0195Z" fill="#231F20"/>
<path d="M449.416 27.0195H435.703V40.5286H449.416V27.0195Z" fill="#231F20"/>
<path d="M476.845 27.0195H463.131V40.5286H476.845V27.0195Z" fill="#231F20"/>
<path d="M504.273 27.0195H490.56V40.5286H504.273V27.0195Z" fill="#231F20"/>
<path d="M531.7 27.0195H517.987V40.5286H531.7V27.0195Z" fill="#231F20"/>
<path d="M559.129 27.0195H545.415V40.5286H559.129V27.0195Z" fill="#231F20"/>
<path d="M586.557 27.0195H572.844V40.5286H586.557V27.0195Z" fill="#231F20"/>
<path d="M408.274 40.5286H394.561V54.0377H408.274V40.5286Z" fill="#231F20"/>
<path d="M435.703 40.5286H421.989V54.0377H435.703V40.5286Z" fill="#231F20"/>
<path d="M463.131 40.5286H449.418V54.0377H463.131V40.5286Z" fill="#231F20"/>
<path d="M490.558 40.5286H476.845V54.0377H490.558V40.5286Z" fill="#231F20"/>
<path d="M517.987 40.5286H504.273V54.0377H517.987V40.5286Z" fill="#231F20"/>
<path d="M545.415 40.5286H531.702V54.0377H545.415V40.5286Z" fill="#231F20"/>
<path d="M572.842 40.5286H559.129V54.0377H572.842V40.5286Z" fill="#231F20"/>
<path d="M600.271 40.5286H586.557V54.0377H600.271V40.5286Z" fill="#231F20"/>
<path d="M394.561 54.0377H380.847V67.5467H394.561V54.0377Z" fill="#231F20"/>
<path d="M421.989 54.0377H408.276V67.5467H421.989V54.0377Z" fill="#231F20"/>
<path d="M449.416 54.0377H435.703V67.5467H449.416V54.0377Z" fill="#231F20"/>
<path d="M476.845 54.0377H463.131V67.5467H476.845V54.0377Z" fill="#231F20"/>
<path d="M504.273 54.0377H490.56V67.5467H504.273V54.0377Z" fill="#231F20"/>
<path d="M531.7 54.0377H517.987V67.5467H531.7V54.0377Z" fill="#231F20"/>
<path d="M559.129 54.0377H545.415V67.5467H559.129V54.0377Z" fill="#231F20"/>
<path d="M586.557 54.0377H572.844V67.5467H586.557V54.0377Z" fill="#231F20"/>
<path d="M408.274 67.5482H394.561V81.0572H408.274V67.5482Z" fill="#231F20"/>
<path d="M435.703 67.5482H421.989V81.0572H435.703V67.5482Z" fill="#231F20"/>
<path d="M463.131 67.5482H449.418V81.0572H463.131V67.5482Z" fill="#231F20"/>
<path d="M490.558 67.5482H476.845V81.0572H490.558V67.5482Z" fill="#231F20"/>
<path d="M517.987 67.5482H504.273V81.0572H517.987V67.5482Z" fill="#231F20"/>
<path d="M545.415 67.5482H531.702V81.0572H545.415V67.5482Z" fill="#231F20"/>
<path d="M572.842 67.5482H559.129V81.0572H572.842V67.5482Z" fill="#231F20"/>
<path d="M600.271 67.5482H586.557V81.0572H600.271V67.5482Z" fill="#231F20"/>
<path d="M394.561 81.0572H380.847V94.5663H394.561V81.0572Z" fill="#231F20"/>
<path d="M421.989 81.0572H408.276V94.5663H421.989V81.0572Z" fill="#231F20"/>
<path d="M449.416 81.0572H435.703V94.5663H449.416V81.0572Z" fill="#231F20"/>
<path d="M476.845 81.0572H463.131V94.5663H476.845V81.0572Z" fill="#231F20"/>
<path d="M504.273 81.0572H490.56V94.5663H504.273V81.0572Z" fill="#231F20"/>
<path d="M531.7 81.0572H517.987V94.5663H531.7V81.0572Z" fill="#231F20"/>
<path d="M559.129 81.0572H545.415V94.5663H559.129V81.0572Z" fill="#231F20"/>
<path d="M586.557 81.0572H572.844V94.5663H586.557V81.0572Z" fill="#231F20"/>
<path d="M408.274 94.5663H394.561V108.075H408.274V94.5663Z" fill="#231F20"/>
<path d="M435.703 94.5663H421.989V108.075H435.703V94.5663Z" fill="#231F20"/>
<path d="M463.131 94.5663H449.418V108.075H463.131V94.5663Z" fill="#231F20"/>
<path d="M490.558 94.5663H476.845V108.075H490.558V94.5663Z" fill="#231F20"/>
<path d="M517.987 94.5663H504.273V108.075H517.987V94.5663Z" fill="#231F20"/>
<path d="M545.415 94.5663H531.702V108.075H545.415V94.5663Z" fill="#231F20"/>
<path d="M572.842 94.5663H559.129V108.075H572.842V94.5663Z" fill="#231F20"/>
<path d="M600.271 94.5663H586.557V108.075H600.271V94.5663Z" fill="#231F20"/>
<path d="M394.561 108.077H380.847V121.586H394.561V108.077Z" fill="#231F20"/>
<path d="M421.989 108.077H408.276V121.586H421.989V108.077Z" fill="#231F20"/>
<path d="M449.416 108.077H435.703V121.586H449.416V108.077Z" fill="#231F20"/>
<path d="M476.845 108.077H463.131V121.586H476.845V108.077Z" fill="#231F20"/>
<path d="M504.273 108.077H490.56V121.586H504.273V108.077Z" fill="#231F20"/>
<path d="M531.7 108.077H517.987V121.586H531.7V108.077Z" fill="#231F20"/>
<path d="M559.129 108.077H545.415V121.586H559.129V108.077Z" fill="#231F20"/>
<path d="M586.557 108.077H572.844V121.586H586.557V108.077Z" fill="#231F20"/>
<path d="M408.274 121.586H394.561V135.095H408.274V121.586Z" fill="#231F20"/>
<path d="M435.703 121.586H421.989V135.095H435.703V121.586Z" fill="#231F20"/>
<path d="M463.131 121.586H449.418V135.095H463.131V121.586Z" fill="#231F20"/>
<path d="M490.558 121.586H476.845V135.095H490.558V121.586Z" fill="#231F20"/>
<path d="M517.987 121.586H504.273V135.095H517.987V121.586Z" fill="#231F20"/>
<path d="M545.415 121.586H531.702V135.095H545.415V121.586Z" fill="#231F20"/>
<path d="M572.842 121.586H559.129V135.095H572.842V121.586Z" fill="#231F20"/>
<path d="M600.271 121.586H586.557V135.095H600.271V121.586Z" fill="#231F20"/>
<path d="M394.561 135.095H380.847V148.604H394.561V135.095Z" fill="#231F20"/>
<path d="M421.989 135.095H408.276V148.604H421.989V135.095Z" fill="#231F20"/>
<path d="M449.416 135.095H435.703V148.604H449.416V135.095Z" fill="#231F20"/>
<path d="M476.845 135.095H463.131V148.604H476.845V135.095Z" fill="#231F20"/>
<path d="M504.273 135.095H490.56V148.604H504.273V135.095Z" fill="#231F20"/>
<path d="M531.7 135.095H517.987V148.604H531.7V135.095Z" fill="#231F20"/>
<path d="M559.129 135.095H545.415V148.604H559.129V135.095Z" fill="#231F20"/>
<path d="M586.557 135.095H572.844V148.604H586.557V135.095Z" fill="#231F20"/>
<path d="M408.274 148.605H394.561V162.114H408.274V148.605Z" fill="#231F20"/>
<path d="M435.703 148.605H421.989V162.114H435.703V148.605Z" fill="#231F20"/>
<path d="M463.131 148.605H449.418V162.114H463.131V148.605Z" fill="#231F20"/>
<path d="M490.558 148.605H476.845V162.114H490.558V148.605Z" fill="#231F20"/>
<path d="M517.987 148.605H504.273V162.114H517.987V148.605Z" fill="#231F20"/>
<path d="M545.415 148.605H531.702V162.114H545.415V148.605Z" fill="#231F20"/>
<path d="M572.842 148.605H559.129V162.114H572.842V148.605Z" fill="#231F20"/>
<path d="M600.271 148.605H586.557V162.114H600.271V148.605Z" fill="#231F20"/>
<path d="M819.167 0H599.79V162.114H819.167V0Z" fill="white"/>
<path d="M613.504 0H599.79V13.5091H613.504V0Z" fill="#231F20"/>
<path d="M640.932 0H627.219V13.5091H640.932V0Z" fill="#231F20"/>
<path d="M668.359 0H654.646V13.5091H668.359V0Z" fill="#231F20"/>
<path d="M695.788 0H682.074V13.5091H695.788V0Z" fill="#231F20"/>
<path d="M723.216 0H709.503V13.5091H723.216V0Z" fill="#231F20"/>
<path d="M750.643 0H736.93V13.5091H750.643V0Z" fill="#231F20"/>
<path d="M778.072 0H764.358V13.5091H778.072V0Z" fill="#231F20"/>
<path d="M805.5 0H791.787V13.5091H805.5V0Z" fill="#231F20"/>
<path d="M627.218 13.5091H613.504V27.0181H627.218V13.5091Z" fill="#231F20"/>
<path d="M654.646 13.5091H640.932V27.0181H654.646V13.5091Z" fill="#231F20"/>
<path d="M682.074 13.5091H668.361V27.0181H682.074V13.5091Z" fill="#231F20"/>
<path d="M709.502 13.5091H695.788V27.0181H709.502V13.5091Z" fill="#231F20"/>
<path d="M736.93 13.5091H723.216V27.0181H736.93V13.5091Z" fill="#231F20"/>
<path d="M764.358 13.5091H750.645V27.0181H764.358V13.5091Z" fill="#231F20"/>
<path d="M791.786 13.5091H778.072V27.0181H791.786V13.5091Z" fill="#231F20"/>
<path d="M819.214 13.5091H805.5V27.0181H819.214V13.5091Z" fill="#231F20"/>
<path d="M613.504 27.0195H599.79V40.5286H613.504V27.0195Z" fill="#231F20"/>
<path d="M640.932 27.0195H627.219V40.5286H640.932V27.0195Z" fill="#231F20"/>
<path d="M668.359 27.0195H654.646V40.5286H668.359V27.0195Z" fill="#231F20"/>
<path d="M695.788 27.0195H682.074V40.5286H695.788V27.0195Z" fill="#231F20"/>
<path d="M723.216 27.0195H709.503V40.5286H723.216V27.0195Z" fill="#231F20"/>
<path d="M750.643 27.0195H736.93V40.5286H750.643V27.0195Z" fill="#231F20"/>
<path d="M778.072 27.0195H764.358V40.5286H778.072V27.0195Z" fill="#231F20"/>
<path d="M805.5 27.0195H791.787V40.5286H805.5V27.0195Z" fill="#231F20"/>
<path d="M627.218 40.5286H613.504V54.0377H627.218V40.5286Z" fill="#231F20"/>
<path d="M654.646 40.5286H640.932V54.0377H654.646V40.5286Z" fill="#231F20"/>
<path d="M682.074 40.5286H668.361V54.0377H682.074V40.5286Z" fill="#231F20"/>
<path d="M709.502 40.5286H695.788V54.0377H709.502V40.5286Z" fill="#231F20"/>
<path d="M736.93 40.5286H723.216V54.0377H736.93V40.5286Z" fill="#231F20"/>
<path d="M764.358 40.5286H750.645V54.0377H764.358V40.5286Z" fill="#231F20"/>
<path d="M791.786 40.5286H778.072V54.0377H791.786V40.5286Z" fill="#231F20"/>
<path d="M819.214 40.5286H805.5V54.0377H819.214V40.5286Z" fill="#231F20"/>
<path d="M613.504 54.0377H599.79V67.5467H613.504V54.0377Z" fill="#231F20"/>
<path d="M640.932 54.0377H627.219V67.5467H640.932V54.0377Z" fill="#231F20"/>
<path d="M668.359 54.0377H654.646V67.5467H668.359V54.0377Z" fill="#231F20"/>
<path d="M695.788 54.0377H682.074V67.5467H695.788V54.0377Z" fill="#231F20"/>
<path d="M723.216 54.0377H709.503V67.5467H723.216V54.0377Z" fill="#231F20"/>
<path d="M750.643 54.0377H736.93V67.5467H750.643V54.0377Z" fill="#231F20"/>
<path d="M778.072 54.0377H764.358V67.5467H778.072V54.0377Z" fill="#231F20"/>
<path d="M805.5 54.0377H791.787V67.5467H805.5V54.0377Z" fill="#231F20"/>
<path d="M627.218 67.5482H613.504V81.0572H627.218V67.5482Z" fill="#231F20"/>
<path d="M654.646 67.5482H640.932V81.0572H654.646V67.5482Z" fill="#231F20"/>
<path d="M682.074 67.5482H668.361V81.0572H682.074V67.5482Z" fill="#231F20"/>
<path d="M709.502 67.5482H695.788V81.0572H709.502V67.5482Z" fill="#231F20"/>
<path d="M736.93 67.5482H723.216V81.0572H736.93V67.5482Z" fill="#231F20"/>
<path d="M764.358 67.5482H750.645V81.0572H764.358V67.5482Z" fill="#231F20"/>
<path d="M791.786 67.5482H778.072V81.0572H791.786V67.5482Z" fill="#231F20"/>
<path d="M819.214 67.5482H805.5V81.0572H819.214V67.5482Z" fill="#231F20"/>
<path d="M613.504 81.0572H599.79V94.5663H613.504V81.0572Z" fill="#231F20"/>
<path d="M640.932 81.0572H627.219V94.5663H640.932V81.0572Z" fill="#231F20"/>
<path d="M668.359 81.0572H654.646V94.5663H668.359V81.0572Z" fill="#231F20"/>
<path d="M695.788 81.0572H682.074V94.5663H695.788V81.0572Z" fill="#231F20"/>
<path d="M723.216 81.0572H709.503V94.5663H723.216V81.0572Z" fill="#231F20"/>
<path d="M750.643 81.0572H736.93V94.5663H750.643V81.0572Z" fill="#231F20"/>
<path d="M778.072 81.0572H764.358V94.5663H778.072V81.0572Z" fill="#231F20"/>
<path d="M805.5 81.0572H791.787V94.5663H805.5V81.0572Z" fill="#231F20"/>
<path d="M627.218 94.5663H613.504V108.075H627.218V94.5663Z" fill="#231F20"/>
<path d="M654.646 94.5663H640.932V108.075H654.646V94.5663Z" fill="#231F20"/>
<path d="M682.074 94.5663H668.361V108.075H682.074V94.5663Z" fill="#231F20"/>
<path d="M709.502 94.5663H695.788V108.075H709.502V94.5663Z" fill="#231F20"/>
<path d="M736.93 94.5663H723.216V108.075H736.93V94.5663Z" fill="#231F20"/>
<path d="M764.358 94.5663H750.645V108.075H764.358V94.5663Z" fill="#231F20"/>
<path d="M791.786 94.5663H778.072V108.075H791.786V94.5663Z" fill="#231F20"/>
<path d="M819.214 94.5663H805.5V108.075H819.214V94.5663Z" fill="#231F20"/>
<path d="M613.504 108.077H599.79V121.586H613.504V108.077Z" fill="#231F20"/>
<path d="M640.932 108.077H627.219V121.586H640.932V108.077Z" fill="#231F20"/>
<path d="M668.359 108.077H654.646V121.586H668.359V108.077Z" fill="#231F20"/>
<path d="M695.788 108.077H682.074V121.586H695.788V108.077Z" fill="#231F20"/>
<path d="M723.216 108.077H709.503V121.586H723.216V108.077Z" fill="#231F20"/>
<path d="M750.643 108.077H736.93V121.586H750.643V108.077Z" fill="#231F20"/>
<path d="M778.072 108.077H764.358V121.586H778.072V108.077Z" fill="#231F20"/>
<path d="M805.5 108.077H791.787V121.586H805.5V108.077Z" fill="#231F20"/>
<path d="M627.218 121.586H613.504V135.095H627.218V121.586Z" fill="#231F20"/>
<path d="M654.646 121.586H640.932V135.095H654.646V121.586Z" fill="#231F20"/>
<path d="M682.074 121.586H668.361V135.095H682.074V121.586Z" fill="#231F20"/>
<path d="M709.502 121.586H695.788V135.095H709.502V121.586Z" fill="#231F20"/>
<path d="M736.93 121.586H723.216V135.095H736.93V121.586Z" fill="#231F20"/>
<path d="M764.358 121.586H750.645V135.095H764.358V121.586Z" fill="#231F20"/>
<path d="M791.786 121.586H778.072V135.095H791.786V121.586Z" fill="#231F20"/>
<path d="M819.214 121.586H805.5V135.095H819.214V121.586Z" fill="#231F20"/>
<path d="M613.504 135.095H599.79V148.604H613.504V135.095Z" fill="#231F20"/>
<path d="M640.932 135.095H627.219V148.604H640.932V135.095Z" fill="#231F20"/>
<path d="M668.359 135.095H654.646V148.604H668.359V135.095Z" fill="#231F20"/>
<path d="M695.788 135.095H682.074V148.604H695.788V135.095Z" fill="#231F20"/>
<path d="M723.216 135.095H709.503V148.604H723.216V135.095Z" fill="#231F20"/>
<path d="M750.643 135.095H736.93V148.604H750.643V135.095Z" fill="#231F20"/>
<path d="M778.072 135.095H764.358V148.604H778.072V135.095Z" fill="#231F20"/>
<path d="M805.5 135.095H791.787V148.604H805.5V135.095Z" fill="#231F20"/>
<path d="M627.218 148.605H613.504V162.114H627.218V148.605Z" fill="#231F20"/>
<path d="M654.646 148.605H640.932V162.114H654.646V148.605Z" fill="#231F20"/>
<path d="M682.074 148.605H668.361V162.114H682.074V148.605Z" fill="#231F20"/>
<path d="M709.502 148.605H695.788V162.114H709.502V148.605Z" fill="#231F20"/>
<path d="M736.93 148.605H723.216V162.114H736.93V148.605Z" fill="#231F20"/>
<path d="M764.358 148.605H750.645V162.114H764.358V148.605Z" fill="#231F20"/>
<path d="M791.786 148.605H778.072V162.114H791.786V148.605Z" fill="#231F20"/>
<path d="M819.214 148.605H805.5V162.114H819.214V148.605Z" fill="#231F20"/>
</g>
<defs>
<clipPath id="clip0_870_135">
<rect width="691.4" height="26.9403" fill="white" transform="translate(-58 163.06)"/>
</clipPath>
<clipPath id="clip1_870_135">
<rect width="691.4" height="26.9403" fill="white" transform="translate(-58)"/>
</clipPath>
</defs>
</svg>
