<svg width="1440" height="402" viewBox="0 0 1440 402" fill="none" xmlns="http://www.w3.org/2000/svg">
<path d="M330.362 305H359.507L370.869 293.704V241.153H348.393V283.636H341.724V146.364H348.393V188.847H370.869V136.296L359.507 125H330.362L319 136.296V293.704L330.362 305Z" fill="black"/>
<path d="M438.546 125H409.401L398.039 136.296V293.704L409.401 305H438.546L449.908 293.704V136.296L438.546 125ZM427.185 283.636H420.763V146.364H427.185V283.636Z" fill="black"/>
<path d="M547.966 125H522.772L513.633 190.075L502.271 125H477.078V305H497.332V204.072L506.47 251.467H515.856L525.242 204.072V305H547.966V125Z" fill="black"/>
<path d="M597.896 305V125H575.172V305H597.896Z" fill="black"/>
<path d="M677.882 125H655.159V169.447L647.749 125H625.025V305H647.749V259.57L655.159 305H677.882V125Z" fill="black"/>
<path d="M756.898 213.404H730.963V234.768H734.174V283.636H727.752V146.364H734.174V188.847H756.898V136.296L745.536 125H716.391L705.029 136.296V293.704L716.391 305H745.536L756.898 293.704V213.404Z" fill="black"/>
<path d="M882.895 293.704V211.685L853.75 187.865V146.364H860.172V186.637H882.895V136.296L871.533 125H842.388L831.026 136.296V202.599L860.419 226.664V283.636H853.503V227.647H831.026V293.704L842.388 305H871.533L882.895 293.704Z" fill="black"/>
<path d="M950.572 125H921.427L910.065 136.296V293.704L921.427 305H950.572L961.934 293.704V136.296L950.572 125ZM939.211 283.636H932.789V146.364H939.211V283.636Z" fill="black"/>
<path d="M1029.61 125H1000.47L989.104 136.296V293.704L1000.47 305H1029.61L1040.97 293.704V136.296L1029.61 125ZM1018.25 283.636H1011.83V146.364H1018.25V283.636Z" fill="black"/>
<path d="M1121 125H1098.28V169.447L1090.87 125H1068.14V305H1090.87V259.57L1098.28 305H1121V125Z" fill="black"/>
<rect y="82" width="1440" height="20" fill="#E9C56D"/>
<rect y="330" width="1440" height="15" fill="#E9C56D"/>
<rect y="56" width="1440" height="10" fill="#E9C56D"/>
<g clip-path="url(#clip0_859_321)">
<path d="M456.901 345H0V688H456.901V345Z" fill="white"/>
<path d="M28.5616 345H0V373.582H28.5616V345Z" fill="#231F20"/>
<path d="M85.6877 345H57.1261V373.582H85.6877V345Z" fill="#231F20"/>
<path d="M142.811 345H114.249V373.582H142.811V345Z" fill="#231F20"/>
<path d="M199.937 345H171.375V373.582H199.937V345Z" fill="#231F20"/>
<path d="M257.063 345H228.501V373.582H257.063V345Z" fill="#231F20"/>
<path d="M314.186 345H285.625V373.582H314.186V345Z" fill="#231F20"/>
<path d="M371.312 345H342.751V373.582H371.312V345Z" fill="#231F20"/>
<path d="M428.438 345H399.877V373.582H428.438V345Z" fill="#231F20"/>
<path d="M57.1231 373.582H28.5616V402.165H57.1231V373.582Z" fill="#231F20"/>
<path d="M114.249 373.582H85.6877V402.165H114.249V373.582Z" fill="#231F20"/>
<path d="M171.375 373.582H142.814V402.165H171.375V373.582Z" fill="#231F20"/>
<path d="M228.499 373.582H199.937V402.165H228.499V373.582Z" fill="#231F20"/>
<path d="M285.625 373.582H257.063V402.165H285.625V373.582Z" fill="#231F20"/>
<path d="M342.751 373.582H314.189V402.165H342.751V373.582Z" fill="#231F20"/>
<path d="M399.874 373.582H371.312V402.165H399.874V373.582Z" fill="#231F20"/>
<path d="M457 373.582H428.438V402.165H457V373.582Z" fill="#231F20"/>
<path d="M28.5616 402.168H0V430.75H28.5616V402.168Z" fill="#231F20"/>
<path d="M85.6877 402.168H57.1261V430.75H85.6877V402.168Z" fill="#231F20"/>
<path d="M142.811 402.168H114.249V430.75H142.811V402.168Z" fill="#231F20"/>
<path d="M199.937 402.168H171.375V430.75H199.937V402.168Z" fill="#231F20"/>
<path d="M257.063 402.168H228.501V430.75H257.063V402.168Z" fill="#231F20"/>
<path d="M314.186 402.168H285.625V430.75H314.186V402.168Z" fill="#231F20"/>
<path d="M371.312 402.168H342.751V430.75H371.312V402.168Z" fill="#231F20"/>
<path d="M428.438 402.168H399.877V430.75H428.438V402.168Z" fill="#231F20"/>
<path d="M57.1231 430.75H28.5616V459.332H57.1231V430.75Z" fill="#231F20"/>
<path d="M114.249 430.75H85.6877V459.332H114.249V430.75Z" fill="#231F20"/>
<path d="M171.375 430.75H142.814V459.332H171.375V430.75Z" fill="#231F20"/>
<path d="M228.499 430.75H199.937V459.332H228.499V430.75Z" fill="#231F20"/>
<path d="M285.625 430.75H257.063V459.332H285.625V430.75Z" fill="#231F20"/>
<path d="M342.751 430.75H314.189V459.332H342.751V430.75Z" fill="#231F20"/>
<path d="M399.874 430.75H371.312V459.332H399.874V430.75Z" fill="#231F20"/>
<path d="M457 430.75H428.438V459.332H457V430.75Z" fill="#231F20"/>
<path d="M28.5616 459.332H0V487.915H28.5616V459.332Z" fill="#231F20"/>
<path d="M85.6877 459.332H57.1261V487.915H85.6877V459.332Z" fill="#231F20"/>
<path d="M142.811 459.332H114.249V487.915H142.811V459.332Z" fill="#231F20"/>
<path d="M199.937 459.332H171.375V487.915H199.937V459.332Z" fill="#231F20"/>
<path d="M257.063 459.332H228.501V487.915H257.063V459.332Z" fill="#231F20"/>
<path d="M314.186 459.332H285.625V487.915H314.186V459.332Z" fill="#231F20"/>
<path d="M371.312 459.332H342.751V487.915H371.312V459.332Z" fill="#231F20"/>
<path d="M428.438 459.332H399.877V487.915H428.438V459.332Z" fill="#231F20"/>
<path d="M57.1231 487.918H28.5616V516.5H57.1231V487.918Z" fill="#231F20"/>
<path d="M114.249 487.918H85.6877V516.5H114.249V487.918Z" fill="#231F20"/>
<path d="M171.375 487.918H142.814V516.5H171.375V487.918Z" fill="#231F20"/>
<path d="M228.499 487.918H199.937V516.5H228.499V487.918Z" fill="#231F20"/>
<path d="M285.625 487.918H257.063V516.5H285.625V487.918Z" fill="#231F20"/>
<path d="M342.751 487.918H314.189V516.5H342.751V487.918Z" fill="#231F20"/>
<path d="M399.874 487.918H371.312V516.5H399.874V487.918Z" fill="#231F20"/>
<path d="M457 487.918H428.438V516.5H457V487.918Z" fill="#231F20"/>
<path d="M28.5616 516.5H0V545.082H28.5616V516.5Z" fill="#231F20"/>
<path d="M85.6877 516.5H57.1261V545.082H85.6877V516.5Z" fill="#231F20"/>
<path d="M142.811 516.5H114.249V545.082H142.811V516.5Z" fill="#231F20"/>
<path d="M199.937 516.5H171.375V545.082H199.937V516.5Z" fill="#231F20"/>
<path d="M257.063 516.5H228.501V545.082H257.063V516.5Z" fill="#231F20"/>
<path d="M314.186 516.5H285.625V545.082H314.186V516.5Z" fill="#231F20"/>
<path d="M371.312 516.5H342.751V545.082H371.312V516.5Z" fill="#231F20"/>
<path d="M428.438 516.5H399.877V545.082H428.438V516.5Z" fill="#231F20"/>
<path d="M57.1231 545.082H28.5616V573.665H57.1231V545.082Z" fill="#231F20"/>
<path d="M114.249 545.082H85.6877V573.665H114.249V545.082Z" fill="#231F20"/>
<path d="M171.375 545.082H142.814V573.665H171.375V545.082Z" fill="#231F20"/>
<path d="M228.499 545.082H199.937V573.665H228.499V545.082Z" fill="#231F20"/>
<path d="M285.625 545.082H257.063V573.665H285.625V545.082Z" fill="#231F20"/>
<path d="M342.751 545.082H314.189V573.665H342.751V545.082Z" fill="#231F20"/>
<path d="M399.874 545.082H371.312V573.665H399.874V545.082Z" fill="#231F20"/>
<path d="M457 545.082H428.438V573.665H457V545.082Z" fill="#231F20"/>
<path d="M28.5616 573.668H0V602.25H28.5616V573.668Z" fill="#231F20"/>
<path d="M85.6877 573.668H57.1261V602.25H85.6877V573.668Z" fill="#231F20"/>
<path d="M142.811 573.668H114.249V602.25H142.811V573.668Z" fill="#231F20"/>
<path d="M199.937 573.668H171.375V602.25H199.937V573.668Z" fill="#231F20"/>
<path d="M257.063 573.668H228.501V602.25H257.063V573.668Z" fill="#231F20"/>
<path d="M314.186 573.668H285.625V602.25H314.186V573.668Z" fill="#231F20"/>
<path d="M371.312 573.668H342.751V602.25H371.312V573.668Z" fill="#231F20"/>
<path d="M428.438 573.668H399.877V602.25H428.438V573.668Z" fill="#231F20"/>
<path d="M57.1231 602.25H28.5616V630.832H57.1231V602.25Z" fill="#231F20"/>
<path d="M114.249 602.25H85.6877V630.832H114.249V602.25Z" fill="#231F20"/>
<path d="M171.375 602.25H142.814V630.832H171.375V602.25Z" fill="#231F20"/>
<path d="M228.499 602.25H199.937V630.832H228.499V602.25Z" fill="#231F20"/>
<path d="M285.625 602.25H257.063V630.832H285.625V602.25Z" fill="#231F20"/>
<path d="M342.751 602.25H314.189V630.832H342.751V602.25Z" fill="#231F20"/>
<path d="M399.874 602.25H371.312V630.832H399.874V602.25Z" fill="#231F20"/>
<path d="M457 602.25H428.438V630.832H457V602.25Z" fill="#231F20"/>
<path d="M28.5616 630.832H0V659.415H28.5616V630.832Z" fill="#231F20"/>
<path d="M85.6877 630.832H57.1261V659.415H85.6877V630.832Z" fill="#231F20"/>
<path d="M142.811 630.832H114.249V659.415H142.811V630.832Z" fill="#231F20"/>
<path d="M199.937 630.832H171.375V659.415H199.937V630.832Z" fill="#231F20"/>
<path d="M257.063 630.832H228.501V659.415H257.063V630.832Z" fill="#231F20"/>
<path d="M314.186 630.832H285.625V659.415H314.186V630.832Z" fill="#231F20"/>
<path d="M371.312 630.832H342.751V659.415H371.312V630.832Z" fill="#231F20"/>
<path d="M428.438 630.832H399.877V659.415H428.438V630.832Z" fill="#231F20"/>
<path d="M57.1231 659.418H28.5616V688H57.1231V659.418Z" fill="#231F20"/>
<path d="M114.249 659.418H85.6877V688H114.249V659.418Z" fill="#231F20"/>
<path d="M171.375 659.418H142.814V688H171.375V659.418Z" fill="#231F20"/>
<path d="M228.499 659.418H199.937V688H228.499V659.418Z" fill="#231F20"/>
<path d="M285.625 659.418H257.063V688H285.625V659.418Z" fill="#231F20"/>
<path d="M342.751 659.418H314.189V688H342.751V659.418Z" fill="#231F20"/>
<path d="M399.874 659.418H371.312V688H399.874V659.418Z" fill="#231F20"/>
<path d="M457 659.418H428.438V688H457V659.418Z" fill="#231F20"/>
<path d="M913.901 345H457V688H913.901V345Z" fill="white"/>
<path d="M485.562 345H457V373.582H485.562V345Z" fill="#231F20"/>
<path d="M542.688 345H514.126V373.582H542.688V345Z" fill="#231F20"/>
<path d="M599.811 345H571.249V373.582H599.811V345Z" fill="#231F20"/>
<path d="M656.937 345H628.375V373.582H656.937V345Z" fill="#231F20"/>
<path d="M714.063 345H685.502V373.582H714.063V345Z" fill="#231F20"/>
<path d="M771.186 345H742.625V373.582H771.186V345Z" fill="#231F20"/>
<path d="M828.312 345H799.751V373.582H828.312V345Z" fill="#231F20"/>
<path d="M885.438 345H856.877V373.582H885.438V345Z" fill="#231F20"/>
<path d="M514.123 373.582H485.562V402.165H514.123V373.582Z" fill="#231F20"/>
<path d="M571.249 373.582H542.688V402.165H571.249V373.582Z" fill="#231F20"/>
<path d="M628.375 373.582H599.814V402.165H628.375V373.582Z" fill="#231F20"/>
<path d="M685.498 373.582H656.937V402.165H685.498V373.582Z" fill="#231F20"/>
<path d="M742.625 373.582H714.063V402.165H742.625V373.582Z" fill="#231F20"/>
<path d="M799.751 373.582H771.189V402.165H799.751V373.582Z" fill="#231F20"/>
<path d="M856.874 373.582H828.312V402.165H856.874V373.582Z" fill="#231F20"/>
<path d="M914 373.582H885.438V402.165H914V373.582Z" fill="#231F20"/>
<path d="M485.562 402.168H457V430.75H485.562V402.168Z" fill="#231F20"/>
<path d="M542.688 402.168H514.126V430.75H542.688V402.168Z" fill="#231F20"/>
<path d="M599.811 402.168H571.249V430.75H599.811V402.168Z" fill="#231F20"/>
<path d="M656.937 402.168H628.375V430.75H656.937V402.168Z" fill="#231F20"/>
<path d="M714.063 402.168H685.502V430.75H714.063V402.168Z" fill="#231F20"/>
<path d="M771.186 402.168H742.625V430.75H771.186V402.168Z" fill="#231F20"/>
<path d="M828.312 402.168H799.751V430.75H828.312V402.168Z" fill="#231F20"/>
<path d="M885.438 402.168H856.877V430.75H885.438V402.168Z" fill="#231F20"/>
<path d="M514.123 430.75H485.562V459.332H514.123V430.75Z" fill="#231F20"/>
<path d="M571.249 430.75H542.688V459.332H571.249V430.75Z" fill="#231F20"/>
<path d="M628.375 430.75H599.814V459.332H628.375V430.75Z" fill="#231F20"/>
<path d="M685.498 430.75H656.937V459.332H685.498V430.75Z" fill="#231F20"/>
<path d="M742.625 430.75H714.063V459.332H742.625V430.75Z" fill="#231F20"/>
<path d="M799.751 430.75H771.189V459.332H799.751V430.75Z" fill="#231F20"/>
<path d="M856.874 430.75H828.312V459.332H856.874V430.75Z" fill="#231F20"/>
<path d="M914 430.75H885.438V459.332H914V430.75Z" fill="#231F20"/>
<path d="M485.562 459.332H457V487.915H485.562V459.332Z" fill="#231F20"/>
<path d="M542.688 459.332H514.126V487.915H542.688V459.332Z" fill="#231F20"/>
<path d="M599.811 459.332H571.249V487.915H599.811V459.332Z" fill="#231F20"/>
<path d="M656.937 459.332H628.375V487.915H656.937V459.332Z" fill="#231F20"/>
<path d="M714.063 459.332H685.502V487.915H714.063V459.332Z" fill="#231F20"/>
<path d="M771.186 459.332H742.625V487.915H771.186V459.332Z" fill="#231F20"/>
<path d="M828.312 459.332H799.751V487.915H828.312V459.332Z" fill="#231F20"/>
<path d="M885.438 459.332H856.877V487.915H885.438V459.332Z" fill="#231F20"/>
<path d="M514.123 487.918H485.562V516.5H514.123V487.918Z" fill="#231F20"/>
<path d="M571.249 487.918H542.688V516.5H571.249V487.918Z" fill="#231F20"/>
<path d="M628.375 487.918H599.814V516.5H628.375V487.918Z" fill="#231F20"/>
<path d="M685.498 487.918H656.937V516.5H685.498V487.918Z" fill="#231F20"/>
<path d="M742.625 487.918H714.063V516.5H742.625V487.918Z" fill="#231F20"/>
<path d="M799.751 487.918H771.189V516.5H799.751V487.918Z" fill="#231F20"/>
<path d="M856.874 487.918H828.312V516.5H856.874V487.918Z" fill="#231F20"/>
<path d="M914 487.918H885.438V516.5H914V487.918Z" fill="#231F20"/>
<path d="M485.562 516.5H457V545.082H485.562V516.5Z" fill="#231F20"/>
<path d="M542.688 516.5H514.126V545.082H542.688V516.5Z" fill="#231F20"/>
<path d="M599.811 516.5H571.249V545.082H599.811V516.5Z" fill="#231F20"/>
<path d="M656.937 516.5H628.375V545.082H656.937V516.5Z" fill="#231F20"/>
<path d="M714.063 516.5H685.502V545.082H714.063V516.5Z" fill="#231F20"/>
<path d="M771.186 516.5H742.625V545.082H771.186V516.5Z" fill="#231F20"/>
<path d="M828.312 516.5H799.751V545.082H828.312V516.5Z" fill="#231F20"/>
<path d="M885.438 516.5H856.877V545.082H885.438V516.5Z" fill="#231F20"/>
<path d="M514.123 545.082H485.562V573.665H514.123V545.082Z" fill="#231F20"/>
<path d="M571.249 545.082H542.688V573.665H571.249V545.082Z" fill="#231F20"/>
<path d="M628.375 545.082H599.814V573.665H628.375V545.082Z" fill="#231F20"/>
<path d="M685.498 545.082H656.937V573.665H685.498V545.082Z" fill="#231F20"/>
<path d="M742.625 545.082H714.063V573.665H742.625V545.082Z" fill="#231F20"/>
<path d="M799.751 545.082H771.189V573.665H799.751V545.082Z" fill="#231F20"/>
<path d="M856.874 545.082H828.312V573.665H856.874V545.082Z" fill="#231F20"/>
<path d="M914 545.082H885.438V573.665H914V545.082Z" fill="#231F20"/>
<path d="M485.562 573.668H457V602.25H485.562V573.668Z" fill="#231F20"/>
<path d="M542.688 573.668H514.126V602.25H542.688V573.668Z" fill="#231F20"/>
<path d="M599.811 573.668H571.249V602.25H599.811V573.668Z" fill="#231F20"/>
<path d="M656.937 573.668H628.375V602.25H656.937V573.668Z" fill="#231F20"/>
<path d="M714.063 573.668H685.502V602.25H714.063V573.668Z" fill="#231F20"/>
<path d="M771.186 573.668H742.625V602.25H771.186V573.668Z" fill="#231F20"/>
<path d="M828.312 573.668H799.751V602.25H828.312V573.668Z" fill="#231F20"/>
<path d="M885.438 573.668H856.877V602.25H885.438V573.668Z" fill="#231F20"/>
<path d="M514.123 602.25H485.562V630.832H514.123V602.25Z" fill="#231F20"/>
<path d="M571.249 602.25H542.688V630.832H571.249V602.25Z" fill="#231F20"/>
<path d="M628.375 602.25H599.814V630.832H628.375V602.25Z" fill="#231F20"/>
<path d="M685.498 602.25H656.937V630.832H685.498V602.25Z" fill="#231F20"/>
<path d="M742.625 602.25H714.063V630.832H742.625V602.25Z" fill="#231F20"/>
<path d="M799.751 602.25H771.189V630.832H799.751V602.25Z" fill="#231F20"/>
<path d="M856.874 602.25H828.312V630.832H856.874V602.25Z" fill="#231F20"/>
<path d="M914 602.25H885.438V630.832H914V602.25Z" fill="#231F20"/>
<path d="M485.562 630.832H457V659.415H485.562V630.832Z" fill="#231F20"/>
<path d="M542.688 630.832H514.126V659.415H542.688V630.832Z" fill="#231F20"/>
<path d="M599.811 630.832H571.249V659.415H599.811V630.832Z" fill="#231F20"/>
<path d="M656.937 630.832H628.375V659.415H656.937V630.832Z" fill="#231F20"/>
<path d="M714.063 630.832H685.502V659.415H714.063V630.832Z" fill="#231F20"/>
<path d="M771.186 630.832H742.625V659.415H771.186V630.832Z" fill="#231F20"/>
<path d="M828.312 630.832H799.751V659.415H828.312V630.832Z" fill="#231F20"/>
<path d="M885.438 630.832H856.877V659.415H885.438V630.832Z" fill="#231F20"/>
<path d="M514.123 659.418H485.562V688H514.123V659.418Z" fill="#231F20"/>
<path d="M571.249 659.418H542.688V688H571.249V659.418Z" fill="#231F20"/>
<path d="M628.375 659.418H599.814V688H628.375V659.418Z" fill="#231F20"/>
<path d="M685.498 659.418H656.937V688H685.498V659.418Z" fill="#231F20"/>
<path d="M742.625 659.418H714.063V688H742.625V659.418Z" fill="#231F20"/>
<path d="M799.751 659.418H771.189V688H799.751V659.418Z" fill="#231F20"/>
<path d="M856.874 659.418H828.312V688H856.874V659.418Z" fill="#231F20"/>
<path d="M914 659.418H885.438V688H914V659.418Z" fill="#231F20"/>
<path d="M1370.9 345H914V688H1370.9V345Z" fill="white"/>
<path d="M942.562 345H914V373.582H942.562V345Z" fill="#231F20"/>
<path d="M999.688 345H971.126V373.582H999.688V345Z" fill="#231F20"/>
<path d="M1056.81 345H1028.25V373.582H1056.81V345Z" fill="#231F20"/>
<path d="M1113.94 345H1085.38V373.582H1113.94V345Z" fill="#231F20"/>
<path d="M1171.06 345H1142.5V373.582H1171.06V345Z" fill="#231F20"/>
<path d="M1228.19 345H1199.62V373.582H1228.19V345Z" fill="#231F20"/>
<path d="M1285.31 345H1256.75V373.582H1285.31V345Z" fill="#231F20"/>
<path d="M1342.44 345H1313.88V373.582H1342.44V345Z" fill="#231F20"/>
<path d="M971.123 373.582H942.562V402.165H971.123V373.582Z" fill="#231F20"/>
<path d="M1028.25 373.582H999.688V402.165H1028.25V373.582Z" fill="#231F20"/>
<path d="M1085.38 373.582H1056.81V402.165H1085.38V373.582Z" fill="#231F20"/>
<path d="M1142.5 373.582H1113.94V402.165H1142.5V373.582Z" fill="#231F20"/>
<path d="M1199.62 373.582H1171.06V402.165H1199.62V373.582Z" fill="#231F20"/>
<path d="M1256.75 373.582H1228.19V402.165H1256.75V373.582Z" fill="#231F20"/>
<path d="M1313.87 373.582H1285.31V402.165H1313.87V373.582Z" fill="#231F20"/>
<path d="M1371 373.582H1342.44V402.165H1371V373.582Z" fill="#231F20"/>
<path d="M942.562 402.168H914V430.75H942.562V402.168Z" fill="#231F20"/>
<path d="M999.688 402.168H971.126V430.75H999.688V402.168Z" fill="#231F20"/>
<path d="M1056.81 402.168H1028.25V430.75H1056.81V402.168Z" fill="#231F20"/>
<path d="M1113.94 402.168H1085.38V430.75H1113.94V402.168Z" fill="#231F20"/>
<path d="M1171.06 402.168H1142.5V430.75H1171.06V402.168Z" fill="#231F20"/>
<path d="M1228.19 402.168H1199.62V430.75H1228.19V402.168Z" fill="#231F20"/>
<path d="M1285.31 402.168H1256.75V430.75H1285.31V402.168Z" fill="#231F20"/>
<path d="M1342.44 402.168H1313.88V430.75H1342.44V402.168Z" fill="#231F20"/>
<path d="M971.123 430.75H942.562V459.332H971.123V430.75Z" fill="#231F20"/>
<path d="M1028.25 430.75H999.688V459.332H1028.25V430.75Z" fill="#231F20"/>
<path d="M1085.38 430.75H1056.81V459.332H1085.38V430.75Z" fill="#231F20"/>
<path d="M1142.5 430.75H1113.94V459.332H1142.5V430.75Z" fill="#231F20"/>
<path d="M1199.62 430.75H1171.06V459.332H1199.62V430.75Z" fill="#231F20"/>
<path d="M1256.75 430.75H1228.19V459.332H1256.75V430.75Z" fill="#231F20"/>
<path d="M1313.87 430.75H1285.31V459.332H1313.87V430.75Z" fill="#231F20"/>
<path d="M1371 430.75H1342.44V459.332H1371V430.75Z" fill="#231F20"/>
<path d="M942.562 459.332H914V487.915H942.562V459.332Z" fill="#231F20"/>
<path d="M999.688 459.332H971.126V487.915H999.688V459.332Z" fill="#231F20"/>
<path d="M1056.81 459.332H1028.25V487.915H1056.81V459.332Z" fill="#231F20"/>
<path d="M1113.94 459.332H1085.38V487.915H1113.94V459.332Z" fill="#231F20"/>
<path d="M1171.06 459.332H1142.5V487.915H1171.06V459.332Z" fill="#231F20"/>
<path d="M1228.19 459.332H1199.62V487.915H1228.19V459.332Z" fill="#231F20"/>
<path d="M1285.31 459.332H1256.75V487.915H1285.31V459.332Z" fill="#231F20"/>
<path d="M1342.44 459.332H1313.88V487.915H1342.44V459.332Z" fill="#231F20"/>
<path d="M971.123 487.918H942.562V516.5H971.123V487.918Z" fill="#231F20"/>
<path d="M1028.25 487.918H999.688V516.5H1028.25V487.918Z" fill="#231F20"/>
<path d="M1085.38 487.918H1056.81V516.5H1085.38V487.918Z" fill="#231F20"/>
<path d="M1142.5 487.918H1113.94V516.5H1142.5V487.918Z" fill="#231F20"/>
<path d="M1199.62 487.918H1171.06V516.5H1199.62V487.918Z" fill="#231F20"/>
<path d="M1256.75 487.918H1228.19V516.5H1256.75V487.918Z" fill="#231F20"/>
<path d="M1313.87 487.918H1285.31V516.5H1313.87V487.918Z" fill="#231F20"/>
<path d="M1371 487.918H1342.44V516.5H1371V487.918Z" fill="#231F20"/>
<path d="M942.562 516.5H914V545.082H942.562V516.5Z" fill="#231F20"/>
<path d="M999.688 516.5H971.126V545.082H999.688V516.5Z" fill="#231F20"/>
<path d="M1056.81 516.5H1028.25V545.082H1056.81V516.5Z" fill="#231F20"/>
<path d="M1113.94 516.5H1085.38V545.082H1113.94V516.5Z" fill="#231F20"/>
<path d="M1171.06 516.5H1142.5V545.082H1171.06V516.5Z" fill="#231F20"/>
<path d="M1228.19 516.5H1199.62V545.082H1228.19V516.5Z" fill="#231F20"/>
<path d="M1285.31 516.5H1256.75V545.082H1285.31V516.5Z" fill="#231F20"/>
<path d="M1342.44 516.5H1313.88V545.082H1342.44V516.5Z" fill="#231F20"/>
<path d="M971.123 545.082H942.562V573.665H971.123V545.082Z" fill="#231F20"/>
<path d="M1028.25 545.082H999.688V573.665H1028.25V545.082Z" fill="#231F20"/>
<path d="M1085.38 545.082H1056.81V573.665H1085.38V545.082Z" fill="#231F20"/>
<path d="M1142.5 545.082H1113.94V573.665H1142.5V545.082Z" fill="#231F20"/>
<path d="M1199.62 545.082H1171.06V573.665H1199.62V545.082Z" fill="#231F20"/>
<path d="M1256.75 545.082H1228.19V573.665H1256.75V545.082Z" fill="#231F20"/>
<path d="M1313.87 545.082H1285.31V573.665H1313.87V545.082Z" fill="#231F20"/>
<path d="M1371 545.082H1342.44V573.665H1371V545.082Z" fill="#231F20"/>
<path d="M942.562 573.668H914V602.25H942.562V573.668Z" fill="#231F20"/>
<path d="M999.688 573.668H971.126V602.25H999.688V573.668Z" fill="#231F20"/>
<path d="M1056.81 573.668H1028.25V602.25H1056.81V573.668Z" fill="#231F20"/>
<path d="M1113.94 573.668H1085.38V602.25H1113.94V573.668Z" fill="#231F20"/>
<path d="M1171.06 573.668H1142.5V602.25H1171.06V573.668Z" fill="#231F20"/>
<path d="M1228.19 573.668H1199.62V602.25H1228.19V573.668Z" fill="#231F20"/>
<path d="M1285.31 573.668H1256.75V602.25H1285.31V573.668Z" fill="#231F20"/>
<path d="M1342.44 573.668H1313.88V602.25H1342.44V573.668Z" fill="#231F20"/>
<path d="M971.123 602.25H942.562V630.832H971.123V602.25Z" fill="#231F20"/>
<path d="M1028.25 602.25H999.688V630.832H1028.25V602.25Z" fill="#231F20"/>
<path d="M1085.38 602.25H1056.81V630.832H1085.38V602.25Z" fill="#231F20"/>
<path d="M1142.5 602.25H1113.94V630.832H1142.5V602.25Z" fill="#231F20"/>
<path d="M1199.62 602.25H1171.06V630.832H1199.62V602.25Z" fill="#231F20"/>
<path d="M1256.75 602.25H1228.19V630.832H1256.75V602.25Z" fill="#231F20"/>
<path d="M1313.87 602.25H1285.31V630.832H1313.87V602.25Z" fill="#231F20"/>
<path d="M1371 602.25H1342.44V630.832H1371V602.25Z" fill="#231F20"/>
<path d="M942.562 630.832H914V659.415H942.562V630.832Z" fill="#231F20"/>
<path d="M999.688 630.832H971.126V659.415H999.688V630.832Z" fill="#231F20"/>
<path d="M1056.81 630.832H1028.25V659.415H1056.81V630.832Z" fill="#231F20"/>
<path d="M1113.94 630.832H1085.38V659.415H1113.94V630.832Z" fill="#231F20"/>
<path d="M1171.06 630.832H1142.5V659.415H1171.06V630.832Z" fill="#231F20"/>
<path d="M1228.19 630.832H1199.62V659.415H1228.19V630.832Z" fill="#231F20"/>
<path d="M1285.31 630.832H1256.75V659.415H1285.31V630.832Z" fill="#231F20"/>
<path d="M1342.44 630.832H1313.88V659.415H1342.44V630.832Z" fill="#231F20"/>
<path d="M971.123 659.418H942.562V688H971.123V659.418Z" fill="#231F20"/>
<path d="M1028.25 659.418H999.688V688H1028.25V659.418Z" fill="#231F20"/>
<path d="M1085.38 659.418H1056.81V688H1085.38V659.418Z" fill="#231F20"/>
<path d="M1142.5 659.418H1113.94V688H1142.5V659.418Z" fill="#231F20"/>
<path d="M1199.62 659.418H1171.06V688H1199.62V659.418Z" fill="#231F20"/>
<path d="M1256.75 659.418H1228.19V688H1256.75V659.418Z" fill="#231F20"/>
<path d="M1313.87 659.418H1285.31V688H1313.87V659.418Z" fill="#231F20"/>
<path d="M1371 659.418H1342.44V688H1371V659.418Z" fill="#231F20"/>
<path d="M1826.9 345H1370V688H1826.9V345Z" fill="white"/>
<path d="M1398.56 345H1370V373.582H1398.56V345Z" fill="#231F20"/>
<path d="M1455.69 345H1427.13V373.582H1455.69V345Z" fill="#231F20"/>
<path d="M1512.81 345H1484.25V373.582H1512.81V345Z" fill="#231F20"/>
<path d="M1569.94 345H1541.38V373.582H1569.94V345Z" fill="#231F20"/>
<path d="M1627.06 345H1598.5V373.582H1627.06V345Z" fill="#231F20"/>
<path d="M1684.19 345H1655.62V373.582H1684.19V345Z" fill="#231F20"/>
<path d="M1741.31 345H1712.75V373.582H1741.31V345Z" fill="#231F20"/>
<path d="M1798.44 345H1769.88V373.582H1798.44V345Z" fill="#231F20"/>
<path d="M1427.12 373.582H1398.56V402.165H1427.12V373.582Z" fill="#231F20"/>
<path d="M1484.25 373.582H1455.69V402.165H1484.25V373.582Z" fill="#231F20"/>
<path d="M1541.38 373.582H1512.81V402.165H1541.38V373.582Z" fill="#231F20"/>
<path d="M1598.5 373.582H1569.94V402.165H1598.5V373.582Z" fill="#231F20"/>
<path d="M1655.62 373.582H1627.06V402.165H1655.62V373.582Z" fill="#231F20"/>
<path d="M1712.75 373.582H1684.19V402.165H1712.75V373.582Z" fill="#231F20"/>
<path d="M1769.87 373.582H1741.31V402.165H1769.87V373.582Z" fill="#231F20"/>
<path d="M1827 373.582H1798.44V402.165H1827V373.582Z" fill="#231F20"/>
<path d="M1398.56 402.168H1370V430.75H1398.56V402.168Z" fill="#231F20"/>
<path d="M1455.69 402.168H1427.13V430.75H1455.69V402.168Z" fill="#231F20"/>
<path d="M1512.81 402.168H1484.25V430.75H1512.81V402.168Z" fill="#231F20"/>
<path d="M1569.94 402.168H1541.38V430.75H1569.94V402.168Z" fill="#231F20"/>
<path d="M1627.06 402.168H1598.5V430.75H1627.06V402.168Z" fill="#231F20"/>
<path d="M1684.19 402.168H1655.62V430.75H1684.19V402.168Z" fill="#231F20"/>
<path d="M1741.31 402.168H1712.75V430.75H1741.31V402.168Z" fill="#231F20"/>
<path d="M1798.44 402.168H1769.88V430.75H1798.44V402.168Z" fill="#231F20"/>
<path d="M1427.12 430.75H1398.56V459.332H1427.12V430.75Z" fill="#231F20"/>
<path d="M1484.25 430.75H1455.69V459.332H1484.25V430.75Z" fill="#231F20"/>
<path d="M1541.38 430.75H1512.81V459.332H1541.38V430.75Z" fill="#231F20"/>
<path d="M1598.5 430.75H1569.94V459.332H1598.5V430.75Z" fill="#231F20"/>
<path d="M1655.62 430.75H1627.06V459.332H1655.62V430.75Z" fill="#231F20"/>
<path d="M1712.75 430.75H1684.19V459.332H1712.75V430.75Z" fill="#231F20"/>
<path d="M1769.87 430.75H1741.31V459.332H1769.87V430.75Z" fill="#231F20"/>
<path d="M1827 430.75H1798.44V459.332H1827V430.75Z" fill="#231F20"/>
<path d="M1398.56 459.332H1370V487.915H1398.56V459.332Z" fill="#231F20"/>
<path d="M1455.69 459.332H1427.13V487.915H1455.69V459.332Z" fill="#231F20"/>
<path d="M1512.81 459.332H1484.25V487.915H1512.81V459.332Z" fill="#231F20"/>
<path d="M1569.94 459.332H1541.38V487.915H1569.94V459.332Z" fill="#231F20"/>
<path d="M1627.06 459.332H1598.5V487.915H1627.06V459.332Z" fill="#231F20"/>
<path d="M1684.19 459.332H1655.62V487.915H1684.19V459.332Z" fill="#231F20"/>
<path d="M1741.31 459.332H1712.75V487.915H1741.31V459.332Z" fill="#231F20"/>
<path d="M1798.44 459.332H1769.88V487.915H1798.44V459.332Z" fill="#231F20"/>
<path d="M1427.12 487.918H1398.56V516.5H1427.12V487.918Z" fill="#231F20"/>
<path d="M1484.25 487.918H1455.69V516.5H1484.25V487.918Z" fill="#231F20"/>
<path d="M1541.38 487.918H1512.81V516.5H1541.38V487.918Z" fill="#231F20"/>
<path d="M1598.5 487.918H1569.94V516.5H1598.5V487.918Z" fill="#231F20"/>
<path d="M1655.62 487.918H1627.06V516.5H1655.62V487.918Z" fill="#231F20"/>
<path d="M1712.75 487.918H1684.19V516.5H1712.75V487.918Z" fill="#231F20"/>
<path d="M1769.87 487.918H1741.31V516.5H1769.87V487.918Z" fill="#231F20"/>
<path d="M1827 487.918H1798.44V516.5H1827V487.918Z" fill="#231F20"/>
<path d="M1398.56 516.5H1370V545.082H1398.56V516.5Z" fill="#231F20"/>
<path d="M1455.69 516.5H1427.13V545.082H1455.69V516.5Z" fill="#231F20"/>
<path d="M1512.81 516.5H1484.25V545.082H1512.81V516.5Z" fill="#231F20"/>
<path d="M1569.94 516.5H1541.38V545.082H1569.94V516.5Z" fill="#231F20"/>
<path d="M1627.06 516.5H1598.5V545.082H1627.06V516.5Z" fill="#231F20"/>
<path d="M1684.19 516.5H1655.62V545.082H1684.19V516.5Z" fill="#231F20"/>
<path d="M1741.31 516.5H1712.75V545.082H1741.31V516.5Z" fill="#231F20"/>
<path d="M1798.44 516.5H1769.88V545.082H1798.44V516.5Z" fill="#231F20"/>
<path d="M1427.12 545.082H1398.56V573.665H1427.12V545.082Z" fill="#231F20"/>
<path d="M1484.25 545.082H1455.69V573.665H1484.25V545.082Z" fill="#231F20"/>
<path d="M1541.38 545.082H1512.81V573.665H1541.38V545.082Z" fill="#231F20"/>
<path d="M1598.5 545.082H1569.94V573.665H1598.5V545.082Z" fill="#231F20"/>
<path d="M1655.62 545.082H1627.06V573.665H1655.62V545.082Z" fill="#231F20"/>
<path d="M1712.75 545.082H1684.19V573.665H1712.75V545.082Z" fill="#231F20"/>
<path d="M1769.87 545.082H1741.31V573.665H1769.87V545.082Z" fill="#231F20"/>
<path d="M1827 545.082H1798.44V573.665H1827V545.082Z" fill="#231F20"/>
<path d="M1398.56 573.668H1370V602.25H1398.56V573.668Z" fill="#231F20"/>
<path d="M1455.69 573.668H1427.13V602.25H1455.69V573.668Z" fill="#231F20"/>
<path d="M1512.81 573.668H1484.25V602.25H1512.81V573.668Z" fill="#231F20"/>
<path d="M1569.94 573.668H1541.38V602.25H1569.94V573.668Z" fill="#231F20"/>
<path d="M1627.06 573.668H1598.5V602.25H1627.06V573.668Z" fill="#231F20"/>
<path d="M1684.19 573.668H1655.62V602.25H1684.19V573.668Z" fill="#231F20"/>
<path d="M1741.31 573.668H1712.75V602.25H1741.31V573.668Z" fill="#231F20"/>
<path d="M1798.44 573.668H1769.88V602.25H1798.44V573.668Z" fill="#231F20"/>
<path d="M1427.12 602.25H1398.56V630.832H1427.12V602.25Z" fill="#231F20"/>
<path d="M1484.25 602.25H1455.69V630.832H1484.25V602.25Z" fill="#231F20"/>
<path d="M1541.38 602.25H1512.81V630.832H1541.38V602.25Z" fill="#231F20"/>
<path d="M1598.5 602.25H1569.94V630.832H1598.5V602.25Z" fill="#231F20"/>
<path d="M1655.62 602.25H1627.06V630.832H1655.62V602.25Z" fill="#231F20"/>
<path d="M1712.75 602.25H1684.19V630.832H1712.75V602.25Z" fill="#231F20"/>
<path d="M1769.87 602.25H1741.31V630.832H1769.87V602.25Z" fill="#231F20"/>
<path d="M1827 602.25H1798.44V630.832H1827V602.25Z" fill="#231F20"/>
<path d="M1398.56 630.832H1370V659.415H1398.56V630.832Z" fill="#231F20"/>
<path d="M1455.69 630.832H1427.13V659.415H1455.69V630.832Z" fill="#231F20"/>
<path d="M1512.81 630.832H1484.25V659.415H1512.81V630.832Z" fill="#231F20"/>
<path d="M1569.94 630.832H1541.38V659.415H1569.94V630.832Z" fill="#231F20"/>
<path d="M1627.06 630.832H1598.5V659.415H1627.06V630.832Z" fill="#231F20"/>
<path d="M1684.19 630.832H1655.62V659.415H1684.19V630.832Z" fill="#231F20"/>
<path d="M1741.31 630.832H1712.75V659.415H1741.31V630.832Z" fill="#231F20"/>
<path d="M1798.44 630.832H1769.88V659.415H1798.44V630.832Z" fill="#231F20"/>
<path d="M1427.12 659.418H1398.56V688H1427.12V659.418Z" fill="#231F20"/>
<path d="M1484.25 659.418H1455.69V688H1484.25V659.418Z" fill="#231F20"/>
<path d="M1541.38 659.418H1512.81V688H1541.38V659.418Z" fill="#231F20"/>
<path d="M1598.5 659.418H1569.94V688H1598.5V659.418Z" fill="#231F20"/>
<path d="M1655.62 659.418H1627.06V688H1655.62V659.418Z" fill="#231F20"/>
<path d="M1712.75 659.418H1684.19V688H1712.75V659.418Z" fill="#231F20"/>
<path d="M1769.87 659.418H1741.31V688H1769.87V659.418Z" fill="#231F20"/>
<path d="M1827 659.418H1798.44V688H1827V659.418Z" fill="#231F20"/>
</g>
<g clip-path="url(#clip1_859_321)">
<path d="M456.901 0H0V343H456.901V0Z" fill="white"/>
<path d="M28.5616 0H0V28.5823H28.5616V0Z" fill="#231F20"/>
<path d="M85.6877 0H57.1261V28.5823H85.6877V0Z" fill="#231F20"/>
<path d="M142.811 0H114.249V28.5823H142.811V0Z" fill="#231F20"/>
<path d="M199.937 0H171.375V28.5823H199.937V0Z" fill="#231F20"/>
<path d="M257.063 0H228.501V28.5823H257.063V0Z" fill="#231F20"/>
<path d="M314.186 0H285.625V28.5823H314.186V0Z" fill="#231F20"/>
<path d="M371.312 0H342.751V28.5823H371.312V0Z" fill="#231F20"/>
<path d="M428.438 0H399.877V28.5823H428.438V0Z" fill="#231F20"/>
<path d="M57.1231 28.5823H28.5616V57.1647H57.1231V28.5823Z" fill="#231F20"/>
<path d="M114.249 28.5823H85.6877V57.1647H114.249V28.5823Z" fill="#231F20"/>
<path d="M171.375 28.5823H142.814V57.1647H171.375V28.5823Z" fill="#231F20"/>
<path d="M228.499 28.5823H199.937V57.1647H228.499V28.5823Z" fill="#231F20"/>
<path d="M285.625 28.5823H257.063V57.1647H285.625V28.5823Z" fill="#231F20"/>
<path d="M342.751 28.5823H314.189V57.1647H342.751V28.5823Z" fill="#231F20"/>
<path d="M399.874 28.5823H371.312V57.1647H399.874V28.5823Z" fill="#231F20"/>
<path d="M457 28.5823H428.438V57.1647H457V28.5823Z" fill="#231F20"/>
<path d="M28.5616 57.1677H0V85.75H28.5616V57.1677Z" fill="#231F20"/>
<path d="M85.6877 57.1677H57.1261V85.75H85.6877V57.1677Z" fill="#231F20"/>
<path d="M142.811 57.1677H114.249V85.75H142.811V57.1677Z" fill="#231F20"/>
<path d="M199.937 57.1677H171.375V85.75H199.937V57.1677Z" fill="#231F20"/>
<path d="M257.063 57.1677H228.501V85.75H257.063V57.1677Z" fill="#231F20"/>
<path d="M314.186 57.1677H285.625V85.75H314.186V57.1677Z" fill="#231F20"/>
<path d="M371.312 57.1677H342.751V85.75H371.312V57.1677Z" fill="#231F20"/>
<path d="M428.438 57.1677H399.877V85.75H428.438V57.1677Z" fill="#231F20"/>
<path d="M57.1231 85.75H28.5616V114.332H57.1231V85.75Z" fill="#231F20"/>
<path d="M114.249 85.75H85.6877V114.332H114.249V85.75Z" fill="#231F20"/>
<path d="M171.375 85.75H142.814V114.332H171.375V85.75Z" fill="#231F20"/>
<path d="M228.499 85.75H199.937V114.332H228.499V85.75Z" fill="#231F20"/>
<path d="M285.625 85.75H257.063V114.332H285.625V85.75Z" fill="#231F20"/>
<path d="M342.751 85.75H314.189V114.332H342.751V85.75Z" fill="#231F20"/>
<path d="M399.874 85.75H371.312V114.332H399.874V85.75Z" fill="#231F20"/>
<path d="M457 85.75H428.438V114.332H457V85.75Z" fill="#231F20"/>
<path d="M28.5616 114.332H0V142.915H28.5616V114.332Z" fill="#231F20"/>
<path d="M85.6877 114.332H57.1261V142.915H85.6877V114.332Z" fill="#231F20"/>
<path d="M142.811 114.332H114.249V142.915H142.811V114.332Z" fill="#231F20"/>
<path d="M199.937 114.332H171.375V142.915H199.937V114.332Z" fill="#231F20"/>
<path d="M257.063 114.332H228.501V142.915H257.063V114.332Z" fill="#231F20"/>
<path d="M314.186 114.332H285.625V142.915H314.186V114.332Z" fill="#231F20"/>
<path d="M371.312 114.332H342.751V142.915H371.312V114.332Z" fill="#231F20"/>
<path d="M428.438 114.332H399.877V142.915H428.438V114.332Z" fill="#231F20"/>
<path d="M57.1231 142.918H28.5616V171.5H57.1231V142.918Z" fill="#231F20"/>
<path d="M114.249 142.918H85.6877V171.5H114.249V142.918Z" fill="#231F20"/>
<path d="M171.375 142.918H142.814V171.5H171.375V142.918Z" fill="#231F20"/>
<path d="M228.499 142.918H199.937V171.5H228.499V142.918Z" fill="#231F20"/>
<path d="M285.625 142.918H257.063V171.5H285.625V142.918Z" fill="#231F20"/>
<path d="M342.751 142.918H314.189V171.5H342.751V142.918Z" fill="#231F20"/>
<path d="M399.874 142.918H371.312V171.5H399.874V142.918Z" fill="#231F20"/>
<path d="M457 142.918H428.438V171.5H457V142.918Z" fill="#231F20"/>
<path d="M28.5616 171.5H0V200.082H28.5616V171.5Z" fill="#231F20"/>
<path d="M85.6877 171.5H57.1261V200.082H85.6877V171.5Z" fill="#231F20"/>
<path d="M142.811 171.5H114.249V200.082H142.811V171.5Z" fill="#231F20"/>
<path d="M199.937 171.5H171.375V200.082H199.937V171.5Z" fill="#231F20"/>
<path d="M257.063 171.5H228.501V200.082H257.063V171.5Z" fill="#231F20"/>
<path d="M314.186 171.5H285.625V200.082H314.186V171.5Z" fill="#231F20"/>
<path d="M371.312 171.5H342.751V200.082H371.312V171.5Z" fill="#231F20"/>
<path d="M428.438 171.5H399.877V200.082H428.438V171.5Z" fill="#231F20"/>
<path d="M57.1231 200.082H28.5616V228.665H57.1231V200.082Z" fill="#231F20"/>
<path d="M114.249 200.082H85.6877V228.665H114.249V200.082Z" fill="#231F20"/>
<path d="M171.375 200.082H142.814V228.665H171.375V200.082Z" fill="#231F20"/>
<path d="M228.499 200.082H199.937V228.665H228.499V200.082Z" fill="#231F20"/>
<path d="M285.625 200.082H257.063V228.665H285.625V200.082Z" fill="#231F20"/>
<path d="M342.751 200.082H314.189V228.665H342.751V200.082Z" fill="#231F20"/>
<path d="M399.874 200.082H371.312V228.665H399.874V200.082Z" fill="#231F20"/>
<path d="M457 200.082H428.438V228.665H457V200.082Z" fill="#231F20"/>
<path d="M28.5616 228.668H0V257.25H28.5616V228.668Z" fill="#231F20"/>
<path d="M85.6877 228.668H57.1261V257.25H85.6877V228.668Z" fill="#231F20"/>
<path d="M142.811 228.668H114.249V257.25H142.811V228.668Z" fill="#231F20"/>
<path d="M199.937 228.668H171.375V257.25H199.937V228.668Z" fill="#231F20"/>
<path d="M257.063 228.668H228.501V257.25H257.063V228.668Z" fill="#231F20"/>
<path d="M314.186 228.668H285.625V257.25H314.186V228.668Z" fill="#231F20"/>
<path d="M371.312 228.668H342.751V257.25H371.312V228.668Z" fill="#231F20"/>
<path d="M428.438 228.668H399.877V257.25H428.438V228.668Z" fill="#231F20"/>
<path d="M57.1231 257.25H28.5616V285.832H57.1231V257.25Z" fill="#231F20"/>
<path d="M114.249 257.25H85.6877V285.832H114.249V257.25Z" fill="#231F20"/>
<path d="M171.375 257.25H142.814V285.832H171.375V257.25Z" fill="#231F20"/>
<path d="M228.499 257.25H199.937V285.832H228.499V257.25Z" fill="#231F20"/>
<path d="M285.625 257.25H257.063V285.832H285.625V257.25Z" fill="#231F20"/>
<path d="M342.751 257.25H314.189V285.832H342.751V257.25Z" fill="#231F20"/>
<path d="M399.874 257.25H371.312V285.832H399.874V257.25Z" fill="#231F20"/>
<path d="M457 257.25H428.438V285.832H457V257.25Z" fill="#231F20"/>
<path d="M28.5616 285.832H0V314.415H28.5616V285.832Z" fill="#231F20"/>
<path d="M85.6877 285.832H57.1261V314.415H85.6877V285.832Z" fill="#231F20"/>
<path d="M142.811 285.832H114.249V314.415H142.811V285.832Z" fill="#231F20"/>
<path d="M199.937 285.832H171.375V314.415H199.937V285.832Z" fill="#231F20"/>
<path d="M257.063 285.832H228.501V314.415H257.063V285.832Z" fill="#231F20"/>
<path d="M314.186 285.832H285.625V314.415H314.186V285.832Z" fill="#231F20"/>
<path d="M371.312 285.832H342.751V314.415H371.312V285.832Z" fill="#231F20"/>
<path d="M428.438 285.832H399.877V314.415H428.438V285.832Z" fill="#231F20"/>
<path d="M57.1231 314.418H28.5616V343H57.1231V314.418Z" fill="#231F20"/>
<path d="M114.249 314.418H85.6877V343H114.249V314.418Z" fill="#231F20"/>
<path d="M171.375 314.418H142.814V343H171.375V314.418Z" fill="#231F20"/>
<path d="M228.499 314.418H199.937V343H228.499V314.418Z" fill="#231F20"/>
<path d="M285.625 314.418H257.063V343H285.625V314.418Z" fill="#231F20"/>
<path d="M342.751 314.418H314.189V343H342.751V314.418Z" fill="#231F20"/>
<path d="M399.874 314.418H371.312V343H399.874V314.418Z" fill="#231F20"/>
<path d="M457 314.418H428.438V343H457V314.418Z" fill="#231F20"/>
<path d="M913.901 0H457V343H913.901V0Z" fill="white"/>
<path d="M485.562 0H457V28.5823H485.562V0Z" fill="#231F20"/>
<path d="M542.688 0H514.126V28.5823H542.688V0Z" fill="#231F20"/>
<path d="M599.811 0H571.249V28.5823H599.811V0Z" fill="#231F20"/>
<path d="M656.937 0H628.375V28.5823H656.937V0Z" fill="#231F20"/>
<path d="M714.063 0H685.502V28.5823H714.063V0Z" fill="#231F20"/>
<path d="M771.186 0H742.625V28.5823H771.186V0Z" fill="#231F20"/>
<path d="M828.312 0H799.751V28.5823H828.312V0Z" fill="#231F20"/>
<path d="M885.438 0H856.877V28.5823H885.438V0Z" fill="#231F20"/>
<path d="M514.123 28.5823H485.562V57.1647H514.123V28.5823Z" fill="#231F20"/>
<path d="M571.249 28.5823H542.688V57.1647H571.249V28.5823Z" fill="#231F20"/>
<path d="M628.375 28.5823H599.814V57.1647H628.375V28.5823Z" fill="#231F20"/>
<path d="M685.498 28.5823H656.937V57.1647H685.498V28.5823Z" fill="#231F20"/>
<path d="M742.625 28.5823H714.063V57.1647H742.625V28.5823Z" fill="#231F20"/>
<path d="M799.751 28.5823H771.189V57.1647H799.751V28.5823Z" fill="#231F20"/>
<path d="M856.874 28.5823H828.312V57.1647H856.874V28.5823Z" fill="#231F20"/>
<path d="M914 28.5823H885.438V57.1647H914V28.5823Z" fill="#231F20"/>
<path d="M485.562 57.1677H457V85.75H485.562V57.1677Z" fill="#231F20"/>
<path d="M542.688 57.1677H514.126V85.75H542.688V57.1677Z" fill="#231F20"/>
<path d="M599.811 57.1677H571.249V85.75H599.811V57.1677Z" fill="#231F20"/>
<path d="M656.937 57.1677H628.375V85.75H656.937V57.1677Z" fill="#231F20"/>
<path d="M714.063 57.1677H685.502V85.75H714.063V57.1677Z" fill="#231F20"/>
<path d="M771.186 57.1677H742.625V85.75H771.186V57.1677Z" fill="#231F20"/>
<path d="M828.312 57.1677H799.751V85.75H828.312V57.1677Z" fill="#231F20"/>
<path d="M885.438 57.1677H856.877V85.75H885.438V57.1677Z" fill="#231F20"/>
<path d="M514.123 85.75H485.562V114.332H514.123V85.75Z" fill="#231F20"/>
<path d="M571.249 85.75H542.688V114.332H571.249V85.75Z" fill="#231F20"/>
<path d="M628.375 85.75H599.814V114.332H628.375V85.75Z" fill="#231F20"/>
<path d="M685.498 85.75H656.937V114.332H685.498V85.75Z" fill="#231F20"/>
<path d="M742.625 85.75H714.063V114.332H742.625V85.75Z" fill="#231F20"/>
<path d="M799.751 85.75H771.189V114.332H799.751V85.75Z" fill="#231F20"/>
<path d="M856.874 85.75H828.312V114.332H856.874V85.75Z" fill="#231F20"/>
<path d="M914 85.75H885.438V114.332H914V85.75Z" fill="#231F20"/>
<path d="M485.562 114.332H457V142.915H485.562V114.332Z" fill="#231F20"/>
<path d="M542.688 114.332H514.126V142.915H542.688V114.332Z" fill="#231F20"/>
<path d="M599.811 114.332H571.249V142.915H599.811V114.332Z" fill="#231F20"/>
<path d="M656.937 114.332H628.375V142.915H656.937V114.332Z" fill="#231F20"/>
<path d="M714.063 114.332H685.502V142.915H714.063V114.332Z" fill="#231F20"/>
<path d="M771.186 114.332H742.625V142.915H771.186V114.332Z" fill="#231F20"/>
<path d="M828.312 114.332H799.751V142.915H828.312V114.332Z" fill="#231F20"/>
<path d="M885.438 114.332H856.877V142.915H885.438V114.332Z" fill="#231F20"/>
<path d="M514.123 142.918H485.562V171.5H514.123V142.918Z" fill="#231F20"/>
<path d="M571.249 142.918H542.688V171.5H571.249V142.918Z" fill="#231F20"/>
<path d="M628.375 142.918H599.814V171.5H628.375V142.918Z" fill="#231F20"/>
<path d="M685.498 142.918H656.937V171.5H685.498V142.918Z" fill="#231F20"/>
<path d="M742.625 142.918H714.063V171.5H742.625V142.918Z" fill="#231F20"/>
<path d="M799.751 142.918H771.189V171.5H799.751V142.918Z" fill="#231F20"/>
<path d="M856.874 142.918H828.312V171.5H856.874V142.918Z" fill="#231F20"/>
<path d="M914 142.918H885.438V171.5H914V142.918Z" fill="#231F20"/>
<path d="M485.562 171.5H457V200.082H485.562V171.5Z" fill="#231F20"/>
<path d="M542.688 171.5H514.126V200.082H542.688V171.5Z" fill="#231F20"/>
<path d="M599.811 171.5H571.249V200.082H599.811V171.5Z" fill="#231F20"/>
<path d="M656.937 171.5H628.375V200.082H656.937V171.5Z" fill="#231F20"/>
<path d="M714.063 171.5H685.502V200.082H714.063V171.5Z" fill="#231F20"/>
<path d="M771.186 171.5H742.625V200.082H771.186V171.5Z" fill="#231F20"/>
<path d="M828.312 171.5H799.751V200.082H828.312V171.5Z" fill="#231F20"/>
<path d="M885.438 171.5H856.877V200.082H885.438V171.5Z" fill="#231F20"/>
<path d="M514.123 200.082H485.562V228.665H514.123V200.082Z" fill="#231F20"/>
<path d="M571.249 200.082H542.688V228.665H571.249V200.082Z" fill="#231F20"/>
<path d="M628.375 200.082H599.814V228.665H628.375V200.082Z" fill="#231F20"/>
<path d="M685.498 200.082H656.937V228.665H685.498V200.082Z" fill="#231F20"/>
<path d="M742.625 200.082H714.063V228.665H742.625V200.082Z" fill="#231F20"/>
<path d="M799.751 200.082H771.189V228.665H799.751V200.082Z" fill="#231F20"/>
<path d="M856.874 200.082H828.312V228.665H856.874V200.082Z" fill="#231F20"/>
<path d="M914 200.082H885.438V228.665H914V200.082Z" fill="#231F20"/>
<path d="M485.562 228.668H457V257.25H485.562V228.668Z" fill="#231F20"/>
<path d="M542.688 228.668H514.126V257.25H542.688V228.668Z" fill="#231F20"/>
<path d="M599.811 228.668H571.249V257.25H599.811V228.668Z" fill="#231F20"/>
<path d="M656.937 228.668H628.375V257.25H656.937V228.668Z" fill="#231F20"/>
<path d="M714.063 228.668H685.502V257.25H714.063V228.668Z" fill="#231F20"/>
<path d="M771.186 228.668H742.625V257.25H771.186V228.668Z" fill="#231F20"/>
<path d="M828.312 228.668H799.751V257.25H828.312V228.668Z" fill="#231F20"/>
<path d="M885.438 228.668H856.877V257.25H885.438V228.668Z" fill="#231F20"/>
<path d="M514.123 257.25H485.562V285.832H514.123V257.25Z" fill="#231F20"/>
<path d="M571.249 257.25H542.688V285.832H571.249V257.25Z" fill="#231F20"/>
<path d="M628.375 257.25H599.814V285.832H628.375V257.25Z" fill="#231F20"/>
<path d="M685.498 257.25H656.937V285.832H685.498V257.25Z" fill="#231F20"/>
<path d="M742.625 257.25H714.063V285.832H742.625V257.25Z" fill="#231F20"/>
<path d="M799.751 257.25H771.189V285.832H799.751V257.25Z" fill="#231F20"/>
<path d="M856.874 257.25H828.312V285.832H856.874V257.25Z" fill="#231F20"/>
<path d="M914 257.25H885.438V285.832H914V257.25Z" fill="#231F20"/>
<path d="M485.562 285.832H457V314.415H485.562V285.832Z" fill="#231F20"/>
<path d="M542.688 285.832H514.126V314.415H542.688V285.832Z" fill="#231F20"/>
<path d="M599.811 285.832H571.249V314.415H599.811V285.832Z" fill="#231F20"/>
<path d="M656.937 285.832H628.375V314.415H656.937V285.832Z" fill="#231F20"/>
<path d="M714.063 285.832H685.502V314.415H714.063V285.832Z" fill="#231F20"/>
<path d="M771.186 285.832H742.625V314.415H771.186V285.832Z" fill="#231F20"/>
<path d="M828.312 285.832H799.751V314.415H828.312V285.832Z" fill="#231F20"/>
<path d="M885.438 285.832H856.877V314.415H885.438V285.832Z" fill="#231F20"/>
<path d="M514.123 314.418H485.562V343H514.123V314.418Z" fill="#231F20"/>
<path d="M571.249 314.418H542.688V343H571.249V314.418Z" fill="#231F20"/>
<path d="M628.375 314.418H599.814V343H628.375V314.418Z" fill="#231F20"/>
<path d="M685.498 314.418H656.937V343H685.498V314.418Z" fill="#231F20"/>
<path d="M742.625 314.418H714.063V343H742.625V314.418Z" fill="#231F20"/>
<path d="M799.751 314.418H771.189V343H799.751V314.418Z" fill="#231F20"/>
<path d="M856.874 314.418H828.312V343H856.874V314.418Z" fill="#231F20"/>
<path d="M914 314.418H885.438V343H914V314.418Z" fill="#231F20"/>
<path d="M1370.9 0H914V343H1370.9V0Z" fill="white"/>
<path d="M942.562 0H914V28.5823H942.562V0Z" fill="#231F20"/>
<path d="M999.688 0H971.126V28.5823H999.688V0Z" fill="#231F20"/>
<path d="M1056.81 0H1028.25V28.5823H1056.81V0Z" fill="#231F20"/>
<path d="M1113.94 0H1085.38V28.5823H1113.94V0Z" fill="#231F20"/>
<path d="M1171.06 0H1142.5V28.5823H1171.06V0Z" fill="#231F20"/>
<path d="M1228.19 0H1199.62V28.5823H1228.19V0Z" fill="#231F20"/>
<path d="M1285.31 0H1256.75V28.5823H1285.31V0Z" fill="#231F20"/>
<path d="M1342.44 0H1313.88V28.5823H1342.44V0Z" fill="#231F20"/>
<path d="M971.123 28.5823H942.562V57.1647H971.123V28.5823Z" fill="#231F20"/>
<path d="M1028.25 28.5823H999.688V57.1647H1028.25V28.5823Z" fill="#231F20"/>
<path d="M1085.38 28.5823H1056.81V57.1647H1085.38V28.5823Z" fill="#231F20"/>
<path d="M1142.5 28.5823H1113.94V57.1647H1142.5V28.5823Z" fill="#231F20"/>
<path d="M1199.62 28.5823H1171.06V57.1647H1199.62V28.5823Z" fill="#231F20"/>
<path d="M1256.75 28.5823H1228.19V57.1647H1256.75V28.5823Z" fill="#231F20"/>
<path d="M1313.87 28.5823H1285.31V57.1647H1313.87V28.5823Z" fill="#231F20"/>
<path d="M1371 28.5823H1342.44V57.1647H1371V28.5823Z" fill="#231F20"/>
<path d="M942.562 57.1677H914V85.75H942.562V57.1677Z" fill="#231F20"/>
<path d="M999.688 57.1677H971.126V85.75H999.688V57.1677Z" fill="#231F20"/>
<path d="M1056.81 57.1677H1028.25V85.75H1056.81V57.1677Z" fill="#231F20"/>
<path d="M1113.94 57.1677H1085.38V85.75H1113.94V57.1677Z" fill="#231F20"/>
<path d="M1171.06 57.1677H1142.5V85.75H1171.06V57.1677Z" fill="#231F20"/>
<path d="M1228.19 57.1677H1199.62V85.75H1228.19V57.1677Z" fill="#231F20"/>
<path d="M1285.31 57.1677H1256.75V85.75H1285.31V57.1677Z" fill="#231F20"/>
<path d="M1342.44 57.1677H1313.88V85.75H1342.44V57.1677Z" fill="#231F20"/>
<path d="M971.123 85.75H942.562V114.332H971.123V85.75Z" fill="#231F20"/>
<path d="M1028.25 85.75H999.688V114.332H1028.25V85.75Z" fill="#231F20"/>
<path d="M1085.38 85.75H1056.81V114.332H1085.38V85.75Z" fill="#231F20"/>
<path d="M1142.5 85.75H1113.94V114.332H1142.5V85.75Z" fill="#231F20"/>
<path d="M1199.62 85.75H1171.06V114.332H1199.62V85.75Z" fill="#231F20"/>
<path d="M1256.75 85.75H1228.19V114.332H1256.75V85.75Z" fill="#231F20"/>
<path d="M1313.87 85.75H1285.31V114.332H1313.87V85.75Z" fill="#231F20"/>
<path d="M1371 85.75H1342.44V114.332H1371V85.75Z" fill="#231F20"/>
<path d="M942.562 114.332H914V142.915H942.562V114.332Z" fill="#231F20"/>
<path d="M999.688 114.332H971.126V142.915H999.688V114.332Z" fill="#231F20"/>
<path d="M1056.81 114.332H1028.25V142.915H1056.81V114.332Z" fill="#231F20"/>
<path d="M1113.94 114.332H1085.38V142.915H1113.94V114.332Z" fill="#231F20"/>
<path d="M1171.06 114.332H1142.5V142.915H1171.06V114.332Z" fill="#231F20"/>
<path d="M1228.19 114.332H1199.62V142.915H1228.19V114.332Z" fill="#231F20"/>
<path d="M1285.31 114.332H1256.75V142.915H1285.31V114.332Z" fill="#231F20"/>
<path d="M1342.44 114.332H1313.88V142.915H1342.44V114.332Z" fill="#231F20"/>
<path d="M971.123 142.918H942.562V171.5H971.123V142.918Z" fill="#231F20"/>
<path d="M1028.25 142.918H999.688V171.5H1028.25V142.918Z" fill="#231F20"/>
<path d="M1085.38 142.918H1056.81V171.5H1085.38V142.918Z" fill="#231F20"/>
<path d="M1142.5 142.918H1113.94V171.5H1142.5V142.918Z" fill="#231F20"/>
<path d="M1199.62 142.918H1171.06V171.5H1199.62V142.918Z" fill="#231F20"/>
<path d="M1256.75 142.918H1228.19V171.5H1256.75V142.918Z" fill="#231F20"/>
<path d="M1313.87 142.918H1285.31V171.5H1313.87V142.918Z" fill="#231F20"/>
<path d="M1371 142.918H1342.44V171.5H1371V142.918Z" fill="#231F20"/>
<path d="M942.562 171.5H914V200.082H942.562V171.5Z" fill="#231F20"/>
<path d="M999.688 171.5H971.126V200.082H999.688V171.5Z" fill="#231F20"/>
<path d="M1056.81 171.5H1028.25V200.082H1056.81V171.5Z" fill="#231F20"/>
<path d="M1113.94 171.5H1085.38V200.082H1113.94V171.5Z" fill="#231F20"/>
<path d="M1171.06 171.5H1142.5V200.082H1171.06V171.5Z" fill="#231F20"/>
<path d="M1228.19 171.5H1199.62V200.082H1228.19V171.5Z" fill="#231F20"/>
<path d="M1285.31 171.5H1256.75V200.082H1285.31V171.5Z" fill="#231F20"/>
<path d="M1342.44 171.5H1313.88V200.082H1342.44V171.5Z" fill="#231F20"/>
<path d="M971.123 200.082H942.562V228.665H971.123V200.082Z" fill="#231F20"/>
<path d="M1028.25 200.082H999.688V228.665H1028.25V200.082Z" fill="#231F20"/>
<path d="M1085.38 200.082H1056.81V228.665H1085.38V200.082Z" fill="#231F20"/>
<path d="M1142.5 200.082H1113.94V228.665H1142.5V200.082Z" fill="#231F20"/>
<path d="M1199.62 200.082H1171.06V228.665H1199.62V200.082Z" fill="#231F20"/>
<path d="M1256.75 200.082H1228.19V228.665H1256.75V200.082Z" fill="#231F20"/>
<path d="M1313.87 200.082H1285.31V228.665H1313.87V200.082Z" fill="#231F20"/>
<path d="M1371 200.082H1342.44V228.665H1371V200.082Z" fill="#231F20"/>
<path d="M942.562 228.668H914V257.25H942.562V228.668Z" fill="#231F20"/>
<path d="M999.688 228.668H971.126V257.25H999.688V228.668Z" fill="#231F20"/>
<path d="M1056.81 228.668H1028.25V257.25H1056.81V228.668Z" fill="#231F20"/>
<path d="M1113.94 228.668H1085.38V257.25H1113.94V228.668Z" fill="#231F20"/>
<path d="M1171.06 228.668H1142.5V257.25H1171.06V228.668Z" fill="#231F20"/>
<path d="M1228.19 228.668H1199.62V257.25H1228.19V228.668Z" fill="#231F20"/>
<path d="M1285.31 228.668H1256.75V257.25H1285.31V228.668Z" fill="#231F20"/>
<path d="M1342.44 228.668H1313.88V257.25H1342.44V228.668Z" fill="#231F20"/>
<path d="M971.123 257.25H942.562V285.832H971.123V257.25Z" fill="#231F20"/>
<path d="M1028.25 257.25H999.688V285.832H1028.25V257.25Z" fill="#231F20"/>
<path d="M1085.38 257.25H1056.81V285.832H1085.38V257.25Z" fill="#231F20"/>
<path d="M1142.5 257.25H1113.94V285.832H1142.5V257.25Z" fill="#231F20"/>
<path d="M1199.62 257.25H1171.06V285.832H1199.62V257.25Z" fill="#231F20"/>
<path d="M1256.75 257.25H1228.19V285.832H1256.75V257.25Z" fill="#231F20"/>
<path d="M1313.87 257.25H1285.31V285.832H1313.87V257.25Z" fill="#231F20"/>
<path d="M1371 257.25H1342.44V285.832H1371V257.25Z" fill="#231F20"/>
<path d="M942.562 285.832H914V314.415H942.562V285.832Z" fill="#231F20"/>
<path d="M999.688 285.832H971.126V314.415H999.688V285.832Z" fill="#231F20"/>
<path d="M1056.81 285.832H1028.25V314.415H1056.81V285.832Z" fill="#231F20"/>
<path d="M1113.94 285.832H1085.38V314.415H1113.94V285.832Z" fill="#231F20"/>
<path d="M1171.06 285.832H1142.5V314.415H1171.06V285.832Z" fill="#231F20"/>
<path d="M1228.19 285.832H1199.62V314.415H1228.19V285.832Z" fill="#231F20"/>
<path d="M1285.31 285.832H1256.75V314.415H1285.31V285.832Z" fill="#231F20"/>
<path d="M1342.44 285.832H1313.88V314.415H1342.44V285.832Z" fill="#231F20"/>
<path d="M971.123 314.418H942.562V343H971.123V314.418Z" fill="#231F20"/>
<path d="M1028.25 314.418H999.688V343H1028.25V314.418Z" fill="#231F20"/>
<path d="M1085.38 314.418H1056.81V343H1085.38V314.418Z" fill="#231F20"/>
<path d="M1142.5 314.418H1113.94V343H1142.5V314.418Z" fill="#231F20"/>
<path d="M1199.62 314.418H1171.06V343H1199.62V314.418Z" fill="#231F20"/>
<path d="M1256.75 314.418H1228.19V343H1256.75V314.418Z" fill="#231F20"/>
<path d="M1313.87 314.418H1285.31V343H1313.87V314.418Z" fill="#231F20"/>
<path d="M1371 314.418H1342.44V343H1371V314.418Z" fill="#231F20"/>
<path d="M1826.9 0H1370V343H1826.9V0Z" fill="white"/>
<path d="M1398.56 0H1370V28.5823H1398.56V0Z" fill="#231F20"/>
<path d="M1455.69 0H1427.13V28.5823H1455.69V0Z" fill="#231F20"/>
<path d="M1512.81 0H1484.25V28.5823H1512.81V0Z" fill="#231F20"/>
<path d="M1569.94 0H1541.38V28.5823H1569.94V0Z" fill="#231F20"/>
<path d="M1627.06 0H1598.5V28.5823H1627.06V0Z" fill="#231F20"/>
<path d="M1684.19 0H1655.62V28.5823H1684.19V0Z" fill="#231F20"/>
<path d="M1741.31 0H1712.75V28.5823H1741.31V0Z" fill="#231F20"/>
<path d="M1798.44 0H1769.88V28.5823H1798.44V0Z" fill="#231F20"/>
<path d="M1427.12 28.5823H1398.56V57.1647H1427.12V28.5823Z" fill="#231F20"/>
<path d="M1484.25 28.5823H1455.69V57.1647H1484.25V28.5823Z" fill="#231F20"/>
<path d="M1541.38 28.5823H1512.81V57.1647H1541.38V28.5823Z" fill="#231F20"/>
<path d="M1598.5 28.5823H1569.94V57.1647H1598.5V28.5823Z" fill="#231F20"/>
<path d="M1655.62 28.5823H1627.06V57.1647H1655.62V28.5823Z" fill="#231F20"/>
<path d="M1712.75 28.5823H1684.19V57.1647H1712.75V28.5823Z" fill="#231F20"/>
<path d="M1769.87 28.5823H1741.31V57.1647H1769.87V28.5823Z" fill="#231F20"/>
<path d="M1827 28.5823H1798.44V57.1647H1827V28.5823Z" fill="#231F20"/>
<path d="M1398.56 57.1677H1370V85.75H1398.56V57.1677Z" fill="#231F20"/>
<path d="M1455.69 57.1677H1427.13V85.75H1455.69V57.1677Z" fill="#231F20"/>
<path d="M1512.81 57.1677H1484.25V85.75H1512.81V57.1677Z" fill="#231F20"/>
<path d="M1569.94 57.1677H1541.38V85.75H1569.94V57.1677Z" fill="#231F20"/>
<path d="M1627.06 57.1677H1598.5V85.75H1627.06V57.1677Z" fill="#231F20"/>
<path d="M1684.19 57.1677H1655.62V85.75H1684.19V57.1677Z" fill="#231F20"/>
<path d="M1741.31 57.1677H1712.75V85.75H1741.31V57.1677Z" fill="#231F20"/>
<path d="M1798.44 57.1677H1769.88V85.75H1798.44V57.1677Z" fill="#231F20"/>
<path d="M1427.12 85.75H1398.56V114.332H1427.12V85.75Z" fill="#231F20"/>
<path d="M1484.25 85.75H1455.69V114.332H1484.25V85.75Z" fill="#231F20"/>
<path d="M1541.38 85.75H1512.81V114.332H1541.38V85.75Z" fill="#231F20"/>
<path d="M1598.5 85.75H1569.94V114.332H1598.5V85.75Z" fill="#231F20"/>
<path d="M1655.62 85.75H1627.06V114.332H1655.62V85.75Z" fill="#231F20"/>
<path d="M1712.75 85.75H1684.19V114.332H1712.75V85.75Z" fill="#231F20"/>
<path d="M1769.87 85.75H1741.31V114.332H1769.87V85.75Z" fill="#231F20"/>
<path d="M1827 85.75H1798.44V114.332H1827V85.75Z" fill="#231F20"/>
<path d="M1398.56 114.332H1370V142.915H1398.56V114.332Z" fill="#231F20"/>
<path d="M1455.69 114.332H1427.13V142.915H1455.69V114.332Z" fill="#231F20"/>
<path d="M1512.81 114.332H1484.25V142.915H1512.81V114.332Z" fill="#231F20"/>
<path d="M1569.94 114.332H1541.38V142.915H1569.94V114.332Z" fill="#231F20"/>
<path d="M1627.06 114.332H1598.5V142.915H1627.06V114.332Z" fill="#231F20"/>
<path d="M1684.19 114.332H1655.62V142.915H1684.19V114.332Z" fill="#231F20"/>
<path d="M1741.31 114.332H1712.75V142.915H1741.31V114.332Z" fill="#231F20"/>
<path d="M1798.44 114.332H1769.88V142.915H1798.44V114.332Z" fill="#231F20"/>
<path d="M1427.12 142.918H1398.56V171.5H1427.12V142.918Z" fill="#231F20"/>
<path d="M1484.25 142.918H1455.69V171.5H1484.25V142.918Z" fill="#231F20"/>
<path d="M1541.38 142.918H1512.81V171.5H1541.38V142.918Z" fill="#231F20"/>
<path d="M1598.5 142.918H1569.94V171.5H1598.5V142.918Z" fill="#231F20"/>
<path d="M1655.62 142.918H1627.06V171.5H1655.62V142.918Z" fill="#231F20"/>
<path d="M1712.75 142.918H1684.19V171.5H1712.75V142.918Z" fill="#231F20"/>
<path d="M1769.87 142.918H1741.31V171.5H1769.87V142.918Z" fill="#231F20"/>
<path d="M1827 142.918H1798.44V171.5H1827V142.918Z" fill="#231F20"/>
<path d="M1398.56 171.5H1370V200.082H1398.56V171.5Z" fill="#231F20"/>
<path d="M1455.69 171.5H1427.13V200.082H1455.69V171.5Z" fill="#231F20"/>
<path d="M1512.81 171.5H1484.25V200.082H1512.81V171.5Z" fill="#231F20"/>
<path d="M1569.94 171.5H1541.38V200.082H1569.94V171.5Z" fill="#231F20"/>
<path d="M1627.06 171.5H1598.5V200.082H1627.06V171.5Z" fill="#231F20"/>
<path d="M1684.19 171.5H1655.62V200.082H1684.19V171.5Z" fill="#231F20"/>
<path d="M1741.31 171.5H1712.75V200.082H1741.31V171.5Z" fill="#231F20"/>
<path d="M1798.44 171.5H1769.88V200.082H1798.44V171.5Z" fill="#231F20"/>
<path d="M1427.12 200.082H1398.56V228.665H1427.12V200.082Z" fill="#231F20"/>
<path d="M1484.25 200.082H1455.69V228.665H1484.25V200.082Z" fill="#231F20"/>
<path d="M1541.38 200.082H1512.81V228.665H1541.38V200.082Z" fill="#231F20"/>
<path d="M1598.5 200.082H1569.94V228.665H1598.5V200.082Z" fill="#231F20"/>
<path d="M1655.62 200.082H1627.06V228.665H1655.62V200.082Z" fill="#231F20"/>
<path d="M1712.75 200.082H1684.19V228.665H1712.75V200.082Z" fill="#231F20"/>
<path d="M1769.87 200.082H1741.31V228.665H1769.87V200.082Z" fill="#231F20"/>
<path d="M1827 200.082H1798.44V228.665H1827V200.082Z" fill="#231F20"/>
<path d="M1398.56 228.668H1370V257.25H1398.56V228.668Z" fill="#231F20"/>
<path d="M1455.69 228.668H1427.13V257.25H1455.69V228.668Z" fill="#231F20"/>
<path d="M1512.81 228.668H1484.25V257.25H1512.81V228.668Z" fill="#231F20"/>
<path d="M1569.94 228.668H1541.38V257.25H1569.94V228.668Z" fill="#231F20"/>
<path d="M1627.06 228.668H1598.5V257.25H1627.06V228.668Z" fill="#231F20"/>
<path d="M1684.19 228.668H1655.62V257.25H1684.19V228.668Z" fill="#231F20"/>
<path d="M1741.31 228.668H1712.75V257.25H1741.31V228.668Z" fill="#231F20"/>
<path d="M1798.44 228.668H1769.88V257.25H1798.44V228.668Z" fill="#231F20"/>
<path d="M1427.12 257.25H1398.56V285.832H1427.12V257.25Z" fill="#231F20"/>
<path d="M1484.25 257.25H1455.69V285.832H1484.25V257.25Z" fill="#231F20"/>
<path d="M1541.38 257.25H1512.81V285.832H1541.38V257.25Z" fill="#231F20"/>
<path d="M1598.5 257.25H1569.94V285.832H1598.5V257.25Z" fill="#231F20"/>
<path d="M1655.62 257.25H1627.06V285.832H1655.62V257.25Z" fill="#231F20"/>
<path d="M1712.75 257.25H1684.19V285.832H1712.75V257.25Z" fill="#231F20"/>
<path d="M1769.87 257.25H1741.31V285.832H1769.87V257.25Z" fill="#231F20"/>
<path d="M1827 257.25H1798.44V285.832H1827V257.25Z" fill="#231F20"/>
<path d="M1398.56 285.832H1370V314.415H1398.56V285.832Z" fill="#231F20"/>
<path d="M1455.69 285.832H1427.13V314.415H1455.69V285.832Z" fill="#231F20"/>
<path d="M1512.81 285.832H1484.25V314.415H1512.81V285.832Z" fill="#231F20"/>
<path d="M1569.94 285.832H1541.38V314.415H1569.94V285.832Z" fill="#231F20"/>
<path d="M1627.06 285.832H1598.5V314.415H1627.06V285.832Z" fill="#231F20"/>
<path d="M1684.19 285.832H1655.62V314.415H1684.19V285.832Z" fill="#231F20"/>
<path d="M1741.31 285.832H1712.75V314.415H1741.31V285.832Z" fill="#231F20"/>
<path d="M1798.44 285.832H1769.88V314.415H1798.44V285.832Z" fill="#231F20"/>
<path d="M1427.12 314.418H1398.56V343H1427.12V314.418Z" fill="#231F20"/>
<path d="M1484.25 314.418H1455.69V343H1484.25V314.418Z" fill="#231F20"/>
<path d="M1541.38 314.418H1512.81V343H1541.38V314.418Z" fill="#231F20"/>
<path d="M1598.5 314.418H1569.94V343H1598.5V314.418Z" fill="#231F20"/>
<path d="M1655.62 314.418H1627.06V343H1655.62V314.418Z" fill="#231F20"/>
<path d="M1712.75 314.418H1684.19V343H1712.75V314.418Z" fill="#231F20"/>
<path d="M1769.87 314.418H1741.31V343H1769.87V314.418Z" fill="#231F20"/>
<path d="M1827 314.418H1798.44V343H1827V314.418Z" fill="#231F20"/>
</g>
<defs>
<clipPath id="clip0_859_321">
<rect width="1440" height="57" fill="white" transform="translate(0 345)"/>
</clipPath>
<clipPath id="clip1_859_321">
<rect width="1440" height="57" fill="white"/>
</clipPath>
</defs>
</svg>
